<svg width="1067" height="729" viewBox="0 0 1067 729" fill="none" xmlns="http://www.w3.org/2000/svg">
<path d="M647.565 624.601C632.545 640.222 618.328 650.299 607.116 658.253C475.15 751.826 318.971 724.547 285.772 717.889C236.751 708.044 142.023 689.029 73.5285 609.445C-30.1072 489.033 -13.9481 299.297 66.4072 174.04C81.1161 151.139 158.778 23.9657 316.614 3.57749C412.145 -8.75386 523.497 16.1161 604.138 82.9022C773.42 223.055 761.352 506.183 647.565 624.601Z" fill="#DAD8F5"/>
<path d="M302.45 669.573C297.84 586.337 266.972 510.432 157.458 456.417C157.458 456.417 140.444 660.584 302.45 669.573Z" fill="#BDD0FB"/>
<path opacity="0.51" d="M272.385 633.46C272.152 633.46 271.945 633.383 271.764 633.201C209.795 572.71 171.106 483.956 170.718 483.075C170.536 482.634 170.718 482.116 171.184 481.909C171.624 481.728 172.142 481.909 172.349 482.375C172.738 483.256 211.297 571.7 273.007 631.932C273.343 632.269 273.369 632.839 273.033 633.175C272.826 633.357 272.593 633.46 272.385 633.46Z" fill="white"/>
<path d="M493.406 664.392C568.22 671.309 639.978 653.823 702.646 563.255C702.646 563.255 522.876 521.028 493.406 664.392Z" fill="#C8C4F0"/>
<path opacity="0.51" d="M535.85 639.937C535.643 639.937 535.436 639.859 535.28 639.73C534.918 639.419 534.866 638.849 535.177 638.486C557.551 612.114 594.168 595.352 620.944 585.949C649.922 575.767 673.953 571.726 674.186 571.7C674.678 571.622 675.119 571.959 675.196 572.425C675.274 572.918 674.963 573.358 674.471 573.436C673.513 573.591 578.863 589.705 536.523 639.626C536.342 639.833 536.109 639.937 535.85 639.937Z" fill="white"/>
<path d="M311.125 506.65L295.406 647.787H477.895L454.123 506.65H311.125Z" fill="url(#paint0_linear_90_7578)"/>
<path d="M4.56641 158.963V482.168C4.56641 508.748 25.7493 530.509 52.3186 531.183C170.327 534.24 583.057 541.597 695.394 539.939C714.712 539.654 730.353 524.188 730.897 504.888C733.073 429.812 736.568 249.246 723.569 165.413C720.824 147.771 705.934 134.559 688.091 133.989C589.22 130.829 151.682 120.777 39.4224 123.29C20.0263 123.756 4.56641 139.585 4.56641 158.963Z" fill="#074AAD"/>
<path d="M24.8438 157.382V464.449C24.8438 479.966 37.2997 492.634 52.8114 492.842L679.236 500.588C694.618 500.821 707.229 488.438 707.281 473.049L708.317 168.729C708.369 157.719 699.59 148.704 688.584 148.445L47.2438 135.492C34.9691 135.181 24.8438 145.077 24.8438 157.382Z" fill="#6BA1F1"/>
<path d="M711.993 513.204L24.8167 501.494C24.3247 501.494 23.9363 501.08 23.9622 500.588C23.9622 500.095 24.4024 499.707 24.8685 499.733L712.019 511.442C712.511 511.442 712.899 511.857 712.873 512.349C712.873 512.815 712.485 513.204 711.993 513.204Z" fill="#6BA1F1"/>
<path d="M375.192 527.504C370.764 527.504 367.164 523.903 367.164 519.473C367.164 515.043 370.764 511.442 375.192 511.442C379.62 511.442 383.22 515.043 383.22 519.473C383.245 523.903 379.62 527.504 375.192 527.504ZM375.192 513.204C371.748 513.204 368.925 516.028 368.925 519.473C368.925 522.919 371.748 525.742 375.192 525.742C378.636 525.742 381.459 522.919 381.459 519.473C381.459 516.028 378.662 513.204 375.192 513.204Z" fill="#6BA1F1"/>
<path d="M482.399 668.304C562.651 628.46 624.542 565.768 631.457 434.604C631.457 434.579 422.605 504.344 482.399 668.304Z" fill="#A39DE6"/>
<path opacity="0.51" d="M495.373 638.693C495.269 638.693 495.166 638.668 495.088 638.642C494.622 638.486 494.389 637.968 494.544 637.528C513.707 582.892 542.167 540.768 562.676 515.069C584.895 487.194 602.867 472.039 603.022 471.884C603.385 471.573 603.955 471.624 604.265 471.987C604.576 472.35 604.524 472.92 604.162 473.231C603.463 473.827 532.689 534.032 496.201 638.098C496.072 638.46 495.735 638.693 495.373 638.693Z" fill="white"/>
<path d="M517.206 676.646H250.115C242.864 676.646 237.4 671.491 238.825 665.921L242.243 652.372C243.279 648.305 247.759 645.299 253.093 645.144L510.577 637.113C516.145 636.932 521.065 639.885 522.282 644.134L528.471 665.739C530.051 671.335 524.561 676.646 517.206 676.646Z" fill="url(#paint1_linear_90_7578)"/>
<path d="M393.888 648.823C393.396 648.823 393.008 648.434 393.008 647.942C393.008 647.45 393.396 647.061 393.888 647.035L404.92 646.88C405.412 646.88 405.8 647.268 405.8 647.761C405.8 648.253 405.412 648.641 404.92 648.667L393.888 648.823Z" fill="white"/>
<path d="M248.691 669.185C248.639 669.185 248.587 669.185 248.561 669.185C248.069 669.107 247.758 668.667 247.836 668.175L249.416 658.304C250.27 652.994 254.776 649.082 260.137 649.004L377.161 647.294C377.653 647.294 378.041 647.683 378.041 648.175C378.041 648.667 377.653 649.056 377.161 649.082L260.137 650.792C255.631 650.869 251.824 654.133 251.125 658.589L249.545 668.46C249.493 668.874 249.131 669.185 248.691 669.185Z" fill="white"/>
<path d="M583.421 26.5303C587.409 26.7117 591.449 27.0744 595.411 27.6184C595.955 27.6961 596.473 27.6443 596.965 27.4889C598.311 27.0744 599.373 25.9086 599.58 24.4319C599.865 22.4112 598.415 20.5201 596.395 20.261C592.226 19.6911 587.979 19.3284 583.784 19.1212C581.738 19.0175 580.003 20.5978 579.899 22.6444C579.796 24.691 581.375 26.4267 583.421 26.5303Z" fill="#074AAD"/>
<path d="M479.396 60.2084C477.972 58.7318 475.615 58.6799 474.139 60.1048C471.109 63.0063 468.157 66.0891 465.386 69.2497C464.04 70.7781 464.195 73.1356 465.723 74.4827C466.733 75.3635 468.053 75.5967 469.245 75.2599C469.892 75.0785 470.488 74.69 470.954 74.1459C473.595 71.1408 476.392 68.2134 479.267 65.4674C480.768 64.0425 480.82 61.6851 479.396 60.2084Z" fill="#074AAD"/>
<path d="M433.871 144.144C431.851 143.859 429.96 145.284 429.701 147.331C429.132 151.502 428.743 155.75 428.536 159.947C428.432 161.994 430.012 163.729 432.058 163.833C432.498 163.859 432.913 163.807 433.301 163.678C434.751 163.237 435.865 161.916 435.942 160.31C436.15 156.32 436.512 152.305 437.056 148.341C437.341 146.295 435.916 144.429 433.871 144.144Z" fill="#074AAD"/>
<path d="M458.058 84.5342C456.349 83.3944 454.045 83.8866 452.905 85.5964C450.575 89.1196 448.399 92.7724 446.379 96.4511C445.395 98.2645 446.069 100.518 447.855 101.477C448.762 101.969 449.798 102.047 450.704 101.762C451.61 101.477 452.413 100.881 452.905 99.9743C454.821 96.477 456.893 93.0056 459.094 89.6637C460.234 87.9539 459.768 85.6482 458.058 84.5342Z" fill="#074AAD"/>
<path d="M551.981 28.5769C555.917 27.8775 559.931 27.3334 563.893 26.9708C564.152 26.9449 564.385 26.893 564.619 26.8153C566.276 26.3231 567.415 24.7169 567.234 22.9294C567.053 20.8828 565.24 19.3802 563.194 19.5616C559.025 19.9502 554.804 20.5201 550.661 21.2714C548.641 21.6341 547.294 23.5511 547.657 25.5718C548.019 27.5925 549.961 28.9396 551.981 28.5769Z" fill="#074AAD"/>
<path d="M442.623 112.979C440.707 112.254 438.557 113.238 437.832 115.155C436.356 119.093 435.009 123.135 433.87 127.202C433.326 129.171 434.466 131.217 436.434 131.787C437.133 131.994 437.858 131.969 438.505 131.761C439.671 131.399 440.655 130.492 441.017 129.222C442.105 125.362 443.374 121.528 444.772 117.798C445.523 115.855 444.539 113.705 442.623 112.979Z" fill="#074AAD"/>
<path d="M432.319 176.475C430.273 176.657 428.771 178.47 428.952 180.517C429.341 184.688 429.885 188.91 430.636 193.055C430.998 195.076 432.914 196.423 434.934 196.06C435.09 196.034 435.219 196.009 435.375 195.957C437.161 195.413 438.275 193.625 437.964 191.76C437.265 187.822 436.721 183.807 436.359 179.843C436.177 177.796 434.365 176.294 432.319 176.475Z" fill="#074AAD"/>
<path d="M493.198 53.4986C493.586 53.395 493.949 53.2137 494.285 52.9546C497.522 50.6231 500.889 48.3951 504.333 46.3485C506.094 45.2864 506.664 43.0066 505.602 41.245C504.54 39.4834 502.261 38.9135 500.5 39.9756C496.901 42.1258 493.327 44.4833 489.935 46.9444C488.277 48.1361 487.889 50.4676 489.106 52.1256C490.064 53.4468 491.721 53.965 493.198 53.4986Z" fill="#074AAD"/>
<path d="M521.373 37.67C521.503 37.6441 521.632 37.5923 521.736 37.5405C525.413 35.9861 529.194 34.5872 533.001 33.3437C534.943 32.7219 536.03 30.6235 535.383 28.6546C534.761 26.7376 532.716 25.6754 530.773 26.2454C530.748 26.2454 530.722 26.2713 530.696 26.2713C526.682 27.5666 522.694 29.0691 518.835 30.7012C516.945 31.5043 516.065 33.6804 516.867 35.5716C517.618 37.3073 519.586 38.214 521.373 37.67Z" fill="#074AAD"/>
<path d="M442.648 210.671C442.026 208.754 439.955 207.615 438.038 208.21C438.013 208.21 437.987 208.236 437.961 208.236C435.993 208.832 434.957 211.008 435.578 212.951C436.873 216.967 438.375 221.086 440.007 224.946C440.758 226.707 442.7 227.588 444.487 227.044C444.616 227.018 444.72 226.915 444.849 226.863C446.74 226.06 447.646 223.91 446.843 222.018C445.289 218.314 443.865 214.506 442.648 210.671Z" fill="#074AAD"/>
<path d="M624.854 30.8825C625.501 28.9396 624.414 26.8412 622.472 26.1935C620.555 25.5718 618.587 24.9759 616.645 24.4319C614.677 23.862 612.631 25.0277 612.061 26.9966C611.518 28.9655 612.657 31.0121 614.625 31.582C616.49 32.1001 618.354 32.6701 620.167 33.2659C620.918 33.4991 621.695 33.4991 622.394 33.2918C623.507 32.9291 624.44 32.0742 624.854 30.8825Z" fill="#074AAD"/>
<path d="M562.91 307.612C559 307.224 555.063 306.68 551.205 305.954C549.185 305.592 547.243 306.913 546.88 308.934C546.518 310.954 547.838 312.897 549.858 313.26C553.924 314.011 558.067 314.607 562.185 314.996C562.677 315.047 563.169 314.996 563.609 314.866C565.007 314.452 566.069 313.208 566.224 311.68C566.432 309.607 564.93 307.794 562.91 307.612Z" fill="#074AAD"/>
<path d="M716.086 112.176C716.889 113.834 718.78 114.637 720.489 114.119C720.67 114.067 720.851 113.99 721.033 113.912C722.871 113.005 723.648 110.803 722.742 108.938C721.861 107.124 720.929 105.285 719.971 103.524C719.013 101.71 716.76 101.037 714.947 102.021C713.134 102.979 712.461 105.233 713.445 107.047C714.377 108.705 715.258 110.44 716.086 112.176Z" fill="#074AAD"/>
<path d="M732.969 156.32C730.923 156.528 729.447 158.341 729.628 160.388C730.017 164.299 730.224 168.289 730.276 172.201C730.302 174.247 731.985 175.905 734.031 175.88C734.393 175.88 734.73 175.828 735.066 175.724C736.62 175.258 737.734 173.807 737.708 172.123C737.656 167.978 737.423 163.807 737.035 159.688C736.802 157.616 734.989 156.113 732.969 156.32Z" fill="#074AAD"/>
<path d="M733.334 188.185C731.314 187.926 729.45 189.377 729.191 191.397C728.699 195.283 728.026 199.221 727.223 203.081C726.809 205.076 728.077 207.071 730.071 207.485C730.693 207.615 731.34 207.589 731.91 207.407C733.153 207.019 734.189 206.008 734.474 204.635C735.328 200.594 736.028 196.449 736.545 192.356C736.804 190.283 735.38 188.444 733.334 188.185Z" fill="#074AAD"/>
<path d="M708.266 249.427C706.169 252.743 703.89 256.007 701.508 259.142C700.265 260.774 700.575 263.106 702.207 264.349C703.191 265.1 704.434 265.282 705.521 264.945C706.247 264.738 706.92 264.297 707.412 263.624C709.924 260.334 712.306 256.888 714.533 253.391C715.621 251.655 715.129 249.375 713.394 248.261C711.659 247.173 709.38 247.691 708.266 249.427Z" fill="#074AAD"/>
<path d="M664.68 292.975C661.366 295.074 657.896 297.069 654.425 298.882C652.613 299.841 651.888 302.069 652.846 303.882C653.674 305.488 655.539 306.239 657.196 305.721C657.404 305.644 657.637 305.566 657.844 305.462C661.521 303.545 665.146 301.473 668.642 299.245C670.377 298.157 670.895 295.851 669.808 294.115C668.694 292.38 666.415 291.887 664.68 292.975Z" fill="#074AAD"/>
<path d="M688.869 273.624C686.098 276.396 683.146 279.09 680.168 281.629C678.588 282.95 678.407 285.307 679.728 286.862C680.712 288.027 682.265 288.442 683.638 288.027C684.104 287.898 684.57 287.639 684.959 287.302C688.118 284.634 691.2 281.81 694.126 278.883C695.576 277.432 695.576 275.074 694.126 273.624C692.676 272.173 690.319 272.173 688.869 273.624Z" fill="#074AAD"/>
<path d="M726.703 219.324C724.761 218.625 722.637 219.635 721.938 221.552C720.617 225.257 719.089 228.935 717.458 232.51C716.603 234.376 717.432 236.578 719.297 237.433C720.151 237.821 721.083 237.873 721.912 237.614C722.896 237.329 723.751 236.604 724.217 235.619C725.952 231.863 727.531 227.977 728.93 224.091C729.629 222.148 728.619 220.024 726.703 219.324Z" fill="#074AAD"/>
<path d="M606.623 313.7C602.713 314.193 598.751 314.503 594.815 314.659C592.769 314.737 591.163 316.472 591.241 318.519C591.319 320.566 593.054 322.172 595.099 322.094C599.217 321.939 603.412 321.576 607.53 321.084C607.737 321.058 607.944 321.006 608.151 320.954C609.86 320.436 610.974 318.752 610.767 316.939C610.508 314.892 608.643 313.441 606.623 313.7Z" fill="#074AAD"/>
<path d="M636.794 306.524C633.117 307.846 629.336 309.011 625.477 310.022C623.509 310.54 622.318 312.586 622.836 314.555C623.354 316.55 625.4 317.716 627.368 317.198C629.025 316.757 630.683 316.291 632.314 315.799C634.645 315.099 636.975 314.322 639.254 313.519C641.196 312.82 642.206 310.695 641.507 308.778C640.86 306.861 638.736 305.851 636.794 306.524Z" fill="#074AAD"/>
<path d="M730.329 127.694C729.682 125.751 727.61 124.637 725.642 125.311C723.7 125.932 722.638 128.031 723.26 130C723.57 130.984 723.907 131.994 724.192 132.979C725.02 135.751 725.797 138.575 726.445 141.398C726.911 143.393 728.905 144.637 730.899 144.17C730.977 144.144 731.054 144.144 731.132 144.118C732.996 143.549 734.136 141.631 733.67 139.714C732.971 136.761 732.168 133.782 731.287 130.855C731.002 129.792 730.666 128.756 730.329 127.694Z" fill="#074AAD"/>
<path d="M532.482 301.136C530.67 300.54 528.831 299.892 527.044 299.193C525.128 298.468 522.979 299.426 522.253 301.369C521.528 303.286 522.487 305.436 524.429 306.162C526.319 306.887 528.261 307.561 530.178 308.208C530.929 308.467 531.706 308.441 532.405 308.234C533.518 307.897 534.476 307.042 534.865 305.851C535.486 303.882 534.425 301.784 532.482 301.136Z" fill="url(#paint2_linear_90_7578)"/>
<path d="M698.321 136.476L677.423 133.523C673.435 124.611 668.074 116.554 661.73 109.508L634.746 114.689L614.133 137.046L632.338 176.475L586.269 174.947L559.337 194.998L562.988 230.386L534.684 224.894L525.051 234.453L519.613 254.79C519.431 255.515 519.716 256.266 520.312 256.681L541.314 270.852C541.935 271.266 542.738 271.24 543.333 270.8L560.218 258.08C569.437 261.577 579.277 263.65 589.428 264.038L599.994 282.328C600.356 282.976 601.107 283.312 601.832 283.157L626.693 278.312C627.418 278.183 627.987 277.587 628.091 276.862L631.043 255.955C640.314 251.785 648.652 246.189 655.903 239.479L676.309 244.945C677.034 245.127 677.785 244.842 678.2 244.246L692.365 223.236C692.779 222.614 692.753 221.811 692.313 221.215L679.598 204.324C683.094 195.102 685.166 185.257 685.554 175.102L703.837 164.533C704.484 164.17 704.821 163.419 704.665 162.693L699.823 137.823C699.642 137.15 699.046 136.58 698.321 136.476Z" fill="#0963E7"/>
<path d="M601.315 189.221C592.381 193.418 581.867 190.231 576.636 182.149L571.871 185.698C578.06 194.972 589.688 199.169 600.357 195.931C601.522 195.568 602.713 195.128 603.853 194.584C611.596 190.957 616.619 183.91 618.07 176.061L612.036 175.854C610.715 181.527 606.96 186.553 601.315 189.221Z" fill="#053274"/>
<path d="M653.186 152.849C649.198 139.637 641.041 128.238 629.725 120.155L627.705 122.357C638.633 130.077 646.531 141.036 650.364 153.73C650.959 155.673 651.451 157.667 651.84 159.688C654.093 171.242 652.824 182.667 648.81 192.874C641.585 211.216 625.426 225.619 604.683 229.661C600.514 230.464 596.241 230.852 592.02 230.749C591.191 230.723 590.518 231.371 590.492 232.2C590.492 232.355 590.518 232.51 590.544 232.666C590.725 233.262 591.269 233.702 591.942 233.728C592.201 233.728 592.434 233.598 592.693 233.598C592.823 233.598 592.952 233.469 593.082 233.469C593.134 233.469 593.159 233.469 593.211 233.469C596.552 233.469 599.892 233.339 603.207 232.795C603.88 232.692 604.554 232.64 605.227 232.51C607.35 232.096 609.422 231.604 611.468 231.008C625.219 226.863 637.027 218.184 645.185 206.112C654.533 192.252 657.925 175.569 654.74 159.144C654.326 156.994 653.808 154.895 653.186 152.849Z" fill="#053274"/>
<path d="M541.416 214.324L537.945 180.594L564.877 160.543L609.755 162.046C610.299 162.071 610.661 161.502 610.454 161.009L592.741 122.668L613.355 100.311L640.338 95.1299C640.079 94.8449 639.846 94.5599 639.587 94.275L645.051 73.8609C645.233 73.1355 644.948 72.3842 644.352 71.9697L623.35 57.7991C622.729 57.3846 621.926 57.4104 621.331 57.8509L604.446 70.5708C595.227 67.0735 585.387 65.001 575.236 64.6124L564.67 46.3226C564.308 45.6749 563.557 45.3382 562.832 45.4936L537.971 50.3381C537.246 50.4676 536.677 51.0634 536.573 51.7888L533.621 72.6951C524.35 76.866 516.012 82.4617 508.761 89.1714L488.355 83.7052C487.63 83.5239 486.879 83.8088 486.464 84.4047L472.299 105.415C471.885 106.036 471.911 106.839 472.351 107.435L485.066 124.326C481.57 133.549 479.498 143.393 479.11 153.548L460.827 164.118C460.18 164.481 459.843 165.232 459.998 165.957L464.841 190.827C464.971 191.553 465.566 192.123 466.291 192.226L487.189 195.18C491.359 204.454 496.952 212.796 503.659 220.049L503.633 220.127L513.267 210.568L539.939 215.749C540.768 215.827 541.493 215.153 541.416 214.324Z" fill="#0963E7"/>
<path d="M555.221 167.719C554.755 166.994 554.315 166.242 553.926 165.413C549.343 155.673 553.538 144.015 563.301 139.429C564.181 139.015 565.087 138.678 565.994 138.393C569.982 137.202 574.229 137.305 578.217 138.73C583.111 140.492 587.047 144.067 589.274 148.808C591.191 152.901 591.553 157.331 590.621 161.45L596.655 161.657C597.587 156.605 596.991 151.269 594.661 146.269C591.76 140.103 586.659 135.44 580.263 133.134C573.866 130.829 566.952 131.14 560.789 134.041C548.074 140.025 542.61 155.206 548.566 167.926C549.11 169.092 549.757 170.206 550.482 171.242L555.221 167.719Z" fill="#053274"/>
<path d="M606.881 104.741C593.027 95.3889 576.35 91.9952 559.932 95.1817C526.06 101.762 503.815 134.714 510.419 168.626C510.833 170.724 511.325 172.771 511.947 174.791C514.588 183.574 519.146 191.656 525.257 198.496C525.801 199.117 526.733 199.143 527.355 198.599C527.795 198.211 527.95 197.589 527.795 197.071C527.743 196.863 527.64 196.682 527.484 196.501C521.632 189.998 517.333 182.278 514.795 173.936C514.225 172.019 513.733 170.051 513.345 168.056C507.078 135.751 528.209 104.378 560.502 98.109C576.143 95.078 592.017 98.2904 605.224 107.202C605.587 107.435 605.949 107.694 606.286 107.953L608.306 105.751C607.839 105.415 607.373 105.052 606.881 104.741Z" fill="#053274"/>
<path d="M167.923 154.972C196.442 126.443 196.442 80.1871 167.923 51.6574C139.405 23.1278 93.1673 23.1278 64.6489 51.6574C36.1305 80.1871 36.1305 126.443 64.6489 154.972C93.1673 183.502 139.405 183.502 167.923 154.972Z" fill="white"/>
<path d="M166.201 153.251C193.769 125.672 193.769 80.958 166.201 53.3794C138.633 25.8007 93.9369 25.8007 66.3691 53.3794C38.8013 80.958 38.8012 125.672 66.3691 153.251C93.9369 180.829 138.633 180.829 166.201 153.251Z" fill="#A39DE6"/>
<path opacity="0.7" d="M174.499 74.7159C174.602 74.7159 174.732 74.6899 174.836 74.6381C175.198 74.4568 175.353 73.9905 175.172 73.6278C163.882 51.2448 141.326 37.3591 116.285 37.3591C112.297 37.3591 108.283 37.7218 104.398 38.4213C103.984 38.499 103.725 38.8876 103.803 39.2762C103.88 39.6907 104.269 39.9498 104.683 39.872C108.49 39.1726 112.4 38.8358 116.311 38.8358C140.782 38.8358 162.82 52.4106 173.851 74.2754C173.955 74.5604 174.24 74.7159 174.499 74.7159Z" fill="white"/>
<path d="M156.993 147.099C180.323 123.76 180.323 85.9186 156.993 62.5789C133.662 39.2392 95.8358 39.2392 72.5053 62.5789C49.1748 85.9186 49.1748 123.76 72.5053 147.099C95.8358 170.439 133.662 170.439 156.993 147.099Z" fill="white"/>
<path d="M118.458 116.477L111.699 116.321C109.808 116.269 108.255 114.663 108.151 112.772L105.665 65.1046C105.613 64.1202 105.976 63.3171 106.649 62.6435C107.322 61.9699 108.255 61.7627 109.239 61.8404L120.892 62.6435C121.85 62.7212 122.756 63.0321 123.404 63.7834C124.051 64.5347 124.388 65.4155 124.362 66.374L121.954 113.161C121.824 115.026 120.296 116.502 118.458 116.477Z" fill="#A39DE6"/>
<path d="M107.995 128.108C109.678 126.502 112.061 125.725 115.116 125.751C118.276 125.803 120.658 126.632 122.289 128.238C123.921 129.844 124.724 132.176 124.724 135.259C124.724 138.238 123.895 140.543 122.238 142.176C120.554 143.808 118.198 144.637 115.116 144.637C112.086 144.637 109.73 143.782 108.021 142.098C106.312 140.388 105.457 138.082 105.457 135.129C105.457 132.072 106.312 129.741 107.995 128.108Z" fill="#A39DE6"/>
<path d="M382.881 71.4776L194.358 388.362C190.215 395.331 195.627 403.828 204.224 403.906L577.93 406.989C586.579 407.066 592.146 398.569 588.081 391.548L402.899 71.5812C398.626 64.2238 387.206 64.172 382.881 71.4776Z" fill="#0963E7"/>
<path d="M383.814 90.4149L212.59 378.207C208.835 384.528 213.755 392.248 221.55 392.326L560.943 395.123C568.789 395.175 573.839 387.481 570.162 381.108L401.993 90.5185C398.135 83.8348 387.776 83.7829 383.814 90.4149Z" fill="white"/>
<path d="M354.396 287.613L346.032 287.716V302.664L331.608 302.897V287.898L301.465 288.286V277.561L332.436 230.542L346.058 230.567V275.877L354.422 275.8V287.613H354.396ZM331.582 276.033V263.753C331.582 261.707 331.66 258.727 331.815 254.842C331.97 250.956 332.1 248.676 332.203 248.054H331.815C330.624 250.774 329.199 253.417 327.542 255.981L314.62 276.162L331.582 276.033Z" fill="#666666"/>
<path d="M409.554 266.111C409.554 278.494 407.612 287.716 403.754 293.727C399.869 299.763 393.887 302.846 385.782 302.975C377.884 303.105 371.928 300.1 367.888 293.96C363.848 287.794 361.828 278.649 361.828 266.499C361.828 253.831 363.796 244.479 367.732 238.469C371.643 232.459 377.676 229.479 385.782 229.505C393.654 229.505 399.559 232.64 403.572 238.857C407.56 245.049 409.554 254.142 409.554 266.111ZM376.278 266.37C376.278 275.152 377.003 281.421 378.453 285.204C379.904 288.986 382.338 290.851 385.782 290.799C389.148 290.748 391.557 288.805 393.059 284.945C394.535 281.085 395.286 274.841 395.286 266.214C395.286 257.484 394.535 251.215 393.033 247.381C391.531 243.572 389.123 241.655 385.782 241.655C382.39 241.655 379.955 243.572 378.479 247.406C377.029 251.292 376.278 257.614 376.278 266.37Z" fill="#666666"/>
<path d="M466.914 286.162L459.016 286.266V300.799L445.368 301.032V286.447L416.883 286.81V276.396L446.145 230.697L459.016 230.723V274.789L466.914 274.712V286.162ZM445.368 274.893V262.95C445.368 260.955 445.446 258.08 445.602 254.298C445.757 250.515 445.886 248.313 445.964 247.717H445.602C444.488 250.36 443.141 252.925 441.562 255.437L429.365 275.074L445.368 274.893Z" fill="#666666"/>
<path d="M321.821 365.875L299.551 366.601V326.809L321.821 326.317V333.182L307.786 333.519V342.249L320.863 341.912V348.803L307.786 349.166V359.399L321.821 358.984V365.875Z" fill="#666666"/>
<path d="M339.277 350.202V365.331L331.172 365.59V326.084L342.307 325.824C347.486 325.721 351.293 326.602 353.753 328.493C356.213 330.384 357.456 333.285 357.456 337.249C357.456 339.555 356.835 341.627 355.618 343.467C354.401 345.306 352.666 346.757 350.413 347.845C356.11 356.497 359.813 362.093 361.522 364.606L352.64 364.891L343.576 350.073L339.277 350.202ZM339.277 343.389L341.893 343.311C344.431 343.233 346.321 342.741 347.538 341.834C348.755 340.928 349.351 339.529 349.351 337.638C349.351 335.772 348.729 334.451 347.486 333.7C346.243 332.949 344.327 332.586 341.737 332.664L339.277 332.715V343.389Z" fill="#666666"/>
<path d="M375.528 349.166V364.166L367.578 364.425V325.28L378.506 325.047C383.582 324.944 387.337 325.824 389.745 327.69C392.179 329.555 393.371 332.456 393.371 336.368C393.371 338.648 392.775 340.695 391.558 342.508C390.367 344.321 388.657 345.772 386.456 346.834C392.05 355.435 395.701 360.953 397.384 363.466L388.657 363.751L379.749 349.062L375.528 349.166ZM375.528 342.43L378.092 342.353C380.604 342.275 382.442 341.809 383.634 340.902C384.825 339.995 385.42 338.622 385.42 336.757C385.42 334.917 384.825 333.596 383.608 332.845C382.391 332.094 380.5 331.757 377.937 331.809L375.528 331.861V342.43Z" fill="#666666"/>
<path d="M436.591 342.897C436.591 349.27 435.089 354.192 432.111 357.715C429.133 361.238 424.835 363.078 419.215 363.259C413.596 363.44 409.271 361.86 406.241 358.518C403.211 355.15 401.684 350.254 401.684 343.803C401.684 337.353 403.211 332.379 406.241 328.907C409.271 325.436 413.622 323.648 419.241 323.519C424.861 323.389 429.159 324.995 432.111 328.337C435.115 331.653 436.591 336.524 436.591 342.897ZM409.893 343.622C409.893 347.948 410.669 351.187 412.223 353.337C413.777 355.487 416.108 356.497 419.215 356.394C425.404 356.212 428.486 351.782 428.486 343.104C428.486 334.425 425.404 330.151 419.267 330.306C416.185 330.384 413.829 331.524 412.275 333.778C410.695 336.032 409.893 339.296 409.893 343.622Z" fill="#666666"/>
<path d="M453.036 346.964V361.653L445.371 361.886V323.493L455.885 323.26C460.779 323.156 464.379 324.011 466.709 325.85C469.04 327.69 470.205 330.513 470.205 334.373C470.205 336.627 469.636 338.622 468.47 340.41C467.305 342.197 465.674 343.596 463.55 344.658C468.936 353.078 472.432 358.518 474.064 360.979L465.674 361.238L457.102 346.834L453.036 346.964ZM453.036 340.358L455.496 340.28C457.905 340.228 459.692 339.736 460.831 338.855C461.97 337.974 462.54 336.601 462.54 334.788C462.54 332.975 461.945 331.705 460.779 330.954C459.614 330.203 457.801 329.866 455.341 329.944L453.036 329.995V340.358Z" fill="#666666"/>
<path d="M159.763 697.552C159.763 697.552 157.898 708.174 156.966 718.692C156.603 722.811 159.763 726.36 163.906 726.541C177.916 727.137 207.851 728.251 218.598 727.785C220.204 727.707 221.266 726.049 220.67 724.547C220.178 723.277 219.194 722.267 217.977 721.697L168.515 698.951L159.763 697.552Z" fill="#0963E7"/>
<path d="M158.234 691.309L159.736 704.029C159.736 704.029 168.411 708.07 174.316 703.511L170.716 689.34L158.234 691.309Z" fill="url(#paint3_linear_90_7578)"/>
<path d="M159.347 452.376C158.7 455.692 155.851 617.994 173.201 690.739C173.486 691.931 172.891 693.148 171.751 693.615C169.084 694.703 163.879 696.283 157.638 696.49C155.696 696.568 153.961 695.298 153.417 693.433C148.471 676.568 124.698 592.01 121.616 511.235C118.146 420.978 121.616 508.152 121.616 508.152L123.636 452.35L159.347 452.376Z" fill="white"/>
<path d="M102.843 703.096C102.843 703.096 99.8649 708.459 96.9645 722.707C96.4466 725.272 98.2334 727.733 100.849 727.992C105.484 728.458 112.58 729.028 118.303 729.002C120.918 728.976 122.99 726.697 122.653 724.08C122.032 718.873 120.064 710.35 113.978 703.692L102.843 703.096Z" fill="#0963E7"/>
<path d="M100.227 686.749L103.748 705.972C103.748 705.972 107.218 708.562 114.133 706.697L112.449 686.024L100.227 686.749Z" fill="url(#paint4_linear_90_7578)"/>
<path d="M90.724 457.35C76.533 542.996 93.8056 669.004 99.6322 693.666C99.9948 695.169 101.212 696.335 102.74 696.594C105.329 697.034 109.628 697.371 113.823 696.153C115.273 695.739 116.309 694.418 116.361 692.915C117.138 672.967 115.74 550.561 128.947 502.168C129.62 499.707 131.122 497.582 133.193 496.106L158.856 477.868L160.824 448.387L90.724 457.35Z" fill="white"/>
<path d="M216.994 335.28C214.845 350.617 212.566 354.14 210.805 354.244C205.186 354.529 206.299 319.944 185.712 302.457C172.712 291.395 154.948 290.488 141.016 291.784C147.516 315.099 154.015 338.441 160.515 361.756C163.364 368.725 175.742 396.911 203.736 405.46C209.433 407.196 217.927 409.786 225.825 406.393C241.414 399.683 248.717 372.248 241.751 337.871C238.488 336.653 233.956 335.358 216.994 335.28Z" fill="#0963E7"/>
<path d="M212.047 275.463L214.636 290.048C218.78 307.872 219.168 322.742 217.019 335.28C220.567 335.436 224.322 335.669 228.206 336.057C232.997 336.524 237.529 337.146 241.775 337.871C239.548 319.737 227.481 289.634 227.481 289.634C220.178 279.116 219.298 285.955 212.047 275.463Z" fill="url(#paint5_linear_90_7578)"/>
<path d="M241.489 244.738C238.562 244.66 235.766 245.904 233.901 248.158L215.515 269.945C215.515 269.945 212.174 269.271 211.864 262.846C211.553 256.448 204.742 255.67 204.742 255.67C204.742 255.67 205.726 264.608 207.591 277.846C208.652 285.411 213.132 290.929 216.758 294.271L227.401 290.618C237.164 276.654 243.224 261.292 246.59 244.868L241.489 244.738Z" fill="url(#paint6_linear_90_7578)"/>
<path d="M68.2188 304.037C69.4359 303.727 77.8262 295.048 79.0692 294.815C99.7083 290.877 151.241 276.991 185.709 302.457C185.787 303.183 185.838 303.778 185.89 304.271C186.227 304.737 186.693 305.488 187.314 306.706C190.577 313.027 194.488 319.167 198.942 324.892C197.958 325.876 197.129 327.016 196.533 328.286C188.247 346.031 156.835 416.963 162.351 460.304C162.636 462.532 161.108 464.604 158.881 464.915C146.684 466.599 110.377 470.718 91.6287 462.972C90.5411 462.531 89.8419 461.443 89.8678 460.278C89.9973 451.573 89.6347 413.828 75.7804 368.311C75.2625 366.627 74.8481 364.891 74.5115 363.155C74.3302 363.518 74.1748 363.855 74.0195 364.192L68.2188 304.037Z" fill="#0963E7"/>
<path d="M99.7084 290.877C61.227 293.701 53.1733 315.695 26.5781 302.25L31.2912 343.467C41.1576 354.373 56.0478 361.782 74.8224 364.58L99.7084 290.877Z" fill="#0963E7"/>
<path d="M126.021 253.598C119.417 266.758 116.672 280.152 115.844 292.613C117.268 293.131 136.198 306.291 148.861 293.571C146.142 284.841 146.608 271.706 147.281 258.235L126.021 253.598Z" fill="url(#paint7_linear_90_7578)"/>
<path d="M160.359 219.039C160.722 219.635 170.174 264.271 170.174 264.271L144.589 269.142L129.336 228.184C129.336 228.132 154.274 209.195 160.359 219.039Z" fill="url(#paint8_linear_90_7578)"/>
<path d="M139.099 231.785C138.426 232.718 138.193 233.909 138.529 235.023L144.77 256.888C144.874 257.225 145.003 257.536 145.185 257.821C146.195 259.427 149.82 264.323 154.714 260.308C158.884 256.888 162.768 253.805 166.238 253.054C168.258 252.614 170.252 253.935 170.692 255.955C171.573 260.152 173.152 268.649 173.515 276.37C173.593 278.312 172.168 279.97 170.226 280.23C165.151 280.851 155.181 281.784 146.816 280.748C145.444 280.566 144.278 279.66 143.786 278.39C141.585 272.717 135.396 256.836 132.962 252.639C130.683 248.728 124.675 248.365 121.904 248.417C120.842 248.443 119.858 248.028 119.107 247.251C116.906 244.971 113.41 239.842 119.366 234.324C120.842 232.951 120.894 230.619 119.574 229.117C117.165 226.422 114.964 221.967 119.548 216.941C124.183 211.863 129.777 212.796 133.35 214.247C134.93 214.894 136.846 214.48 137.882 213.107C138.348 212.511 139.047 212.07 140.135 212.148C142.181 212.278 143.942 210.827 144.071 208.78C144.304 205.257 145.962 201.06 152.073 199.558C163.286 196.812 169.501 207.874 169.708 215.853C169.915 223.832 157.563 226.137 150.468 225.153C145.237 224.428 140.99 229.194 139.099 231.785Z" fill="url(#paint9_linear_90_7578)"/>
<path d="M136.796 260.955C136.796 260.955 134.414 246.836 128.717 245.8C123.02 244.764 117.167 249.142 122.398 257.225C128.898 267.276 136.796 260.955 136.796 260.955Z" fill="url(#paint10_linear_90_7578)"/>
<path d="M127.391 210.102C128.375 210.05 129.463 210.153 130.654 210.412C133.347 210.982 136.973 212.381 136.015 214.972C134.616 218.884 127.288 215.231 123.403 221.526C119.985 227.07 122.782 233.106 121.72 239.091C121.202 241.992 119.338 246.318 116.748 248.028C115.583 248.779 106.416 250.256 105.898 248.624L103.334 240.334C101.029 232.873 109.86 220.464 114.418 215.438C117.939 211.578 122.704 210.309 127.391 210.102Z" fill="url(#paint11_linear_90_7578)"/>
<path d="M118.693 240.023L109.914 247.329C93.0816 254.505 80.8328 262.924 71.9764 272.069C68.7653 266.033 63.5602 259.038 55.2734 253.598C72.2353 245.23 84.8726 241.759 84.8726 241.759C119.159 227.977 118.693 240.023 118.693 240.023Z" fill="url(#paint12_linear_90_7578)"/>
<path d="M71.9752 272.069C44.2924 300.592 52.372 286.084 52.1648 310.41C52.0871 319.477 44.2147 354.088 44.2147 354.088C-40.4652 317.509 30.205 267.561 55.2723 253.598C63.559 259.038 68.7641 266.033 71.9752 272.069Z" fill="#0963E7"/>
<path d="M1013.94 297.561C1042.73 297.561 1066.07 274.213 1066.07 245.412C1066.07 216.61 1042.73 193.262 1013.94 193.262C985.151 193.262 961.812 216.61 961.812 245.412C961.812 274.213 985.151 297.561 1013.94 297.561Z" fill="white"/>
<path d="M992.033 365.85C1008.72 365.85 1022.25 352.314 1022.25 335.617C1022.25 318.92 1008.72 305.385 992.033 305.385C975.343 305.385 961.812 318.92 961.812 335.617C961.812 352.314 975.343 365.85 992.033 365.85Z" fill="white"/>
<defs>
<linearGradient id="paint0_linear_90_7578" x1="423.835" y1="514.466" x2="550.833" y2="242.938" gradientUnits="userSpaceOnUse">
<stop stop-color="#09005D"/>
<stop offset="1" stop-color="#1A0F91"/>
</linearGradient>
<linearGradient id="paint1_linear_90_7578" x1="448.841" y1="985.935" x2="404.739" y2="770.804" gradientUnits="userSpaceOnUse">
<stop stop-color="#09005D"/>
<stop offset="1" stop-color="#1A0F91"/>
</linearGradient>
<linearGradient id="paint2_linear_90_7578" x1="562.391" y1="-77.69" x2="518.301" y2="418.255" gradientUnits="userSpaceOnUse">
<stop stop-color="#4042E2"/>
<stop offset="1" stop-color="#4F52FF"/>
</linearGradient>
<linearGradient id="paint3_linear_90_7578" x1="158.225" y1="697.514" x2="174.317" y2="697.514" gradientUnits="userSpaceOnUse">
<stop stop-color="#FEBBBA"/>
<stop offset="1" stop-color="#FF928E"/>
</linearGradient>
<linearGradient id="paint4_linear_90_7578" x1="100.229" y1="696.689" x2="114.123" y2="696.689" gradientUnits="userSpaceOnUse">
<stop stop-color="#FEBBBA"/>
<stop offset="1" stop-color="#FF928E"/>
</linearGradient>
<linearGradient id="paint5_linear_90_7578" x1="157.802" y1="215.936" x2="320.633" y2="459.708" gradientUnits="userSpaceOnUse">
<stop stop-color="#FEBBBA"/>
<stop offset="1" stop-color="#FF928E"/>
</linearGradient>
<linearGradient id="paint6_linear_90_7578" x1="183.734" y1="198.612" x2="346.564" y2="442.383" gradientUnits="userSpaceOnUse">
<stop stop-color="#FEBBBA"/>
<stop offset="1" stop-color="#FF928E"/>
</linearGradient>
<linearGradient id="paint7_linear_90_7578" x1="150.327" y1="249.39" x2="85.5504" y2="370.938" gradientUnits="userSpaceOnUse">
<stop stop-color="#FEBBBA"/>
<stop offset="1" stop-color="#FF928E"/>
</linearGradient>
<linearGradient id="paint8_linear_90_7578" x1="62.516" y1="232.175" x2="187.733" y2="247.186" gradientUnits="userSpaceOnUse">
<stop stop-color="#FEBBBA"/>
<stop offset="1" stop-color="#FF928E"/>
</linearGradient>
<linearGradient id="paint9_linear_90_7578" x1="126.53" y1="259.85" x2="179.706" y2="226.999" gradientUnits="userSpaceOnUse">
<stop stop-color="#09005D"/>
<stop offset="1" stop-color="#1A0F91"/>
</linearGradient>
<linearGradient id="paint10_linear_90_7578" x1="60.8494" y1="246.087" x2="186.067" y2="261.099" gradientUnits="userSpaceOnUse">
<stop stop-color="#FEBBBA"/>
<stop offset="1" stop-color="#FF928E"/>
</linearGradient>
<linearGradient id="paint11_linear_90_7578" x1="134.415" y1="218.728" x2="33.3634" y2="287.209" gradientUnits="userSpaceOnUse">
<stop stop-color="#FEBBBA"/>
<stop offset="1" stop-color="#FF928E"/>
</linearGradient>
<linearGradient id="paint12_linear_90_7578" x1="132.397" y1="216.692" x2="27.2753" y2="287.932" gradientUnits="userSpaceOnUse">
<stop stop-color="#FEBBBA"/>
<stop offset="1" stop-color="#FF928E"/>
</linearGradient>
</defs>
</svg>
