<svg width="64" height="65" viewBox="0 0 64 65" fill="none" xmlns="http://www.w3.org/2000/svg">
<path d="M20.1249 14.5V12.1C20.1249 6.79 20.1249 2.5 29.7249 2.5H34.5249C44.1249 2.5 44.1249 6.79 44.1249 12.1V14.5M38.1249 38.56C38.1249 38.53 38.1249 38.53 38.1249 38.5V35.5C38.1249 32.5 38.1249 32.5 35.1249 32.5H29.1249C26.1249 32.5 26.1249 32.5 26.1249 35.5V38.59M38.1249 38.56C38.1249 41.83 38.0949 44.5 32.1249 44.5C26.1849 44.5 26.1249 41.86 26.1249 38.59M38.1249 38.56C46.2249 37.54 54.1449 34.54 61.0749 29.5M26.1249 38.59C18.3549 37.72 10.7349 34.9301 3.98492 30.3101M20.125 62.5H44.125C56.185 62.5 58.345 57.67 58.975 51.79L61.225 27.79C62.035 20.47 59.935 14.5 47.125 14.5H17.125C4.31497 14.5 2.21497 20.47 3.02497 27.79L5.27497 51.79C5.90497 57.67 8.06497 62.5 20.125 62.5Z" stroke="#0963E7" stroke-width="5" stroke-miterlimit="10" stroke-linecap="round" stroke-linejoin="round"/>
</svg>
