<svg width="73" height="65" viewBox="0 0 73 65" fill="none" xmlns="http://www.w3.org/2000/svg">
<path d="M12.5163 50.4457V29.3508M24.5706 50.4457V29.3508M36.6248 50.4457V29.3508M48.6791 50.4457V29.3508M60.7334 50.4457V29.3508M3.47559 62.5H69.7741M37.7398 2.68081L64.8619 13.5296C65.9167 13.9515 66.7605 15.2171 66.7605 16.3322V26.3372C66.7605 27.9947 65.4044 29.3508 63.7469 29.3508H9.50272C7.84526 29.3508 6.48915 27.9947 6.48915 26.3372V16.3322C6.48915 15.2171 7.33297 13.9515 8.38772 13.5296L35.5098 2.68081C36.1125 2.43973 37.1371 2.43973 37.7398 2.68081ZM66.7605 62.5H6.48915V53.4593C6.48915 51.8018 7.84526 50.4457 9.50272 50.4457H63.7469C65.4044 50.4457 66.7605 51.8018 66.7605 53.4593V62.5ZM41.1452 17.2965C41.1452 19.793 39.1213 21.8169 36.6248 21.8169C34.1283 21.8169 32.1045 19.793 32.1045 17.2965C32.1045 14.8 34.1283 12.7762 36.6248 12.7762C39.1213 12.7762 41.1452 14.8 41.1452 17.2965Z" stroke="#0963E7" stroke-width="5" stroke-miterlimit="10" stroke-linecap="round" stroke-linejoin="round"/>
</svg>
