<svg width="75" height="65" viewBox="0 0 75 65" fill="none" xmlns="http://www.w3.org/2000/svg">
<path d="M72.1116 62.469H2.63818M12.8088 62.5V48.4158M68.6392 62.4682V12.0369C68.6392 5.68953 65.4811 2.5 59.197 2.5H39.5234C33.2392 2.5 30.113 5.68953 30.113 12.0369V62.4682M56.9513 19.0481H41.3198M56.9513 30.8901H41.3198M49.217 62.469V50.6269M12.7446 27.3853C16.5972 27.3853 19.692 30.4801 19.692 34.3327V41.501C19.692 45.3536 16.5972 48.4483 12.7446 48.4483C8.89199 48.4483 5.79723 45.3536 5.79723 41.501V34.3327C5.79723 30.4801 8.89199 27.3853 12.7446 27.3853Z" stroke="#0963E7" stroke-width="5" stroke-miterlimit="10" stroke-linecap="round" stroke-linejoin="round"/>
</svg>
