<svg width="66" height="65" viewBox="0 0 66 65" fill="none" xmlns="http://www.w3.org/2000/svg">
<path d="M42.3814 7.66455H23.3689C16.6252 7.66455 15.1356 11.0229 14.2689 15.1396L11.2085 29.7916H54.5418L51.4814 15.1396C50.6147 11.0229 49.1252 7.66455 42.3814 7.66455Z" stroke="#0963E7" stroke-width="5" stroke-linecap="round" stroke-linejoin="round"/>
<path d="M59.9331 53.679C60.231 56.8478 57.6852 59.5832 54.4352 59.5832H49.3435C46.4185 59.5832 46.0123 58.3373 45.4977 56.7936L44.956 55.1686C44.1977 52.9478 43.7102 51.4582 39.8102 51.4582H25.9435C22.0435 51.4582 21.4748 53.1373 20.7977 55.1686L20.256 56.7936C19.7414 58.3373 19.3352 59.5832 16.4102 59.5832H11.3185C8.06852 59.5832 5.52268 56.8478 5.8206 53.679L7.33727 37.1853C7.71643 33.1228 8.50185 29.7915 15.5977 29.7915H50.156C57.2518 29.7915 58.0373 33.1228 58.4164 37.1853L59.9331 53.679Z" stroke="#0963E7" stroke-width="5" stroke-linecap="round" stroke-linejoin="round"/>
<path d="M11.2083 21.6665H8.5" stroke="#0963E7" stroke-width="5" stroke-linecap="round" stroke-linejoin="round"/>
<path d="M57.2498 21.6665H54.5415" stroke="#0963E7" stroke-width="5" stroke-linecap="round" stroke-linejoin="round"/>
<path d="M32.875 8.125V13.5417" stroke="#0963E7" stroke-width="5" stroke-linecap="round" stroke-linejoin="round"/>
<path d="M28.8125 13.5415H36.9375" stroke="#0963E7" stroke-width="5" stroke-linecap="round" stroke-linejoin="round"/>
<path d="M16.625 40.625H24.75" stroke="#0963E7" stroke-width="5" stroke-linecap="round" stroke-linejoin="round"/>
<path d="M41 40.625H49.125" stroke="#0963E7" stroke-width="5" stroke-linecap="round" stroke-linejoin="round"/>
</svg>
