<svg width="61" height="60" viewBox="0 0 61 60" fill="none" xmlns="http://www.w3.org/2000/svg">
<path d="M23.5239 36.7505L27.2739 40.5005L37.2739 30.5005" stroke="#0863E7" stroke-width="5" stroke-linecap="round" stroke-linejoin="round"/>
<path d="M25.25 15H35.25C40.25 15 40.25 12.5 40.25 10C40.25 5 37.75 5 35.25 5H25.25C22.75 5 20.25 5 20.25 10C20.25 15 22.75 15 25.25 15Z" stroke="#0863E7" stroke-width="5" stroke-miterlimit="10" stroke-linecap="round" stroke-linejoin="round"/>
<path d="M40.25 10.0498C48.575 10.4998 52.75 13.5748 52.75 24.9998V39.9998C52.75 49.9998 50.25 54.9998 37.75 54.9998H22.75C10.25 54.9998 7.75 49.9998 7.75 39.9998V24.9998C7.75 13.5998 11.925 10.4998 20.25 10.0498" stroke="#0863E7" stroke-width="5" stroke-miterlimit="10" stroke-linecap="round" stroke-linejoin="round"/>
</svg>
