<svg width="18" height="18" viewBox="0 0 18 18" fill="none" xmlns="http://www.w3.org/2000/svg">
<path d="M12.5244 14.235H5.47442C5.15942 14.235 4.80692 13.9875 4.70192 13.6875L1.59692 5.00252C1.15442 3.75752 1.67192 3.37502 2.73692 4.14002L5.66192 6.23252C6.14942 6.57002 6.70442 6.39752 6.91442 5.85002L8.23442 2.33252C8.65442 1.20752 9.35192 1.20752 9.77192 2.33252L11.0919 5.85002C11.3019 6.39752 11.8569 6.57002 12.3369 6.23252L15.0819 4.27502C16.2519 3.43502 16.8144 3.86252 16.3344 5.22002L13.3044 13.7025C13.1919 13.9875 12.8394 14.235 12.5244 14.235Z" stroke="white" stroke-width="1.5" stroke-linecap="round" stroke-linejoin="round"/>
<path d="M4.875 16.5H13.125" stroke="white" stroke-width="1.5" stroke-linecap="round" stroke-linejoin="round"/>
</svg>
