<svg width="112" height="112" viewBox="0 0 112 112" fill="none" xmlns="http://www.w3.org/2000/svg">
<path d="M41.9998 46.6667C47.1545 46.6667 51.3332 42.488 51.3332 37.3333C51.3332 32.1787 47.1545 28 41.9998 28C36.8452 28 32.6665 32.1787 32.6665 37.3333C32.6665 42.488 36.8452 46.6667 41.9998 46.6667Z" stroke="#0863E7" stroke-width="9" stroke-linecap="round" stroke-linejoin="round"/>
<path d="M60.6668 9.33337H42.0002C18.6668 9.33337 9.3335 18.6667 9.3335 42V70C9.3335 93.3334 18.6668 102.667 42.0002 102.667H70.0002C93.3335 102.667 102.667 93.3334 102.667 70V46.6667" stroke="#0863E7" stroke-width="9" stroke-linecap="round" stroke-linejoin="round"/>
<path d="M73.5 23.3334H99.1667" stroke="#0863E7" stroke-width="9" stroke-linecap="round"/>
<path d="M86.3335 36.1667V10.5" stroke="#0863E7" stroke-width="9" stroke-linecap="round"/>
<path d="M12.4595 88.4333L35.4661 72.9866C39.1528 70.5133 44.4728 70.7933 47.7861 73.6399L49.3261 74.9933C52.9661 78.1199 58.8461 78.1199 62.4861 74.9933L81.8995 58.3333C85.5395 55.2066 91.4195 55.2066 95.0595 58.3333L102.666 64.8666" stroke="#0863E7" stroke-width="9" stroke-linecap="round" stroke-linejoin="round"/>
</svg>
