<svg width="80" height="66" viewBox="0 0 80 66" fill="none" xmlns="http://www.w3.org/2000/svg">
<path d="M39.5217 29.8652C39.2188 29.8349 38.8554 29.8349 38.5222 29.8652C31.3137 29.6229 25.5894 23.7168 25.5894 16.4478C25.5894 9.02726 31.5863 3 39.0371 3C46.4576 3 52.4849 9.02726 52.4849 16.4478C52.4546 23.7168 46.7302 29.6229 39.5217 29.8652Z" stroke="#0863E7" stroke-width="5" stroke-linecap="round" stroke-linejoin="round"/>
<path d="M61.4826 9.05762C67.3584 9.05762 72.0833 13.8128 72.0833 19.6583C72.0833 25.3827 67.5402 30.047 61.8763 30.259C61.634 30.2287 61.3615 30.2287 61.0889 30.259" stroke="#0863E7" stroke-width="5" stroke-linecap="round" stroke-linejoin="round"/>
<path d="M18.0174 9.05762C12.1416 9.05762 7.41669 13.8128 7.41669 19.6583C7.41669 25.3827 11.9598 30.047 17.6237 30.259C17.866 30.2287 18.1385 30.2287 18.4111 30.259" stroke="#0863E7" stroke-width="5" stroke-linecap="round" stroke-linejoin="round"/>
<path d="M24.3786 41.0413C17.0489 45.9479 17.0489 53.9438 24.3786 58.8202C32.7077 64.3931 46.3675 64.3931 54.6966 58.8202C62.0262 53.9136 62.0262 45.9176 54.6966 41.0413C46.3978 35.4986 32.738 35.4986 24.3786 41.0413Z" stroke="#0863E7" stroke-width="5" stroke-linecap="round" stroke-linejoin="round"/>
<path d="M67.3267 57.5179C69.5074 57.0635 71.5669 56.1852 73.2631 54.8828C77.9879 51.3392 77.9879 45.4936 73.2631 41.95C71.5972 40.6779 69.568 39.8298 67.4175 39.3452" stroke="#0863E7" stroke-width="5" stroke-linecap="round" stroke-linejoin="round"/>
<path d="M12.1729 57.5179C9.99213 57.0635 7.93257 56.1852 6.23646 54.8828C1.51157 51.3392 1.51157 45.4936 6.23646 41.95C7.90228 40.6779 9.93156 39.8298 12.082 39.3452" stroke="#0863E7" stroke-width="5" stroke-linecap="round" stroke-linejoin="round"/>
</svg>
