<svg width="315" height="234" viewBox="0 0 315 234" fill="none" xmlns="http://www.w3.org/2000/svg">
<path d="M208.996 117L315 82.6176L249.482 172.637V61.3626L315 151.382L208.996 117ZM216.222 179.564C202.645 200.984 182.466 217.423 158.723 226.407C134.98 235.39 108.957 236.432 84.5696 229.375C60.1822 222.319 38.75 207.546 23.4982 187.279C8.24637 167.013 0 142.349 0 117C0 91.6507 8.24637 66.9871 23.4982 46.7206C38.75 26.4541 60.1822 11.681 84.5696 4.62455C108.957 -2.43192 134.98 -1.39009 158.723 7.59327C182.466 16.5766 202.645 33.0155 216.222 54.4362C203.543 40.3507 186.883 30.4361 168.442 26.002C150 21.5678 130.645 22.8227 112.933 29.6008C95.221 36.3789 79.9849 48.3615 69.2372 63.9659C58.4894 79.5703 52.7355 98.0624 52.7355 117C52.7355 135.938 58.4894 154.43 69.2372 170.034C79.9849 185.639 95.221 197.621 112.933 204.399C130.645 211.177 150 212.432 168.442 207.998C186.883 203.564 203.543 193.649 216.222 179.564Z" fill="black" fill-opacity="0.1"/>
</svg>
