<svg width="15" height="18" viewBox="0 0 15 18" fill="none" xmlns="http://www.w3.org/2000/svg">
<path fill-rule="evenodd" clip-rule="evenodd" d="M7.36364 1.63636C6.00803 1.63636 4.90909 2.7353 4.90909 4.09091V6.54545C4.90909 6.54608 4.90909 6.5467 4.90909 6.54732C5.15227 6.54545 5.41471 6.54545 5.69821 6.54545H9.02907C9.31257 6.54545 9.575 6.54545 9.81819 6.54732C9.81819 6.5467 9.81818 6.54608 9.81818 6.54545V4.09091C9.81818 2.7353 8.71924 1.63636 7.36364 1.63636ZM11.4484 6.64635C11.4524 6.61329 11.4545 6.57961 11.4545 6.54545V4.09091C11.4545 1.83156 9.62298 0 7.36364 0C5.10429 0 3.27273 1.83156 3.27273 4.09091V6.54545C3.27273 6.57961 3.27482 6.61329 3.27889 6.64635C3.01548 6.69089 2.76653 6.75697 2.52539 6.85686C1.523 7.27206 0.726605 8.06845 0.311402 9.07084C0.138664 9.48787 0.0670208 9.92828 0.0330383 10.4263C-9.99732e-06 10.9107 -5.5096e-06 11.5059 1.47419e-07 12.2437V12.3018C-5.5096e-06 13.0396 -9.99732e-06 13.6347 0.0330383 14.1191C0.0670208 14.6172 0.138664 15.0576 0.311402 15.4746C0.726605 16.477 1.523 17.2734 2.52539 17.6886C2.94241 17.8613 3.38283 17.933 3.88089 17.967C4.36526 18 4.96041 18 5.69821 18H9.02906C9.76686 18 10.362 18 10.8464 17.967C11.3444 17.933 11.7849 17.8613 12.2019 17.6886C13.2043 17.2734 14.0007 16.477 14.4159 15.4746C14.5886 15.0576 14.6603 14.6172 14.6942 14.1191C14.7273 13.6347 14.7273 13.0396 14.7273 12.3018V12.2437C14.7273 11.5059 14.7273 10.9107 14.6942 10.4263C14.6603 9.92828 14.5886 9.48787 14.4159 9.07084C14.0007 8.06845 13.2043 7.27206 12.2019 6.85686C11.9607 6.75697 11.7118 6.69089 11.4484 6.64635ZM3.99228 8.21106C3.57753 8.23936 3.336 8.29228 3.1516 8.36866C2.55016 8.61778 2.07233 9.09562 1.82321 9.69705C1.74682 9.88146 1.6939 10.123 1.66561 10.5377C1.63681 10.9598 1.63636 11.4991 1.63636 12.2727C1.63636 13.0464 1.63681 13.5856 1.66561 14.0077C1.6939 14.4225 1.74682 14.664 1.82321 14.8484C2.07233 15.4498 2.55016 15.9277 3.1516 16.1768C3.336 16.2532 3.57753 16.3061 3.99228 16.3344C4.41437 16.3632 4.95363 16.3636 5.72727 16.3636H9C9.77364 16.3636 10.3129 16.3632 10.735 16.3344C11.1497 16.3061 11.3913 16.2532 11.5757 16.1768C12.1771 15.9277 12.6549 15.4498 12.9041 14.8484C12.9805 14.664 13.0334 14.4225 13.0617 14.0077C13.0905 13.5856 13.0909 13.0464 13.0909 12.2727C13.0909 11.4991 13.0905 10.9598 13.0617 10.5377C13.0334 10.123 12.9805 9.88146 12.9041 9.69705C12.6549 9.09562 12.1771 8.61778 11.5757 8.36866C11.3913 8.29228 11.1497 8.23936 10.735 8.21106C10.3129 8.18226 9.77364 8.18182 9 8.18182H5.72727C4.95363 8.18182 4.41437 8.18226 3.99228 8.21106ZM7.36364 10.6364C7.81551 10.6364 8.18182 11.0027 8.18182 11.4545V13.0909C8.18182 13.5428 7.81551 13.9091 7.36364 13.9091C6.91177 13.9091 6.54545 13.5428 6.54545 13.0909V11.4545C6.54545 11.0027 6.91177 10.6364 7.36364 10.6364Z" fill="#0963E7"/>
</svg>
