<svg width="102" height="101" viewBox="0 0 102 101" fill="none" xmlns="http://www.w3.org/2000/svg">
<path d="M65.8132 24.5484C65.8132 25.68 64.9138 26.5802 63.7833 26.5802H52.8372C51.7066 26.5802 50.8073 27.4804 50.8073 28.6121C50.8073 28.7407 50.8587 29.0494 50.8587 29.0751C51.9379 33.6533 55.9206 37.0741 60.7513 37.3056C61.0339 37.3056 61.2651 37.537 61.2908 37.82V52.1461C61.2908 52.429 61.0596 52.6605 60.7769 52.6605H60.7256C47.4156 52.3776 36.598 42.0895 35.3646 29.0237C35.3389 28.8951 35.3389 28.7407 35.3389 28.6121C35.3389 27.4804 36.2383 26.5802 37.3688 26.5802H48.3149C49.4455 26.5802 50.3448 25.68 50.3448 24.5484C50.3448 24.4198 50.2934 24.1368 50.2934 24.1111C49.2142 19.5329 45.2315 16.0864 40.4008 15.8549H40.3494C40.0925 15.8292 39.9126 15.6235 39.8612 15.3663C39.8612 15.3663 39.8612 15.3663 39.8612 15.3405V1.04013C39.8612 0.757203 40.0925 0.5 40.3751 0.5H40.4522C47.4156 0.654321 53.7108 3.53497 58.2845 8.13888C62.4471 12.3056 65.2222 17.9125 65.8132 24.1368C65.7875 24.2654 65.8132 24.4198 65.8132 24.5484Z" fill="white"/>
<path d="M2.50074 98.4938C2.01254 98.4938 1.57572 98.3652 1.216 98.1337C0.856266 97.9023 0.573626 97.5679 0.393761 97.1564C0.188201 96.7449 0.111115 96.2562 0.111115 95.7418C0.111115 95.2017 0.213898 94.713 0.419457 94.3014C0.625017 93.8899 0.907659 93.5556 1.26739 93.3241C1.62712 93.0926 2.03824 92.964 2.52644 92.964C2.91186 92.964 3.2459 93.0412 3.55424 93.1698C3.86258 93.2984 4.09383 93.5041 4.29939 93.7613C4.50495 94.0185 4.60774 94.3014 4.65913 94.6358H3.83689C3.7855 94.4043 3.63132 94.1728 3.42576 93.9928C3.2202 93.8128 2.91187 93.7099 2.55214 93.7099C2.06393 93.7099 1.67851 93.8899 1.39586 94.25C1.11322 94.6101 0.959045 95.0988 0.959045 95.716C0.959045 96.3333 1.11322 96.822 1.39586 97.2078C1.67851 97.5679 2.06393 97.7737 2.55214 97.7737C2.86048 97.7737 3.14312 97.6965 3.37438 97.5165C3.60563 97.3364 3.7598 97.1307 3.83689 96.822H4.65913C4.60774 97.1307 4.50495 97.4136 4.32509 97.6708C4.14522 97.928 3.91397 98.1337 3.60563 98.2623C3.2459 98.4167 2.88617 98.4938 2.50074 98.4938Z" fill="white"/>
<path d="M7.97377 98.4938C7.48557 98.4938 7.07445 98.3909 6.71472 98.1595C6.35499 97.928 6.07234 97.6193 5.86678 97.1821C5.66122 96.7706 5.55845 96.2819 5.55845 95.7418C5.55845 95.1759 5.66122 94.6872 5.86678 94.2757C6.07234 93.8642 6.35499 93.5298 6.71472 93.2984C7.07445 93.0669 7.51126 92.964 7.97377 92.964C8.46198 92.964 8.8731 93.0669 9.23283 93.2984C9.59256 93.5298 9.8752 93.8642 10.0808 94.2757C10.2863 94.6872 10.3891 95.1759 10.3891 95.7418C10.3891 96.3076 10.2863 96.7706 10.0808 97.1821C9.8752 97.5936 9.59256 97.928 9.23283 98.1595C8.8731 98.3652 8.46198 98.4938 7.97377 98.4938ZM7.97377 97.7479C8.3335 97.7479 8.64184 97.6451 8.8731 97.465C9.10435 97.285 9.28422 97.0278 9.387 96.7191C9.48978 96.4105 9.56686 96.0761 9.56686 95.716C9.56686 95.356 9.51547 95.0216 9.387 94.713C9.28422 94.4043 9.10435 94.1471 8.8731 93.9671C8.64184 93.787 8.3335 93.6842 7.97377 93.6842C7.61404 93.6842 7.30571 93.787 7.07445 93.9671C6.8432 94.1471 6.66333 94.4043 6.56055 94.713C6.45777 95.0216 6.38068 95.356 6.38068 95.716C6.38068 96.0761 6.43208 96.4105 6.56055 96.7191C6.66333 97.0278 6.8432 97.285 7.07445 97.465C7.30571 97.6451 7.61404 97.7479 7.97377 97.7479Z" fill="white"/>
<path d="M12.4704 95.1502V98.3652H11.6482V93.0154H12.4447V93.8385H12.5218C12.6503 93.5555 12.8301 93.3498 13.0871 93.1697C13.344 93.0154 13.6781 92.9125 14.0892 92.9125C14.6288 92.9125 15.0656 93.0668 15.3996 93.4012C15.7337 93.7356 15.8878 94.25 15.8878 94.9187V98.3138H15.0656V94.9701C15.0656 94.5586 14.9628 94.2243 14.7316 93.9928C14.5003 93.7613 14.2177 93.6327 13.8322 93.6327C13.4468 93.6327 13.1128 93.7613 12.8558 94.0185C12.5989 94.3271 12.4704 94.6872 12.4704 95.1502Z" fill="white"/>
<path d="M18.2004 95.1502V98.3652H17.3781V93.0154H18.1747V93.8385H18.2518C18.3802 93.5555 18.5601 93.3498 18.8171 93.1697C19.074 93.0154 19.408 92.9125 19.8192 92.9125C20.3588 92.9125 20.7956 93.0668 21.1296 93.4012C21.4636 93.7356 21.6178 94.25 21.6178 94.9187V98.3138H20.7956V94.9701C20.7956 94.5586 20.6928 94.2243 20.4615 93.9928C20.2303 93.7613 19.9476 93.6327 19.5622 93.6327C19.1768 93.6327 18.8428 93.7613 18.5858 94.0185C18.3289 94.3271 18.2004 94.6872 18.2004 95.1502Z" fill="white"/>
<path d="M25.3693 98.4939C24.8554 98.4939 24.4186 98.391 24.0331 98.1595C23.6734 97.928 23.3651 97.6194 23.1852 97.2078C22.9796 96.7963 22.8769 96.3076 22.8769 95.7675C22.8769 95.2274 22.9796 94.7387 23.1852 94.3272C23.3908 93.9157 23.6734 93.5813 24.0331 93.3498C24.3929 93.1183 24.804 92.9897 25.2922 92.9897C25.5748 92.9897 25.8575 93.0412 26.1144 93.1183C26.3971 93.2212 26.6283 93.3498 26.8596 93.5813C27.0908 93.7871 27.2707 94.07 27.3992 94.4044C27.5277 94.7387 27.6047 95.176 27.6047 95.6646V96.0247H23.7248C23.7505 96.5906 23.9047 97.0278 24.213 97.3364C24.5213 97.6451 24.9068 97.7994 25.395 97.7994C25.729 97.7994 25.986 97.7222 26.2172 97.5936C26.4485 97.465 26.6283 97.2336 26.7311 96.9764L27.5277 97.2078C27.3992 97.6194 27.1422 97.928 26.7825 98.1852C26.3714 98.3653 25.9089 98.4939 25.3693 98.4939ZM23.6991 95.2531H26.7568C26.7568 94.7902 26.6283 94.4301 26.3714 94.1214C26.1144 93.8128 25.7547 93.6842 25.3179 93.6842C25.0095 93.6842 24.7269 93.7613 24.4956 93.9157C24.2644 94.07 24.0845 94.25 23.956 94.5072C23.8019 94.7387 23.7248 94.9959 23.6991 95.2531Z" fill="white"/>
<path d="M30.9965 98.4938C30.5083 98.4938 30.0715 98.3652 29.7117 98.1337C29.352 97.9023 29.0693 97.5679 28.8895 97.1564C28.6839 96.7449 28.6068 96.2562 28.6068 95.7418C28.6068 95.2017 28.7096 94.713 28.9152 94.3014C29.1207 93.8899 29.4034 93.5556 29.7631 93.3241C30.1228 93.0926 30.534 92.964 31.0222 92.964C31.4076 92.964 31.7416 93.0412 32.05 93.1698C32.3583 93.2984 32.5896 93.5041 32.7951 93.7613C33.0007 94.0185 33.1035 94.3014 33.1548 94.6358H32.3326C32.2812 94.4043 32.127 94.1728 31.9215 93.9928C31.7159 93.8128 31.4076 93.7099 31.0479 93.7099C30.5597 93.7099 30.1742 93.8899 29.8916 94.25C29.6089 94.6101 29.4548 95.0988 29.4548 95.716C29.4548 96.3333 29.6089 96.822 29.8916 97.2078C30.1742 97.5679 30.5597 97.7737 31.0479 97.7737C31.3562 97.7737 31.6388 97.6965 31.8701 97.5165C32.1014 97.3364 32.2555 97.1307 32.3326 96.822H33.1548C33.1035 97.1307 33.0007 97.4136 32.8208 97.6708C32.6409 97.928 32.4097 98.1337 32.1014 98.2623C31.7416 98.4167 31.4076 98.4938 30.9965 98.4938Z" fill="white"/>
<path d="M36.6237 93.0154V93.7099H35.4931V96.822C35.4931 97.0535 35.5188 97.2335 35.5959 97.3364C35.673 97.4393 35.75 97.5165 35.8528 97.5679C35.9556 97.5936 36.0841 97.6193 36.1869 97.6193C36.2896 97.6193 36.341 97.6193 36.4181 97.5936C36.4695 97.5936 36.5209 97.5679 36.5466 97.5679L36.7008 98.3138C36.6494 98.3395 36.5723 98.3652 36.4695 98.3652C36.3667 98.3909 36.2382 98.391 36.0841 98.391C35.8528 98.391 35.6216 98.3395 35.3903 98.2366C35.1591 98.1337 34.9792 97.9794 34.8507 97.7737C34.6965 97.5679 34.6452 97.3107 34.6452 97.0021V93.6584H33.8486V92.964H34.6452V91.678H35.4674V92.964H36.6237V93.0154Z" fill="white"/>
<path d="M38.2938 92.1152C38.1397 92.1152 37.9855 92.0638 37.8827 91.9609C37.7799 91.858 37.7029 91.7294 37.7029 91.5751C37.7029 91.4208 37.7542 91.2922 37.8827 91.1893C37.9855 91.0864 38.1397 91.035 38.2938 91.035C38.448 91.035 38.6022 91.0864 38.705 91.1893C38.8077 91.2922 38.8848 91.4208 38.8848 91.5751C38.8848 91.7294 38.8334 91.858 38.705 91.9609C38.6022 92.0638 38.448 92.1152 38.2938 92.1152ZM37.8827 98.3652V93.0154H38.705V98.3652H37.8827Z" fill="white"/>
<path d="M41.0175 95.1502V98.3652H40.1953V93.0154H40.9918V93.8385H41.0689C41.1974 93.5555 41.3772 93.3498 41.6342 93.1697C41.8911 93.0154 42.2252 92.9125 42.6363 92.9125C43.1759 92.9125 43.6127 93.0668 43.9467 93.4012C44.2808 93.7356 44.4349 94.25 44.4349 94.9187V98.3138H43.6127V94.9701C43.6127 94.5586 43.5099 94.2243 43.2787 93.9928C43.0474 93.7613 42.7648 93.6327 42.3793 93.6327C41.9939 93.6327 41.6599 93.7613 41.4029 94.0185C41.146 94.3271 41.0175 94.6872 41.0175 95.1502Z" fill="white"/>
<path d="M48.1093 100.5C47.5183 100.5 47.0301 100.397 46.6961 100.166C46.3364 99.9599 46.0794 99.7027 45.9252 99.4198L46.5676 98.9568C46.6447 99.0597 46.7475 99.1626 46.8503 99.2912C46.9531 99.4198 47.1329 99.5226 47.3128 99.6255C47.5183 99.7284 47.7753 99.7798 48.0836 99.7798C48.5204 99.7798 48.8802 99.677 49.1628 99.4712C49.4455 99.2654 49.5739 98.9311 49.5739 98.4938V97.4136H49.4969C49.4455 97.5165 49.3427 97.6193 49.2399 97.7737C49.1371 97.928 48.983 98.0309 48.7774 98.1595C48.5718 98.2623 48.2892 98.3138 47.9552 98.3138C47.5183 98.3138 47.1329 98.2109 46.7989 98.0051C46.4648 97.7994 46.1822 97.5165 45.9766 97.1049C45.7711 96.7191 45.6683 96.2305 45.6683 95.6903C45.6683 95.1502 45.7711 94.6615 45.951 94.25C46.1565 93.8385 46.4135 93.5298 46.7475 93.2984C47.0815 93.0669 47.4926 92.964 47.9295 92.964C48.2892 92.964 48.5461 93.0154 48.7517 93.144C48.9573 93.2726 49.1114 93.4012 49.2142 93.5298C49.317 93.6842 49.4198 93.787 49.4711 93.8899H49.5482V93.0412H50.3448V98.5453C50.3448 99.0082 50.242 99.3683 50.0364 99.677C49.8309 99.9599 49.5482 100.166 49.1885 100.32C48.9059 100.423 48.5204 100.5 48.1093 100.5ZM48.0579 97.5422C48.5461 97.5422 48.9316 97.3621 49.1885 97.0278C49.4455 96.6934 49.5739 96.2305 49.5739 95.6389C49.5739 95.073 49.4455 94.5844 49.1885 94.2243C48.9316 93.8642 48.5461 93.6842 48.0579 93.6842C47.6982 93.6842 47.4156 93.7613 47.1843 93.9414C46.9531 94.1214 46.7732 94.3529 46.6704 94.6615C46.5676 94.9702 46.4905 95.2788 46.4905 95.6389C46.4905 96.2047 46.619 96.642 46.876 97.0021C47.1586 97.3621 47.544 97.5422 48.0579 97.5422Z" fill="white"/>
<path d="M55.2011 100.371C55.0727 100.371 54.9442 100.371 54.8414 100.346C54.7386 100.32 54.6615 100.294 54.6101 100.269L54.8157 99.5484C55.0213 99.5998 55.2011 99.6255 55.3553 99.5998C55.5095 99.5741 55.6379 99.5226 55.7664 99.394C55.8949 99.2654 55.9977 99.0854 56.1005 98.8025L56.2546 98.391L54.2761 93.0154H55.1754L56.6401 97.285H56.6914L58.1561 93.0154H59.0554L56.7942 99.1368C56.4602 99.9599 55.9463 100.371 55.2011 100.371Z" fill="white"/>
<path d="M62.1131 98.4938C61.6249 98.4938 61.2138 98.3909 60.854 98.1595C60.4943 97.928 60.2116 97.6193 60.0061 97.1821C59.8005 96.7449 59.6978 96.2819 59.6978 95.7418C59.6978 95.1759 59.8005 94.6872 60.0061 94.2757C60.2116 93.8642 60.4943 93.5298 60.854 93.2984C61.2138 93.0669 61.6506 92.964 62.1131 92.964C62.6013 92.964 63.0124 93.0669 63.3721 93.2984C63.7319 93.5298 64.0145 93.8642 64.2201 94.2757C64.4256 94.6872 64.5284 95.1759 64.5284 95.7418C64.5284 96.3076 64.4256 96.7706 64.2201 97.1821C64.0145 97.5936 63.7319 97.928 63.3721 98.1595C63.0124 98.3652 62.6013 98.4938 62.1131 98.4938ZM62.1131 97.7479C62.4728 97.7479 62.7811 97.6451 63.0124 97.465C63.2437 97.285 63.4235 97.0278 63.5263 96.7191C63.6291 96.4105 63.7062 96.0761 63.7062 95.716C63.7062 95.356 63.6548 95.0216 63.5263 94.713C63.4235 94.4043 63.2437 94.1471 63.0124 93.9671C62.7811 93.787 62.4728 93.6842 62.1131 93.6842C61.7533 93.6842 61.445 93.787 61.2138 93.9671C60.9825 94.1471 60.8026 94.4043 60.6999 94.713C60.5971 95.0216 60.52 95.356 60.52 95.716C60.52 96.0761 60.5714 96.4105 60.6999 96.7191C60.8026 97.0278 60.9825 97.285 61.2138 97.465C61.445 97.6451 61.7533 97.7479 62.1131 97.7479Z" fill="white"/>
<path d="M69.1535 96.179V93.0154H69.9758V98.3652H69.1535V97.465H69.1021C68.9736 97.7479 68.7938 97.9794 68.5111 98.1595C68.2542 98.3395 67.9201 98.4424 67.509 98.4424C66.9951 98.4424 66.584 98.2881 66.2757 97.9537C65.9416 97.6194 65.7875 97.1049 65.7875 96.4362V93.0412H66.6097V96.3848C66.6097 96.7706 66.7125 97.0792 66.9437 97.3107C67.175 97.5422 67.432 97.6708 67.7917 97.6708C67.9972 97.6708 68.2028 97.6194 68.4084 97.5165C68.6139 97.4136 68.7938 97.2593 68.948 97.0278C69.0764 96.7963 69.1535 96.5134 69.1535 96.179Z" fill="white"/>
<path d="M71.4917 98.3652V93.0154H72.2883V93.8127H72.3397C72.4425 93.5555 72.6223 93.3241 72.8793 93.1697C73.1362 93.0154 73.4189 92.9125 73.7529 92.9125C73.8043 92.9125 73.8814 92.9125 73.9842 92.9125C74.0869 92.9125 74.1383 92.9125 74.1897 92.9125V93.7613C74.164 93.7613 74.0869 93.7356 74.0098 93.7356C73.9071 93.7098 73.8043 93.7099 73.7015 93.7099C73.3161 93.7099 72.982 93.8385 72.7251 94.0699C72.4681 94.3014 72.3397 94.6101 72.3397 94.9701V98.3652H71.4917Z" fill="white"/>
<path d="M80.0482 100.5C79.4572 100.5 78.969 100.397 78.6349 100.166C78.2752 99.9599 78.0183 99.7027 77.8641 99.4198L78.5065 98.9568C78.5836 99.0597 78.6863 99.1626 78.7891 99.2912C78.8919 99.4198 79.0718 99.5226 79.2516 99.6255C79.4572 99.7284 79.7141 99.7798 80.0225 99.7798C80.4593 99.7798 80.819 99.677 81.1017 99.4712C81.3843 99.2654 81.5128 98.9311 81.5128 98.4938V97.4136H81.4357C81.3843 97.5165 81.2815 97.6193 81.1788 97.7737C81.076 97.928 80.9218 98.0309 80.7162 98.1595C80.5107 98.2623 80.228 98.3138 79.894 98.3138C79.4572 98.3138 79.0718 98.2109 78.7377 98.0051C78.4037 97.7994 78.121 97.5165 77.9155 97.1049C77.7099 96.7191 77.6071 96.2305 77.6071 95.6903C77.6071 95.1502 77.7099 94.6615 77.8898 94.25C78.0954 93.8385 78.3523 93.5298 78.6863 93.2984C79.0204 93.0669 79.4315 92.964 79.8683 92.964C80.228 92.964 80.485 93.0154 80.6905 93.144C80.8961 93.2726 81.0503 93.4012 81.1531 93.5298C81.2558 93.6842 81.3586 93.787 81.41 93.8899H81.4871V93.0412H82.2836V98.5453C82.2836 99.0082 82.1808 99.3683 81.9753 99.677C81.7697 99.9599 81.4871 100.166 81.1274 100.32C80.8704 100.423 80.485 100.5 80.0482 100.5ZM80.0225 97.5422C80.5107 97.5422 80.8961 97.3621 81.1531 97.0278C81.41 96.6934 81.5385 96.2305 81.5385 95.6389C81.5385 95.073 81.41 94.5844 81.1531 94.2243C80.8961 93.8642 80.5107 93.6842 80.0225 93.6842C79.6627 93.6842 79.3801 93.7613 79.1488 93.9414C78.9176 94.1214 78.7377 94.3529 78.6349 94.6615C78.5322 94.9702 78.4551 95.2788 78.4551 95.6389C78.4551 96.2047 78.5836 96.642 78.8405 97.0021C79.1232 97.3621 79.5086 97.5422 80.0225 97.5422Z" fill="white"/>
<path d="M86.0351 98.4938C85.5469 98.4938 85.1358 98.3909 84.776 98.1595C84.4163 97.928 84.1337 97.6193 83.9281 97.1821C83.7226 96.7706 83.6198 96.2819 83.6198 95.7418C83.6198 95.1759 83.7226 94.6872 83.9281 94.2757C84.1337 93.8642 84.4163 93.5298 84.776 93.2984C85.1358 93.0669 85.5726 92.964 86.0351 92.964C86.5233 92.964 86.9344 93.0669 87.2942 93.2984C87.6539 93.5298 87.9365 93.8642 88.1421 94.2757C88.3476 94.6872 88.4504 95.1759 88.4504 95.7418C88.4504 96.3076 88.3476 96.7706 88.1421 97.1821C87.9365 97.5936 87.6539 97.928 87.2942 98.1595C86.9344 98.3652 86.5233 98.4938 86.0351 98.4938ZM86.0351 97.7479C86.3948 97.7479 86.7032 97.6451 86.9344 97.465C87.1657 97.285 87.3456 97.0278 87.4483 96.7191C87.5511 96.4105 87.6282 96.0761 87.6282 95.716C87.6282 95.356 87.5768 95.0216 87.4483 94.713C87.3456 94.4043 87.1657 94.1471 86.9344 93.9671C86.7032 93.787 86.3948 93.6842 86.0351 93.6842C85.6754 93.6842 85.367 93.787 85.1358 93.9671C84.9045 94.1471 84.7247 94.4043 84.6219 94.713C84.5191 95.0216 84.442 95.356 84.442 95.716C84.442 96.0761 84.4934 96.4105 84.6219 96.7191C84.7247 97.0278 84.9045 97.285 85.1358 97.465C85.367 97.6451 85.6754 97.7479 86.0351 97.7479Z" fill="white"/>
<path d="M91.2769 98.4938C90.9428 98.4938 90.6345 98.4167 90.3519 98.2881C90.0692 98.1595 89.8636 97.9794 89.6838 97.7222C89.5296 97.465 89.4525 97.1821 89.4525 96.822C89.4525 96.5134 89.5039 96.2562 89.6324 96.0761C89.7609 95.8961 89.915 95.7418 90.1206 95.6132C90.3262 95.5103 90.5574 95.4331 90.7887 95.356C91.0456 95.3045 91.2769 95.2531 91.5338 95.2274C91.8679 95.1759 92.1248 95.1502 92.3304 95.1245C92.5359 95.0988 92.6901 95.073 92.7672 95.0216C92.87 94.9702 92.9214 94.8673 92.9214 94.7387V94.713C92.9214 94.3786 92.8186 94.0957 92.6387 93.9156C92.4588 93.7356 92.1762 93.6327 91.7908 93.6327C91.4053 93.6327 91.097 93.7099 90.8658 93.8899C90.6345 94.07 90.4803 94.25 90.4033 94.43L89.6324 94.1471C89.7609 93.8128 89.9664 93.5813 90.1977 93.3755C90.4289 93.1955 90.6859 93.0669 90.9685 92.9897C91.2512 92.9126 91.5081 92.8868 91.7908 92.8868C91.9706 92.8868 92.1505 92.9126 92.3818 92.9383C92.613 92.9897 92.8186 93.0669 93.0241 93.1955C93.2297 93.3241 93.4096 93.5041 93.538 93.7613C93.6665 94.0185 93.7436 94.3529 93.7436 94.7901V98.3138H92.9214V97.5936H92.87C92.8186 97.6965 92.7158 97.8251 92.5873 97.9537C92.4589 98.0823 92.279 98.2109 92.0734 98.2881C91.8679 98.4424 91.5852 98.4938 91.2769 98.4938ZM91.4053 97.748C91.7394 97.748 91.9963 97.6965 92.2276 97.5679C92.4588 97.4393 92.613 97.285 92.7415 97.0792C92.8443 96.8735 92.9214 96.6677 92.9214 96.4362V95.6903C92.8957 95.7418 92.8186 95.7675 92.6901 95.7932C92.5616 95.8189 92.4332 95.8447 92.279 95.8704C92.1248 95.8961 91.9706 95.9218 91.8422 95.9218C91.688 95.9475 91.5852 95.9475 91.4824 95.9733C91.2769 95.999 91.0713 96.0504 90.8914 96.1019C90.7116 96.1533 90.5574 96.2562 90.4546 96.3848C90.3519 96.5134 90.2748 96.6677 90.2748 96.8735C90.2748 97.1564 90.3775 97.3621 90.5831 97.5165C90.8144 97.6965 91.097 97.748 91.4053 97.748Z" fill="white"/>
<path d="M96.0561 91.2407V98.3909H95.2339V91.2407H96.0561Z" fill="white"/>
<path d="M101.349 94.2243L100.604 94.4301C100.527 94.25 100.424 94.07 100.244 93.9157C100.065 93.7613 99.8076 93.6842 99.4479 93.6842C99.1138 93.6842 98.8569 93.7613 98.6256 93.9157C98.4201 94.07 98.2916 94.25 98.2916 94.4815C98.2916 94.6873 98.3687 94.8416 98.5229 94.9702C98.677 95.0988 98.9083 95.176 99.2166 95.2788L100.013 95.4846C100.964 95.7161 101.426 96.2048 101.426 96.9249C101.426 97.2336 101.349 97.5165 101.169 97.748C100.99 97.9795 100.758 98.1852 100.424 98.3138C100.116 98.4424 99.7562 98.5196 99.3194 98.5196C98.7798 98.5196 98.3173 98.391 97.9576 98.1595C97.5978 97.928 97.3666 97.5679 97.2895 97.1307L98.0604 96.9249C98.2145 97.4908 98.6256 97.7994 99.2937 97.7994C99.6791 97.7994 99.9875 97.7223 100.219 97.5422C100.45 97.3879 100.553 97.1821 100.553 96.9506C100.553 96.5648 100.296 96.3334 99.7562 96.2048L98.8569 95.999C98.3687 95.8704 98.009 95.6904 97.7777 95.4589C97.5464 95.2017 97.4437 94.893 97.4437 94.533C97.4437 94.2243 97.5208 93.9671 97.7006 93.7356C97.8805 93.5041 98.1117 93.3241 98.3944 93.1955C98.7027 93.0669 99.0368 92.9897 99.3965 92.9897C99.9361 92.9897 100.347 93.1183 100.656 93.3498C100.964 93.5813 101.221 93.8385 101.349 94.2243Z" fill="white"/>
<path d="M19.5365 85.0679V85.0422L15.4253 77.4805C15.4253 77.4805 15.3996 77.3776 15.3996 77.3519C15.3996 77.249 15.4253 77.1976 15.5024 77.1461C15.5281 77.1461 15.5538 77.1204 15.5795 77.1204C16.6587 76.5546 17.5066 75.7572 18.1233 74.7541C18.7914 73.6739 19.1511 72.3365 19.1511 70.7933C19.1511 69.1986 18.7914 67.8097 18.0976 66.678C17.4038 65.5206 16.4274 64.6461 15.1684 64.0546C13.9093 63.4373 12.4447 63.1544 10.7745 63.1544H1.31878C1.1903 63.1544 1.06183 63.283 1.06183 63.4116V85.2223C1.06183 85.4537 1.24169 85.6338 1.49864 85.6338H6.76611C6.99736 85.6338 7.17723 85.4537 7.17723 85.2223V78.4579C7.17723 78.3035 7.3057 78.2007 7.43418 78.2007H9.28422L13.0871 85.3766C13.1642 85.5309 13.2926 85.6338 13.4725 85.6338H19.1768C19.408 85.6338 19.5879 85.4537 19.5879 85.2223C19.5879 85.1708 19.5622 85.1194 19.5365 85.0679ZM11.828 72.8509C11.2113 73.2624 10.3891 73.4681 9.30991 73.4681H7.40848C7.28001 73.4681 7.15153 73.3653 7.15153 73.2109V68.2727C7.15153 68.1183 7.28001 68.0155 7.40848 68.0155H9.30991C10.3891 68.0155 11.2113 68.2212 11.828 68.6585C12.4447 69.0957 12.7273 69.8159 12.7273 70.7675C12.7273 71.7449 12.4447 72.4393 11.828 72.8509Z" fill="white"/>
<path d="M27.0651 78.6121H37.3688C37.6001 78.6121 37.7799 78.4321 37.7799 78.2006V77.1975C37.7799 75.3971 37.4459 73.8539 36.7521 72.5679C36.0584 71.2819 35.082 70.2788 33.8229 69.5843C32.5639 68.8899 31.0992 68.5555 29.4034 68.5555C27.6818 68.5555 26.1401 68.9156 24.8811 69.6358C23.5963 70.356 22.6199 71.3848 21.9004 72.6965C21.181 74.0082 20.847 75.5257 20.847 77.2747C20.847 80.001 21.6178 82.1358 23.1595 83.679C24.7012 85.2222 26.8339 85.9681 29.5319 85.9681C31.8701 85.9681 33.7715 85.4537 35.2104 84.4249C36.4695 83.499 37.2917 82.2901 37.6772 80.8241C37.7029 80.7726 37.7029 80.6955 37.7285 80.644C37.7285 80.4383 37.5487 80.2839 37.3688 80.2582H32.4611C32.3583 80.2582 32.2812 80.3354 32.2298 80.4125C32.05 80.8241 31.7416 81.1327 31.3305 81.3642C30.868 81.6214 30.3284 81.75 29.7117 81.75C28.8124 81.75 28.0929 81.4928 27.6047 80.9527C27.0908 80.4125 26.8596 79.7438 26.8596 78.9208C26.8082 78.715 26.911 78.6121 27.0651 78.6121ZM26.8339 74.9084C26.911 74.3426 27.1936 73.8539 27.6304 73.4938C28.17 73.0309 28.7867 72.7994 29.5319 72.7994C30.277 72.7994 30.9194 73.0309 31.4333 73.4938C31.8444 73.8796 32.1013 74.3426 32.1784 74.9084C32.1784 74.9341 32.2041 74.9856 32.2041 75.0113C32.2041 75.1656 32.1013 75.2685 31.9472 75.2685H27.0908C26.9624 75.2685 26.8339 75.1656 26.8339 75.0113C26.8082 74.9599 26.8339 74.9341 26.8339 74.9084Z" fill="white"/>
<path d="M57.2567 85.2222C57.2567 85.4537 57.0769 85.6337 56.8456 85.6337H50.8844C50.7045 85.6337 50.576 85.5309 50.4989 85.3765L47.4155 80.0268C47.4155 80.001 47.3899 79.9753 47.3642 79.9496C47.3128 79.8982 47.2614 79.8724 47.1843 79.8724C47.1072 79.8724 47.0558 79.8982 47.0044 79.9496C46.9787 79.9753 46.953 80.001 46.953 80.0268L46.3877 80.7469C46.3364 80.7984 46.3107 80.8498 46.3107 80.927V85.2222C46.3107 85.4537 46.1308 85.6337 45.8996 85.6337H40.6578C40.4265 85.6337 40.2467 85.4537 40.2467 85.2222V63.3858C40.2467 63.2572 40.3494 63.1286 40.5036 63.1286H45.8996C46.1308 63.1286 46.3107 63.3087 46.3107 63.5401V73.9568C46.3107 74.0854 46.4134 74.214 46.5676 74.214C46.6447 74.214 46.6961 74.1883 46.7475 74.1368L46.7989 74.0597L50.4989 68.9156C50.4989 68.8899 50.5246 68.8642 50.5503 68.8385C50.6017 68.787 50.6531 68.7613 50.7302 68.7613H56.563C56.7942 68.7613 56.9741 68.9414 56.9741 69.1728C56.9741 69.2243 56.9741 69.2757 56.9484 69.3529C56.9227 69.4043 56.897 69.4558 56.8456 69.4815L51.7837 75.9887L51.7323 76.0659C51.7323 76.0916 51.7066 76.143 51.7066 76.1687C51.7066 76.1944 51.7066 76.2459 51.7323 76.2716C51.7323 76.2973 51.758 76.3231 51.7837 76.3488L57.1539 84.965C57.1796 84.9907 57.2053 85.0422 57.231 85.0679C57.2567 85.1194 57.2567 85.1708 57.2567 85.2222Z" fill="white"/>
<path d="M69.3077 85.0679C69.3077 85.248 69.2049 85.3766 69.0507 85.4537C68.8195 85.5309 68.5368 85.5823 68.2028 85.6595C67.7146 85.7624 67.1236 85.8395 66.4298 85.891C64.3485 86.0196 62.7554 85.6338 61.6763 84.7593C60.5971 83.8848 60.0832 82.5731 60.1089 80.7984V73.4424C60.1089 73.2881 60.0061 73.1852 59.8519 73.1852H58.2331C58.079 73.1852 57.9762 73.0823 57.9762 72.928V69.0185C57.9762 68.8642 58.079 68.7613 58.2331 68.7613H59.6978C59.929 68.7613 60.1089 68.5813 60.1089 68.3498V65.1348C60.1089 64.9033 60.2887 64.7233 60.52 64.7233H65.7618C65.993 64.7233 66.1729 64.9033 66.1729 65.1348V68.3498C66.1729 68.5813 66.3528 68.7613 66.584 68.7613H68.6653C68.8965 68.7613 69.0764 68.9414 69.0764 69.1729V72.9023C69.0764 73.0566 68.9736 73.1595 68.8195 73.1595H66.4298C66.3014 73.1595 66.1729 73.2624 66.1729 73.4167V80.2068C66.1729 80.9013 66.5583 81.2613 67.3292 81.2613C67.509 81.2613 67.7146 81.2356 67.9715 81.1842C68.0743 81.1842 68.1514 81.1585 68.2285 81.1585C68.2542 81.1585 68.3056 81.1327 68.3313 81.1327C68.434 81.1327 68.5111 81.2099 68.5625 81.2871C68.5625 81.3128 68.5882 81.3642 68.5882 81.3899L69.3077 84.8879C69.282 84.9393 69.3077 85.0165 69.3077 85.0679Z" fill="white"/>
<path d="M101.889 85.0679C101.889 85.248 101.786 85.3766 101.632 85.4537C101.401 85.5309 101.118 85.5823 100.784 85.6595C100.296 85.7624 99.7048 85.8395 99.0111 85.891C96.9298 86.0196 95.3367 85.6338 94.2575 84.7593C93.1783 83.8848 92.6644 82.5731 92.6901 80.7984V73.4424C92.6901 73.2881 92.5873 73.1852 92.4331 73.1852H90.8144C90.6602 73.1852 90.5574 73.0823 90.5574 72.928V69.0185C90.5574 68.8642 90.6602 68.7613 90.8144 68.7613H92.279C92.5102 68.7613 92.6901 68.5813 92.6901 68.3498V65.1348C92.6901 64.9033 92.87 64.7233 93.1012 64.7233H98.343C98.5742 64.7233 98.7541 64.9033 98.7541 65.1348V68.3498C98.7541 68.5813 98.934 68.7613 99.1652 68.7613H101.247C101.478 68.7613 101.658 68.9414 101.658 69.1729V72.9023C101.658 73.0566 101.555 73.1595 101.401 73.1595H99.0111C98.8826 73.1595 98.7541 73.2624 98.7541 73.4167V80.2068C98.7541 80.9013 99.1395 81.2613 99.9104 81.2613C100.09 81.2613 100.296 81.2356 100.553 81.1842C100.656 81.1842 100.733 81.1585 100.81 81.1585C100.835 81.1585 100.887 81.1327 100.912 81.1327C101.015 81.1327 101.092 81.2099 101.144 81.2871C101.144 81.3128 101.169 81.3642 101.169 81.3899L101.889 84.8879C101.889 84.9393 101.889 85.0165 101.889 85.0679Z" fill="white"/>
<path d="M88.5275 69.1728V85.2222C88.5275 85.4537 88.3476 85.6337 88.1164 85.6337H83.2087C83.0031 85.6337 82.8232 85.4794 82.7975 85.2737V82.5216C82.7975 82.4702 82.7461 82.4187 82.6948 82.4187C82.6434 82.4187 82.592 82.4702 82.592 82.5216C82.2322 83.5504 81.5899 84.3477 80.6905 84.9393C79.7912 85.5566 78.6863 85.8395 77.4273 85.8395C76.2453 85.8395 75.2175 85.5566 74.3439 85.0165C73.4703 84.4763 72.7765 83.7304 72.2883 82.7788C71.8001 81.8272 71.5431 80.7212 71.5431 79.5123V69.1471C71.5431 68.9156 71.723 68.7356 71.9542 68.7356H77.196C77.4273 68.7356 77.6071 68.9156 77.6071 69.1471V78.2263C77.6071 79.0494 77.8127 79.7181 78.2495 80.2068C78.6606 80.6697 79.2516 80.9269 80.0225 80.9269C80.7676 80.9269 81.3843 80.6955 81.8211 80.2068C82.2579 79.7181 82.4892 79.0751 82.4635 78.2263V69.1471C82.4635 68.9156 82.6434 68.7356 82.8746 68.7356H88.1164C88.3476 68.7613 88.5275 68.9413 88.5275 69.1728Z" fill="white"/>
</svg>
