<?xml version="1.0" encoding="utf-8"?>
<!-- Generator: Adobe Illustrator 27.8.1, SVG Export Plug-In . SVG Version: 6.00 Build 0)  -->
<svg version="1.1" id="Слой_1" xmlns="http://www.w3.org/2000/svg" xmlns:xlink="http://www.w3.org/1999/xlink" x="0px" y="0px"
	 viewBox="0 0 1080 1080" style="enable-background:new 0 0 1080 1080;" xml:space="preserve">
<style type="text/css">
	.st0{fill:#0963E7;}
</style>
<g>
	<path class="st0" d="M273.7,529.4L273.7,529.4c-0.1,5.9-4.8,10.6-10.6,10.6h-57.4c-5.9,0-10.6,4.8-10.6,10.6c0,0.6,0.3,2.3,0.3,2.5
		c5.7,23.9,26.6,41.9,51.8,43.1h0.1c1.5,0.1,2.7,1.2,2.8,2.7v75.1c-0.1,1.5-1.2,2.6-2.7,2.6H247c0,0,0,0-0.1,0
		C177.2,675,120.4,621.3,114,552.8c-0.1-0.7-0.2-1.4-0.2-2.2v-0.1c0.1-5.9,4.8-10.6,10.6-10.6h57.4c5.9,0,10.6-4.8,10.6-10.6
		c0-0.6-0.3-2.2-0.3-2.3c-5.6-23.9-26.5-42-51.8-43.2h-0.3c-0.1,0-0.1,0-0.1,0c-0.1,0-0.1,0-0.1,0c-1.3-0.1-2.3-1.2-2.5-2.5
		c0-0.1,0-0.1,0-0.1v-74.9c0-1.5,1.2-2.8,2.7-2.8h0.4c36.5,0.8,69.5,15.9,93.5,40c21.9,21.9,36.4,51.1,39.4,83.8
		C273.7,527.9,273.7,528.6,273.7,529.4z"/>
	<g>
		<g>
			<path class="st0" d="M445.5,564.4c0-0.1-0.1-0.1-0.1-0.2L419,515.8c-0.1-0.1-0.2-0.6-0.2-0.8c0-0.6,0.2-1,0.6-1.3
				c0.1-0.1,0.3-0.1,0.4-0.2c6.9-3.7,12.3-8.7,16.4-15.2c4.3-6.9,6.6-15.4,6.6-25.4c0-10.2-2.2-19-6.7-26.3
				c-4.5-7.4-10.7-13-18.7-16.9c-8-3.9-17.4-5.8-28.1-5.8h-60.5c-0.9,0-1.7,0.8-1.7,1.7v139.8c0,1.4,1.2,2.7,2.7,2.7h33.7
				c1.5,0,2.7-1.2,2.7-2.7v-43.2c0-0.9,0.8-1.7,1.7-1.7h11.9l24.4,45.9c0.4,0.9,1.4,1.7,2.5,1.7H443c1.4,0,2.7-1.2,2.7-2.7
				C445.7,565,445.6,564.7,445.5,564.4z M396,486.1c-3.9,2.7-9.2,4-16.1,4h-12.2c-0.9,0-1.7-0.7-1.7-1.7v-31.6
				c0-0.9,0.8-1.7,1.7-1.7H380c6.8,0,12.2,1.4,16.1,4.2c3.9,2.8,5.8,7.4,5.8,13.5C401.9,479,399.9,483.4,396,486.1z"/>
			<path class="st0" d="M490.4,523.9h69.9c1.6,0,2.8-1.3,2.8-2.8v-6.7c0-12.1-2.3-22.7-7-31.4c-4.7-8.7-11.3-15.5-19.8-20.2
				c-8.5-4.7-18.5-7-30.1-7c-11.8,0-22.1,2.4-30.8,7.3c-8.7,5-15.4,11.8-20.1,20.7c-4.8,8.9-7.2,19.2-7.2,31
				c0,18.5,5.3,33,15.7,43.4c10.5,10.4,25,15.6,43.3,15.6c15.9,0,28.8-3.5,38.5-10.5c8.6-6.3,14.2-14.4,16.7-24.4
				c0.2-0.4,0.2-0.8,0.3-1.3v-0.1c-0.1-1.4-1.1-2.5-2.5-2.7h-33.3c-0.7,0-1.3,0.5-1.6,1.1c-1.2,2.7-3.3,4.9-6,6.4
				c-3.1,1.8-6.9,2.6-11.1,2.6c-6.1,0-10.9-1.8-14.3-5.3c-3.4-3.7-5.1-8.2-5.1-13.7C488.6,524.7,489.4,523.9,490.4,523.9z
				 M488.8,498.8c0.5-3.9,2.4-7.1,5.3-9.6c3.6-3.1,7.9-4.7,12.9-4.7c5.1,0,9.4,1.6,12.9,4.7c2.8,2.6,4.5,5.8,5,9.6
				c0.1,0.2,0.2,0.5,0.2,0.7c0,1-0.8,1.8-1.8,1.8h-33c-0.9,0-1.8-0.8-1.8-1.8C488.7,499.3,488.8,499,488.8,498.8z"/>
			<path class="st0" d="M686.6,565.4c0,1.4-1.2,2.7-2.7,2.7h-38.1c-1.1,0-2-0.7-2.5-1.7l-19.8-34.2c-0.1-0.1-0.1-0.4-0.3-0.5
				c-0.3-0.3-0.7-0.5-1.2-0.5c-0.4,0-0.9,0.2-1.2,0.5c-0.1,0.1-0.3,0.4-0.4,0.5l-3.6,4.5c-0.4,0.3-0.5,0.7-0.5,1.2v27.5
				c0,1.4-1.2,2.7-2.7,2.7h-33.5c-1.4,0-2.7-1.2-2.7-2.7V425.6c0-0.9,0.7-1.7,1.7-1.7h34.5c1.5,0,2.7,1.2,2.7,2.7v66.6
				c0,0.9,0.7,1.7,1.7,1.7c0.5,0,0.9-0.2,1.2-0.5l0.4-0.5l23.7-32.9c0.1-0.2,0.2-0.4,0.4-0.5c0.3-0.4,0.7-0.5,1.2-0.5h37.4
				c1.4,0,2.7,1.2,2.7,2.7c0,0.4-0.1,0.7-0.2,1.1c-0.1,0.3-0.4,0.6-0.6,0.8l-32.4,41.7l-0.4,0.5c-0.1,0.2-0.1,0.4-0.1,0.6
				c0,0.2,0.1,0.4,0.1,0.6v0.1c0.1,0.1,0.1,0.3,0.4,0.4v0.1l34.2,55.1c0.2,0.2,0.4,0.4,0.4,0.6C686.5,564.7,686.6,565,686.6,565.4z"
				/>
			<path class="st0" d="M767.7,564.3c0,1.1-0.6,2-1.6,2.4c-1.4,0.4-3.2,0.9-5.4,1.4c-3.2,0.7-7,1.2-11.4,1.4
				c-13.4,0.8-23.6-1.7-30.5-7.3c-6.8-5.5-10.2-14.1-10.1-25.4v-47.1c0-0.9-0.7-1.7-1.7-1.7h-10.4c-0.9,0-1.7-0.7-1.7-1.7v-24.9
				c0-0.9,0.7-1.7,1.7-1.7h9.4c1.4,0,2.7-1.2,2.7-2.7v-20.5c0-1.4,1.2-2.7,2.7-2.7h33.5c1.5,0,2.7,1.2,2.7,2.7v20.5
				c0,1.4,1.2,2.7,2.7,2.7h13.3c1.5,0,2.7,1.2,2.7,2.7v23.9c0,0.9-0.7,1.7-1.7,1.7h-15.3c-0.9,0-1.7,0.7-1.7,1.7v43.5
				c0,4.5,2.5,6.7,7.4,6.7c1.2,0,2.5-0.1,4.1-0.4c0.6-0.1,1.1-0.1,1.6-0.2c0.2-0.1,0.4-0.1,0.6-0.1c0.6,0,1.2,0.4,1.4,1
				c0.1,0.2,0.1,0.4,0.1,0.6l4.6,22.3C767.6,563.6,767.7,563.9,767.7,564.3z"/>
			<path class="st0" d="M966.1,564.3c0,1.1-0.6,2-1.6,2.4c-1.4,0.4-3.2,0.9-5.4,1.4c-3.2,0.7-7,1.2-11.4,1.4
				c-13.4,0.8-23.6-1.7-30.5-7.3c-6.8-5.5-10.2-14.1-10.1-25.4v-47.1c0-0.9-0.7-1.7-1.7-1.7h-10.4c-0.9,0-1.7-0.7-1.7-1.7v-24.9
				c0-0.9,0.7-1.7,1.7-1.7h9.4c1.4,0,2.7-1.2,2.7-2.7v-20.5c0-1.4,1.2-2.7,2.7-2.7h33.5c1.5,0,2.7,1.2,2.7,2.7v20.5
				c0,1.4,1.2,2.7,2.7,2.7H962c1.5,0,2.7,1.2,2.7,2.7v23.9c0,0.9-0.7,1.7-1.7,1.7h-15.3c-0.9,0-1.7,0.7-1.7,1.7v43.5
				c0,4.5,2.5,6.7,7.4,6.7c1.2,0,2.5-0.1,4.1-0.4c0.6-0.1,1.1-0.1,1.6-0.2c0.2-0.1,0.4-0.1,0.6-0.1c0.6,0,1.2,0.4,1.4,1
				c0.1,0.2,0.1,0.4,0.1,0.6l4.6,22.3C966.1,563.6,966.1,563.9,966.1,564.3z"/>
			<path class="st0" d="M885,462.6v102.8c0,1.4-1.2,2.7-2.7,2.7h-31.5c-1.4,0-2.5-1-2.7-2.3v-17.6c0-0.4-0.3-0.6-0.6-0.6
				c-0.4,0-0.7,0.3-0.7,0.6c-2.4,6.6-6.5,11.7-12.1,15.5c-5.8,3.9-12.8,5.8-20.9,5.8c-7.6,0-14.1-1.7-19.8-5.2
				c-5.6-3.5-10-8.2-13.1-14.3c-3.2-6.1-4.8-13.1-4.8-21v-66.3c0-1.4,1.2-2.7,2.7-2.7h33.5c1.4,0,2.7,1.2,2.7,2.7v58.2
				c0,5.3,1.4,9.5,4.1,12.6c2.7,3,6.5,4.5,11.4,4.5c4.8,0,8.6-1.5,11.5-4.5c2.8-3.1,4.3-7.3,4.2-12.6v-58.2c0-1.4,1.2-2.7,2.7-2.7
				h33.5C883.9,459.9,885,461.2,885,462.6z"/>
		</g>
		<g>
			<path class="st0" d="M338.9,650.5c-2.6,0-4.9-0.6-6.7-1.8s-3.3-2.8-4.3-4.9c-1-2.1-1.5-4.5-1.5-7.2c0-2.8,0.5-5.2,1.5-7.3
				c1-2.1,2.5-3.7,4.4-4.9c1.9-1.2,4.1-1.8,6.6-1.8c2.1,0,3.9,0.4,5.5,1.1c1.6,0.8,2.9,1.8,3.9,3.2c1,1.4,1.6,2.9,1.8,4.8h-5.1
				c-0.3-1.3-0.9-2.4-1.9-3.3c-1-0.9-2.3-1.4-4-1.4c-2.2,0-4,0.8-5.3,2.5c-1.3,1.7-2,4-2,6.9c0,2.9,0.7,5.3,2,7
				c1.3,1.7,3.1,2.6,5.3,2.6c1.5,0,2.8-0.4,3.8-1.2c1.1-0.8,1.8-2,2.1-3.4h5.1c-0.2,1.7-0.8,3.3-1.7,4.7c-0.9,1.4-2.2,2.4-3.8,3.2
				C342.8,650.1,341,650.5,338.9,650.5z"/>
			<path class="st0" d="M371.2,650.5c-2.5,0-4.7-0.6-6.6-1.7c-1.9-1.2-3.3-2.8-4.4-4.9c-1-2.1-1.6-4.5-1.6-7.3
				c0-2.8,0.5-5.2,1.6-7.3c1-2.1,2.5-3.7,4.4-4.9c1.9-1.2,4.1-1.7,6.6-1.7c2.5,0,4.7,0.6,6.6,1.7c1.9,1.2,3.3,2.8,4.4,4.9
				c1,2.1,1.6,4.5,1.6,7.3c0,2.8-0.5,5.2-1.6,7.3c-1,2.1-2.5,3.7-4.4,4.9C375.9,649.9,373.7,650.5,371.2,650.5z M371.2,646.1
				c1.6,0,3-0.4,4.1-1.3c1.1-0.9,1.9-2,2.4-3.5s0.8-3,0.8-4.8c0-1.7-0.3-3.3-0.8-4.8c-0.5-1.5-1.3-2.6-2.4-3.5
				c-1.1-0.9-2.4-1.3-4.1-1.3c-1.6,0-3,0.4-4.1,1.3c-1.1,0.9-1.9,2-2.4,3.5c-0.5,1.5-0.8,3-0.8,4.8c0,1.7,0.3,3.3,0.8,4.8
				s1.3,2.6,2.4,3.5C368.2,645.7,369.6,646.1,371.2,646.1z"/>
			<path class="st0" d="M399.1,633.9v16h-5.3v-27h5v4.4h0.3c0.6-1.4,1.6-2.6,2.9-3.4c1.3-0.9,3-1.3,5-1.3c2.8,0,5,0.9,6.7,2.6
				c1.7,1.7,2.5,4.3,2.5,7.6V650h-5.3v-16.5c0-2-0.5-3.5-1.5-4.6c-1-1.1-2.4-1.7-4.2-1.7c-1.8,0-3.3,0.6-4.5,1.8
				C399.7,630.1,399.1,631.8,399.1,633.9z"/>
			<path class="st0" d="M432.9,633.9v16h-5.3v-27h5v4.4h0.3c0.6-1.4,1.6-2.6,2.9-3.4c1.3-0.9,3-1.3,5-1.3c2.8,0,5,0.9,6.7,2.6
				c1.7,1.7,2.5,4.3,2.5,7.6V650h-5.3v-16.5c0-2-0.5-3.5-1.5-4.6c-1-1.1-2.4-1.7-4.2-1.7c-1.8,0-3.3,0.6-4.5,1.8
				C433.5,630.1,432.9,631.8,432.9,633.9z"/>
			<path class="st0" d="M473.1,650.5c-2.6,0-4.9-0.6-6.8-1.7c-1.9-1.1-3.4-2.8-4.4-4.8c-1-2.1-1.6-4.5-1.6-7.3
				c0-2.8,0.5-5.2,1.6-7.3c1-2.1,2.5-3.8,4.4-4.9c1.9-1.2,4.1-1.8,6.6-1.8c2,0,4,0.5,5.8,1.4c1.8,0.9,3.3,2.4,4.5,4.3
				c1.1,2,1.7,4.6,1.7,7.9v1.9h-19.2c0.1,2.6,0.8,4.6,2.2,6c1.4,1.4,3.2,2.1,5.5,2.1c1.5,0,2.8-0.3,3.9-1c1.1-0.6,1.9-1.6,2.3-2.9
				l5,0.9c-0.6,2.2-1.9,4-3.9,5.3C478.5,649.8,476,650.5,473.1,650.5z M465.5,634.1h14c0-2.1-0.6-3.8-1.9-5.1c-1.2-1.4-2.9-2-4.9-2
				c-1.4,0-2.7,0.3-3.7,1c-1.1,0.7-1.9,1.5-2.5,2.6C465.9,631.7,465.6,632.8,465.5,634.1z"/>
			<path class="st0" d="M506.1,650.5c-2.6,0-4.9-0.6-6.7-1.8c-1.9-1.2-3.3-2.8-4.3-4.9c-1-2.1-1.5-4.5-1.5-7.2
				c0-2.8,0.5-5.2,1.5-7.3c1-2.1,2.5-3.7,4.4-4.9c1.9-1.2,4.1-1.8,6.6-1.8c2.1,0,3.9,0.4,5.5,1.1c1.6,0.8,2.9,1.8,3.9,3.2
				s1.6,2.9,1.8,4.8h-5.1c-0.3-1.3-0.9-2.4-1.9-3.3c-1-0.9-2.3-1.4-4-1.4c-2.2,0-4,0.8-5.3,2.5c-1.3,1.7-2,4-2,6.9
				c0,2.9,0.7,5.3,2,7c1.3,1.7,3.1,2.6,5.3,2.6c1.5,0,2.8-0.4,3.8-1.2c1.1-0.8,1.8-2,2.1-3.4h5.1c-0.2,1.7-0.8,3.3-1.7,4.7
				c-0.9,1.4-2.2,2.4-3.8,3.2C510.1,650.1,508.3,650.5,506.1,650.5z"/>
			<path class="st0" d="M539.7,623v4.2h-5.5V642c0,1.5,0.3,2.5,1,2.9c0.6,0.4,1.4,0.7,2.3,0.7c0.4,0,0.8,0,1.1-0.1
				c0.3-0.1,0.6-0.1,0.7-0.1l0.9,4.3c-0.3,0.1-0.7,0.2-1.3,0.4c-0.6,0.1-1.3,0.2-2.1,0.2c-1.4,0-2.7-0.2-3.9-0.7
				c-1.2-0.5-2.2-1.3-2.9-2.4c-0.7-1.1-1.1-2.4-1.1-4.1v-15.9h-4V623h4v-6.5h5.3v6.5H539.7z"/>
			<path class="st0" d="M552.4,618.8c-0.9,0-1.7-0.3-2.3-0.9c-0.7-0.6-1-1.4-1-2.2c0-0.9,0.3-1.6,1-2.2c0.6-0.6,1.4-0.9,2.3-0.9
				c0.9,0,1.7,0.3,2.3,0.9c0.7,0.6,1,1.4,1,2.2c0,0.9-0.3,1.6-1,2.2C554.1,618.5,553.3,618.8,552.4,618.8z M549.8,650v-27h5.3v27
				H549.8z"/>
			<path class="st0" d="M571.6,633.9v16h-5.3v-27h5v4.4h0.3c0.6-1.4,1.6-2.6,2.9-3.4c1.3-0.9,3-1.3,5-1.3c2.8,0,5,0.9,6.7,2.6
				c1.7,1.7,2.5,4.3,2.5,7.6V650h-5.3v-16.5c0-2-0.5-3.5-1.5-4.6c-1-1.1-2.4-1.7-4.2-1.7c-1.8,0-3.3,0.6-4.5,1.8
				C572.2,630.1,571.6,631.8,571.6,633.9z"/>
			<path class="st0" d="M611.4,660.6c-3.2,0-5.8-0.6-7.6-1.8c-1.9-1.2-3.1-2.6-3.9-4.3l4.5-1.9c0.3,0.5,0.7,1.1,1.3,1.6
				c0.5,0.6,1.3,1.1,2.2,1.5c0.9,0.4,2.1,0.6,3.6,0.6c2,0,3.6-0.5,4.9-1.4c1.3-1,1.9-2.5,1.9-4.6V645H618c-0.3,0.6-0.8,1.2-1.4,1.9
				c-0.6,0.7-1.4,1.3-2.4,1.8c-1,0.5-2.4,0.8-4,0.8c-2.1,0-4-0.5-5.7-1.5c-1.7-1-3.1-2.5-4-4.4c-1-2-1.5-4.4-1.5-7.2
				c0-2.9,0.5-5.3,1.5-7.4c1-2,2.3-3.6,4-4.7c1.7-1.1,3.6-1.6,5.8-1.6c1.7,0,3,0.3,4.1,0.8c1,0.6,1.8,1.2,2.4,1.9
				c0.6,0.7,1,1.4,1.3,2h0.4V623h5.1v27.6c0,2.3-0.5,4.2-1.6,5.7c-1.1,1.5-2.5,2.6-4.4,3.3C615.8,660.3,613.7,660.6,611.4,660.6z
				 M611.4,645.2c2.3,0,4-0.8,5.2-2.4c1.2-1.6,1.8-3.8,1.8-6.5c0-2.7-0.6-4.9-1.8-6.6c-1.2-1.7-2.9-2.6-5.2-2.6
				c-1.6,0-2.9,0.4-4,1.2s-1.8,1.9-2.4,3.3c-0.5,1.4-0.8,2.9-0.8,4.7c0,2.6,0.6,4.8,1.8,6.4C607.3,644.4,609,645.2,611.4,645.2z"/>
			<path class="st0" d="M672.9,660.1c-0.8,0-1.5-0.1-2.1-0.2c-0.6-0.1-1.1-0.3-1.4-0.4l1.3-4.3c1.4,0.4,2.6,0.4,3.6,0.1
				c1-0.3,1.8-1.4,2.5-3.2l0.7-1.8l-9.9-27.3h5.6l6.8,20.9h0.3l6.8-20.9h5.6l-11.1,30.6c-0.8,2.1-1.9,3.7-3.3,4.8
				C676.9,659.5,675.1,660.1,672.9,660.1z"/>
			<path class="st0" d="M712.3,650.5c-2.5,0-4.7-0.6-6.6-1.7c-1.9-1.2-3.3-2.8-4.4-4.9s-1.6-4.5-1.6-7.3c0-2.8,0.5-5.2,1.6-7.3
				s2.5-3.7,4.4-4.9c1.9-1.2,4.1-1.7,6.6-1.7c2.5,0,4.7,0.6,6.6,1.7c1.9,1.2,3.3,2.8,4.4,4.9c1,2.1,1.6,4.5,1.6,7.3
				c0,2.8-0.5,5.2-1.6,7.3c-1,2.1-2.5,3.7-4.4,4.9C717,649.9,714.8,650.5,712.3,650.5z M712.3,646.1c1.6,0,3-0.4,4.1-1.3
				c1.1-0.9,1.9-2,2.4-3.5c0.5-1.4,0.8-3,0.8-4.8c0-1.7-0.3-3.3-0.8-4.8c-0.5-1.5-1.3-2.6-2.4-3.5c-1.1-0.9-2.4-1.3-4.1-1.3
				s-3,0.4-4.1,1.3c-1.1,0.9-1.9,2-2.4,3.5c-0.5,1.5-0.8,3-0.8,4.8c0,1.7,0.3,3.3,0.8,4.8c0.5,1.4,1.3,2.6,2.4,3.5
				C709.3,645.7,710.7,646.1,712.3,646.1z"/>
			<path class="st0" d="M752.1,638.8V623h5.3v27h-5.2v-4.7h-0.3c-0.6,1.4-1.6,2.6-3,3.6c-1.4,1-3.1,1.4-5.1,1.4
				c-2.6,0-4.7-0.9-6.4-2.6c-1.7-1.7-2.5-4.2-2.5-7.6V623h5.3v16.5c0,1.8,0.5,3.3,1.5,4.4c1,1.1,2.3,1.6,4,1.6c1,0,2-0.2,2.9-0.7
				c1-0.5,1.8-1.2,2.4-2.2C751.8,641.5,752.1,640.3,752.1,638.8z"/>
			<path class="st0" d="M768.6,650v-27h5.1v4.3h0.3c0.5-1.5,1.4-2.6,2.6-3.4c1.2-0.8,2.7-1.3,4.2-1.3c0.3,0,0.7,0,1.2,0
				c0.4,0,0.8,0.1,1.1,0.1v5c-0.2-0.1-0.6-0.1-1.1-0.2c-0.5-0.1-1.1-0.1-1.6-0.1c-1.9,0-3.4,0.6-4.6,1.7c-1.2,1.1-1.8,2.6-1.8,4.4
				V650H768.6z"/>
			<path class="st0" d="M837.9,660.6c-3.2,0-5.8-0.6-7.6-1.8c-1.9-1.2-3.1-2.6-3.9-4.3l4.5-1.9c0.3,0.5,0.7,1.1,1.3,1.6
				c0.5,0.6,1.3,1.1,2.2,1.5c0.9,0.4,2.1,0.6,3.6,0.6c2,0,3.6-0.5,4.9-1.4c1.3-1,1.9-2.5,1.9-4.6V645h-0.3c-0.3,0.6-0.8,1.2-1.4,1.9
				c-0.6,0.7-1.4,1.3-2.4,1.8c-1,0.5-2.4,0.8-4,0.8c-2.1,0-4-0.5-5.7-1.5c-1.7-1-3.1-2.5-4-4.4c-1-2-1.5-4.4-1.5-7.2
				c0-2.9,0.5-5.3,1.5-7.4c1-2,2.3-3.6,4-4.7c1.7-1.1,3.6-1.6,5.8-1.6c1.7,0,3,0.3,4.1,0.8c1,0.6,1.8,1.2,2.4,1.9
				c0.6,0.7,1,1.4,1.3,2h0.4V623h5.1v27.6c0,2.3-0.5,4.2-1.6,5.7s-2.5,2.6-4.4,3.3C842.3,660.3,840.2,660.6,837.9,660.6z
				 M837.9,645.2c2.3,0,4-0.8,5.2-2.4c1.2-1.6,1.8-3.8,1.8-6.5c0-2.7-0.6-4.9-1.8-6.6c-1.2-1.7-2.9-2.6-5.2-2.6
				c-1.6,0-2.9,0.4-4,1.2s-1.8,1.9-2.4,3.3c-0.5,1.4-0.8,2.9-0.8,4.7c0,2.6,0.6,4.8,1.8,6.4C833.8,644.4,835.5,645.2,837.9,645.2z"
				/>
			<path class="st0" d="M872.8,650.5c-2.5,0-4.7-0.6-6.6-1.7c-1.9-1.2-3.3-2.8-4.4-4.9c-1-2.1-1.6-4.5-1.6-7.3
				c0-2.8,0.5-5.2,1.6-7.3c1-2.1,2.5-3.7,4.4-4.9c1.9-1.2,4.1-1.7,6.6-1.7c2.5,0,4.7,0.6,6.6,1.7c1.9,1.2,3.3,2.8,4.4,4.9
				c1,2.1,1.6,4.5,1.6,7.3c0,2.8-0.5,5.2-1.6,7.3c-1,2.1-2.5,3.7-4.4,4.9C877.5,649.9,875.3,650.5,872.8,650.5z M872.8,646.1
				c1.6,0,3-0.4,4.1-1.3c1.1-0.9,1.9-2,2.4-3.5s0.8-3,0.8-4.8c0-1.7-0.3-3.3-0.8-4.8c-0.5-1.5-1.3-2.6-2.4-3.5
				c-1.1-0.9-2.4-1.3-4.1-1.3s-3,0.4-4.1,1.3c-1.1,0.9-1.9,2-2.4,3.5c-0.5,1.5-0.8,3-0.8,4.8c0,1.7,0.3,3.3,0.8,4.8
				c0.5,1.4,1.3,2.6,2.4,3.5C869.8,645.7,871.1,646.1,872.8,646.1z"/>
			<path class="st0" d="M903.3,650.5c-1.7,0-3.3-0.3-4.6-0.9c-1.4-0.6-2.5-1.6-3.3-2.8c-0.8-1.2-1.2-2.7-1.2-4.5
				c0-1.5,0.3-2.8,0.9-3.8c0.6-1,1.4-1.8,2.4-2.3c1-0.6,2.1-1,3.3-1.3c1.2-0.3,2.5-0.5,3.8-0.7c1.6-0.2,2.9-0.3,3.9-0.5
				c1-0.1,1.7-0.3,2.2-0.6c0.5-0.3,0.7-0.7,0.7-1.4v-0.1c0-1.5-0.4-2.7-1.3-3.6s-2.1-1.3-3.8-1.3c-1.8,0-3.2,0.4-4.2,1.2
				c-1,0.8-1.7,1.6-2.1,2.6l-4.9-1.1c0.9-2.5,2.3-4.2,4.4-5.3c2.1-1.1,4.3-1.6,6.7-1.6c1.1,0,2.2,0.1,3.4,0.4
				c1.2,0.3,2.3,0.7,3.4,1.4c1.1,0.7,1.9,1.6,2.6,2.9c0.7,1.2,1,2.8,1,4.8V650h-5.1v-3.7h-0.2c-0.5,1-1.4,2-2.7,2.9
				C907.3,650.1,905.5,650.5,903.3,650.5z M904.4,646.3c1.5,0,2.7-0.3,3.7-0.9c1-0.6,1.8-1.3,2.4-2.3c0.5-0.9,0.8-1.9,0.8-3v-3.5
				c-0.2,0.2-0.8,0.5-1.6,0.7c-0.8,0.2-1.7,0.3-2.6,0.5c-0.9,0.1-1.7,0.2-2.3,0.3c-1.5,0.2-2.8,0.6-3.9,1.2c-1.1,0.6-1.6,1.6-1.6,3
				c0,1.3,0.5,2.3,1.4,2.9C901.7,646,902.9,646.3,904.4,646.3z"/>
			<path class="st0" d="M933.1,614v36h-5.3v-36H933.1z"/>
			<path class="st0" d="M964.6,629.6l-4.8,0.8c-0.3-0.9-0.9-1.7-1.7-2.5c-0.8-0.8-2.1-1.1-3.7-1.1c-1.5,0-2.7,0.3-3.7,1
				c-1,0.7-1.5,1.5-1.5,2.6c0,0.9,0.3,1.6,1,2.2c0.7,0.5,1.8,1,3.2,1.3l4.3,1c4.9,1.1,7.4,3.6,7.4,7.3c0,1.6-0.5,3.1-1.4,4.3
				c-0.9,1.3-2.2,2.2-3.9,2.9c-1.7,0.7-3.6,1.1-5.7,1.1c-3,0-5.5-0.6-7.4-1.9c-1.9-1.3-3.1-3.1-3.5-5.5l5.1-0.8c0.6,2.7,2.6,4,5.8,4
				c1.7,0,3.1-0.4,4.1-1.1c1-0.7,1.5-1.6,1.5-2.6c0-1.7-1.3-2.9-3.8-3.4l-4.6-1c-2.5-0.6-4.4-1.5-5.6-2.7c-1.2-1.3-1.8-2.9-1.8-4.8
				c0-1.6,0.4-3,1.3-4.2c0.9-1.2,2.1-2.1,3.7-2.8c1.6-0.7,3.4-1,5.4-1c2.9,0,5.2,0.6,6.9,1.9C963,625.8,964.1,627.5,964.6,629.6z"/>
		</g>
	</g>
</g>
</svg>
