<svg width="284" height="485" viewBox="0 0 284 485" fill="none" xmlns="http://www.w3.org/2000/svg">
<path d="M284 223.569V223.664C283.905 234.076 275.48 242.405 265.067 242.405H163.111C152.697 242.405 144.177 250.924 144.177 261.336C144.177 262.472 144.651 265.311 144.745 265.69C154.78 308.189 191.984 340.087 236.856 342.169H236.951C239.601 342.264 241.779 344.346 241.873 346.997V480.267C241.779 482.918 239.696 485 237.045 485H236.477C236.477 485 236.477 485 236.383 485C112.653 482.35 11.7387 386.845 0.378661 265.311C0.189328 264.081 0 262.756 0 261.431V261.336C0.0946667 250.924 8.52 242.595 18.9333 242.595H120.889C131.303 242.595 139.823 234.076 139.823 223.664C139.823 222.528 139.349 219.783 139.349 219.499C129.409 177 92.3 144.913 47.2387 142.736H46.7653C46.6707 142.736 46.6707 142.736 46.6707 142.736C46.576 142.736 46.576 142.736 46.576 142.736C44.304 142.547 42.4107 140.559 42.1267 138.287C42.1267 138.193 42.1267 138.193 42.1267 138.098V5.01661C42.1267 2.27168 44.304 0.0946526 46.9547 0H47.6173C112.464 1.41979 170.968 28.3011 213.663 70.9895C252.476 109.797 278.225 161.761 283.621 219.783C283.905 221.014 284 222.244 284 223.569Z" fill="white" fill-opacity="0.05"/>
</svg>
