<?xml version="1.0" encoding="utf-8"?>
<!-- Generator: Adobe Illustrator 27.8.1, SVG Export Plug-In . SVG Version: 6.00 Build 0)  -->
<svg version="1.1" id="Слой_1" xmlns="http://www.w3.org/2000/svg" xmlns:xlink="http://www.w3.org/1999/xlink" x="0px" y="0px"
	 viewBox="0 0 1080 1080" style="enable-background:new 0 0 1080 1080;" xml:space="preserve">
<style type="text/css">
	.st0{fill:#0963E7;}
</style>
<g>
	<path class="st0" d="M584.9,399.8L584.9,399.8c-0.1,5-4,8.9-8.9,8.9h-48.1c-4.9,0-8.9,4-8.9,8.9c0,0.5,0.2,1.9,0.3,2.1
		c4.8,20,22.2,35.1,43.4,36.1h0.1c1.2,0.1,2.3,1,2.3,2.3v62.9c-0.1,1.2-1,2.2-2.3,2.2h-0.3c0,0,0,0-0.1,0
		c-58.4-1.3-105.9-46.3-111.3-103.6c-0.1-0.6-0.2-1.2-0.2-1.8v-0.1c0.1-4.9,4-8.9,8.9-8.9H508c4.9,0,8.9-4,8.9-8.9
		c0-0.5-0.2-1.8-0.2-1.9c-4.7-20-22.2-35.2-43.4-36.2h-0.2c-0.1,0-0.1,0-0.1,0c-0.1,0-0.1,0-0.1,0c-1.1-0.1-1.9-1-2.1-2.1
		c0-0.1,0-0.1,0-0.1v-62.7c0-1.3,1-2.3,2.3-2.4h0.3c30.6,0.6,58.2,13.3,78.3,33.5c18.3,18.3,30.5,42.8,33,70.1
		C584.8,398.5,584.9,399.1,584.9,399.8z"/>
	<g>
		<g>
			<path class="st0" d="M371.9,705.1c0-0.1-0.1-0.1-0.1-0.2l-22.1-40.5c-0.1-0.1-0.2-0.5-0.2-0.7c0-0.5,0.2-0.8,0.5-1.1
				c0.1-0.1,0.2-0.1,0.4-0.2c5.8-3.1,10.3-7.3,13.7-12.7c3.6-5.8,5.5-12.9,5.5-21.2c0-8.6-1.9-15.9-5.6-22
				c-3.7-6.2-9-10.9-15.7-14.1c-6.7-3.3-14.5-4.9-23.5-4.9h-50.7c-0.7,0-1.4,0.7-1.4,1.4v117.1c0,1.2,1,2.2,2.3,2.2h28.2
				c1.3,0,2.2-1,2.2-2.2v-36.2c0-0.8,0.7-1.4,1.4-1.4h10l20.5,38.4c0.4,0.8,1.1,1.4,2.1,1.4h30.5c1.2,0,2.2-1,2.2-2.2
				C372.1,705.6,372,705.3,371.9,705.1z M330.5,639.5c-3.3,2.2-7.7,3.3-13.5,3.3h-10.2c-0.7,0-1.4-0.6-1.4-1.4V615
				c0-0.8,0.7-1.4,1.4-1.4h10.2c5.7,0,10.2,1.1,13.5,3.5c3.3,2.4,4.9,6.2,4.9,11.3C335.4,633.6,333.8,637.3,330.5,639.5z"/>
			<path class="st0" d="M409.5,671.2H468c1.3,0,2.4-1.1,2.4-2.4v-5.6c0-10.2-1.9-19-5.9-26.3c-3.9-7.3-9.5-13-16.6-16.9
				c-7.1-3.9-15.5-5.9-25.2-5.9c-9.8,0-18.5,2-25.8,6.1c-7.3,4.2-12.9,9.9-16.9,17.3c-4,7.4-6,16-6,25.9c0,15.5,4.4,27.6,13.2,36.4
				c8.8,8.7,20.9,13,36.2,13c13.3,0,24.1-2.9,32.2-8.8c7.2-5.2,11.9-12.1,14-20.4c0.1-0.3,0.2-0.7,0.3-1.1v-0.1
				c-0.1-1.2-1-2.1-2.1-2.2h-27.9c-0.6,0-1.1,0.4-1.3,0.9c-1,2.3-2.7,4.1-5,5.4c-2.6,1.5-5.8,2.2-9.3,2.2c-5.1,0-9.1-1.5-11.9-4.5
				c-2.9-3.1-4.3-6.8-4.3-11.5C408,671.8,408.7,671.2,409.5,671.2z M408.2,650.2c0.4-3.3,2-5.9,4.5-8.1c3-2.6,6.6-3.9,10.8-3.9
				c4.3,0,7.9,1.3,10.8,3.9c2.4,2.2,3.8,4.9,4.2,8.1c0.1,0.2,0.1,0.4,0.1,0.6c0,0.8-0.6,1.5-1.5,1.5h-27.6c-0.8,0-1.5-0.6-1.5-1.5
				C408.1,650.6,408.2,650.4,408.2,650.2z"/>
			<path class="st0" d="M573.8,705.9c0,1.2-1,2.2-2.2,2.2h-31.9c-0.9,0-1.7-0.6-2.1-1.4L521,678.2c-0.1-0.1-0.1-0.3-0.2-0.4
				c-0.2-0.2-0.6-0.4-1-0.4c-0.4,0-0.7,0.2-1,0.4c-0.1,0.1-0.2,0.3-0.3,0.4l-3,3.8c-0.3,0.2-0.4,0.6-0.4,1v23c0,1.2-1,2.2-2.2,2.2
				h-28.1c-1.2,0-2.2-1-2.2-2.2V588.9c0-0.7,0.6-1.4,1.4-1.4h28.9c1.3,0,2.2,1,2.2,2.2v55.8c0,0.7,0.6,1.4,1.4,1.4
				c0.4,0,0.7-0.2,1-0.4l0.3-0.4l19.9-27.5c0.1-0.2,0.2-0.3,0.3-0.4c0.2-0.3,0.6-0.4,1-0.4h31.3c1.2,0,2.2,1,2.2,2.2
				c0,0.3-0.1,0.6-0.2,0.9c-0.1,0.2-0.3,0.5-0.5,0.7l-27.1,34.9l-0.3,0.4c-0.1,0.2-0.1,0.4-0.1,0.5c0,0.2,0.1,0.4,0.1,0.5v0.1
				c0.1,0.1,0.1,0.2,0.3,0.4v0.1l28.7,46.1c0.2,0.2,0.3,0.4,0.4,0.5C573.7,705.3,573.8,705.6,573.8,705.9z"/>
			<path class="st0" d="M641.7,705c0,0.9-0.5,1.7-1.3,2.1c-1.2,0.4-2.7,0.7-4.5,1.1c-2.7,0.6-5.9,1-9.5,1.2
				c-11.2,0.7-19.7-1.4-25.5-6.1c-5.7-4.6-8.6-11.8-8.4-21.2v-39.5c0-0.8-0.6-1.4-1.4-1.4h-8.7c-0.8,0-1.4-0.6-1.4-1.4V619
				c0-0.8,0.6-1.4,1.4-1.4h7.9c1.2,0,2.2-1,2.2-2.2v-17.2c0-1.2,1-2.2,2.2-2.2h28.1c1.3,0,2.2,1,2.2,2.2v17.2c0,1.2,1,2.2,2.2,2.2
				h11.1c1.3,0,2.2,1,2.2,2.2v20c0,0.8-0.6,1.4-1.4,1.4h-12.8c-0.7,0-1.4,0.6-1.4,1.4v36.4c0,3.7,2.1,5.6,6.2,5.6
				c1,0,2.1-0.1,3.4-0.4c0.5-0.1,0.9-0.1,1.3-0.2c0.2-0.1,0.4-0.1,0.5-0.1c0.5,0,1,0.4,1.2,0.8c0.1,0.2,0.1,0.4,0.1,0.5l3.9,18.7
				C641.7,704.4,641.7,704.7,641.7,705z"/>
			<path class="st0" d="M807.9,705c0,0.9-0.5,1.7-1.3,2.1c-1.2,0.4-2.7,0.7-4.5,1.1c-2.7,0.6-5.9,1-9.5,1.2
				c-11.2,0.7-19.7-1.4-25.5-6.1c-5.7-4.6-8.6-11.8-8.4-21.2v-39.5c0-0.8-0.6-1.4-1.4-1.4h-8.7c-0.8,0-1.4-0.6-1.4-1.4V619
				c0-0.8,0.6-1.4,1.4-1.4h7.9c1.2,0,2.2-1,2.2-2.2v-17.2c0-1.2,1-2.2,2.2-2.2h28.1c1.3,0,2.2,1,2.2,2.2v17.2c0,1.2,1,2.2,2.2,2.2
				h11.1c1.3,0,2.2,1,2.2,2.2v20c0,0.8-0.6,1.4-1.4,1.4h-12.8c-0.7,0-1.4,0.6-1.4,1.4v36.4c0,3.7,2.1,5.6,6.2,5.6
				c1,0,2.1-0.1,3.4-0.4c0.5-0.1,0.9-0.1,1.3-0.2c0.2-0.1,0.4-0.1,0.5-0.1c0.5,0,1,0.4,1.2,0.8c0.1,0.2,0.1,0.4,0.1,0.5l3.9,18.7
				C807.8,704.4,807.9,704.7,807.9,705z"/>
			<path class="st0" d="M740,619.9v86.1c0,1.2-1,2.2-2.2,2.2h-26.4c-1.1,0-2.1-0.8-2.2-1.9v-14.7c0-0.3-0.2-0.5-0.5-0.5
				c-0.3,0-0.6,0.2-0.6,0.5c-2,5.5-5.4,9.8-10.1,13c-4.9,3.3-10.7,4.8-17.5,4.8c-6.3,0-11.8-1.4-16.6-4.3c-4.7-2.9-8.4-6.9-11-12
				c-2.7-5.1-4-11-4-17.6v-55.5c0-1.2,1-2.2,2.2-2.2h28.1c1.2,0,2.2,1,2.2,2.2v48.7c0,4.5,1.1,8,3.4,10.6c2.2,2.5,5.4,3.8,9.5,3.8
				c4,0,7.2-1.3,9.7-3.8c2.4-2.6,3.6-6.1,3.5-10.6v-48.7c0-1.2,1-2.2,2.2-2.2h28.1C739,617.6,740,618.7,740,619.9z"/>
		</g>
		<g>
			<path class="st0" d="M282.6,777.2c-2.2,0-4.1-0.5-5.6-1.5c-1.6-1-2.8-2.4-3.6-4.1c-0.8-1.8-1.3-3.8-1.3-6c0-2.3,0.4-4.3,1.3-6.1
				c0.9-1.8,2.1-3.1,3.7-4.1c1.6-1,3.4-1.5,5.5-1.5c1.7,0,3.2,0.3,4.6,0.9c1.3,0.6,2.4,1.5,3.3,2.7c0.8,1.1,1.3,2.5,1.5,4h-4.3
				c-0.2-1.1-0.8-2-1.6-2.7c-0.8-0.8-2-1.1-3.4-1.1c-1.8,0-3.3,0.7-4.4,2.1c-1.1,1.4-1.7,3.3-1.7,5.8c0,2.5,0.6,4.4,1.7,5.9
				c1.1,1.4,2.6,2.2,4.5,2.2c1.3,0,2.3-0.3,3.2-1c0.9-0.7,1.5-1.6,1.7-2.9h4.3c-0.2,1.5-0.6,2.8-1.4,3.9c-0.8,1.1-1.9,2-3.2,2.7
				C286,776.9,284.4,777.2,282.6,777.2z"/>
			<path class="st0" d="M309.7,777.2c-2.1,0-4-0.5-5.5-1.5c-1.6-1-2.8-2.3-3.7-4.1s-1.3-3.8-1.3-6.1c0-2.3,0.4-4.4,1.3-6.1
				s2.1-3.1,3.7-4.1c1.6-1,3.4-1.5,5.5-1.5c2.1,0,4,0.5,5.5,1.5c1.6,1,2.8,2.3,3.7,4.1c0.9,1.8,1.3,3.8,1.3,6.1
				c0,2.3-0.4,4.4-1.3,6.1c-0.9,1.8-2.1,3.1-3.7,4.1C313.7,776.7,311.8,777.2,309.7,777.2z M309.7,773.5c1.4,0,2.5-0.4,3.4-1.1
				c0.9-0.7,1.6-1.7,2-2.9c0.4-1.2,0.7-2.5,0.7-4c0-1.4-0.2-2.8-0.7-4c-0.4-1.2-1.1-2.2-2-2.9c-0.9-0.7-2-1.1-3.4-1.1
				s-2.5,0.4-3.4,1.1c-0.9,0.7-1.6,1.7-2,2.9c-0.4,1.2-0.7,2.5-0.7,4c0,1.4,0.2,2.8,0.7,4c0.4,1.2,1.1,2.2,2,2.9
				C307.2,773.1,308.3,773.5,309.7,773.5z"/>
			<path class="st0" d="M333.1,763.3v13.4h-4.4v-22.6h4.2v3.7h0.3c0.5-1.2,1.3-2.2,2.4-2.9c1.1-0.7,2.5-1.1,4.2-1.1
				c2.3,0,4.2,0.7,5.6,2.2c1.4,1.4,2.1,3.6,2.1,6.4v14.4h-4.4v-13.8c0-1.6-0.4-2.9-1.3-3.8s-2-1.4-3.5-1.4c-1.5,0-2.8,0.5-3.8,1.5
				C333.6,760.1,333.1,761.5,333.1,763.3z"/>
			<path class="st0" d="M361.4,763.3v13.4H357v-22.6h4.2v3.7h0.3c0.5-1.2,1.3-2.2,2.4-2.9c1.1-0.7,2.5-1.1,4.2-1.1
				c2.3,0,4.2,0.7,5.6,2.2c1.4,1.4,2.1,3.6,2.1,6.4v14.4h-4.4v-13.8c0-1.6-0.4-2.9-1.3-3.8c-0.9-0.9-2-1.4-3.5-1.4
				c-1.5,0-2.8,0.5-3.8,1.5C361.9,760.1,361.4,761.5,361.4,763.3z"/>
			<path class="st0" d="M395,777.2c-2.2,0-4.1-0.5-5.7-1.4c-1.6-1-2.9-2.3-3.7-4.1c-0.9-1.7-1.3-3.8-1.3-6.1c0-2.3,0.4-4.4,1.3-6.1
				c0.9-1.8,2.1-3.1,3.6-4.1c1.6-1,3.4-1.5,5.5-1.5c1.7,0,3.3,0.4,4.8,1.1c1.5,0.8,2.8,2,3.7,3.6c1,1.7,1.4,3.9,1.4,6.6v1.6h-16.1
				c0.1,2.2,0.7,3.9,1.8,5c1.2,1.2,2.7,1.8,4.6,1.8c1.3,0,2.3-0.3,3.3-0.8c0.9-0.5,1.6-1.3,2-2.4l4.2,0.8c-0.5,1.8-1.6,3.3-3.2,4.4
				C399.6,776.6,397.5,777.2,395,777.2z M388.7,763.5h11.7c0-1.7-0.5-3.2-1.6-4.3c-1-1.1-2.4-1.7-4.1-1.7c-1.2,0-2.2,0.3-3.1,0.8
				c-0.9,0.6-1.6,1.3-2.1,2.2C389,761.4,388.7,762.4,388.7,763.5z"/>
			<path class="st0" d="M422.7,777.2c-2.2,0-4.1-0.5-5.6-1.5c-1.6-1-2.8-2.4-3.6-4.1c-0.8-1.8-1.3-3.8-1.3-6c0-2.3,0.4-4.3,1.3-6.1
				c0.9-1.8,2.1-3.1,3.7-4.1c1.6-1,3.4-1.5,5.5-1.5c1.7,0,3.2,0.3,4.6,0.9c1.3,0.6,2.4,1.5,3.3,2.7c0.8,1.1,1.3,2.5,1.5,4h-4.3
				c-0.2-1.1-0.8-2-1.6-2.7c-0.8-0.8-2-1.1-3.4-1.1c-1.8,0-3.3,0.7-4.4,2.1c-1.1,1.4-1.7,3.3-1.7,5.8c0,2.5,0.6,4.4,1.7,5.9
				c1.1,1.4,2.6,2.2,4.5,2.2c1.3,0,2.3-0.3,3.2-1c0.9-0.7,1.5-1.6,1.7-2.9h4.3c-0.2,1.5-0.6,2.8-1.4,3.9c-0.8,1.1-1.9,2-3.2,2.7
				C426,776.9,424.5,777.2,422.7,777.2z"/>
			<path class="st0" d="M450.8,754.2v3.5h-4.6v12.4c0,1.3,0.3,2.1,0.8,2.5c0.5,0.4,1.2,0.6,1.9,0.6c0.4,0,0.7,0,0.9-0.1
				c0.3,0,0.5-0.1,0.6-0.1l0.8,3.6c-0.3,0.1-0.6,0.2-1.1,0.3c-0.5,0.1-1.1,0.2-1.8,0.2c-1.2,0-2.2-0.2-3.2-0.6c-1-0.4-1.8-1.1-2.4-2
				c-0.6-0.9-0.9-2-0.9-3.4v-13.3h-3.3v-3.5h3.3v-5.4h4.4v5.4H450.8z"/>
			<path class="st0" d="M461.5,750.7c-0.8,0-1.4-0.3-2-0.8c-0.5-0.5-0.8-1.1-0.8-1.8c0-0.7,0.3-1.3,0.8-1.9c0.5-0.5,1.2-0.8,2-0.8
				c0.8,0,1.4,0.3,2,0.8c0.6,0.5,0.8,1.1,0.8,1.9c0,0.7-0.3,1.3-0.8,1.8C462.9,750.4,462.2,750.7,461.5,750.7z M459.2,776.7v-22.6
				h4.4v22.6H459.2z"/>
			<path class="st0" d="M477.5,763.3v13.4h-4.4v-22.6h4.2v3.7h0.3c0.5-1.2,1.3-2.2,2.4-2.9c1.1-0.7,2.5-1.1,4.2-1.1
				c2.3,0,4.2,0.7,5.6,2.2c1.4,1.4,2.1,3.6,2.1,6.4v14.4h-4.4v-13.8c0-1.6-0.4-2.9-1.3-3.8s-2-1.4-3.5-1.4c-1.5,0-2.8,0.5-3.8,1.5
				C478,760.1,477.5,761.5,477.5,763.3z"/>
			<path class="st0" d="M510.9,785.7c-2.7,0-4.8-0.5-6.4-1.5c-1.6-1-2.6-2.2-3.2-3.6l3.8-1.6c0.3,0.4,0.6,0.9,1.1,1.4
				c0.4,0.5,1.1,0.9,1.8,1.2c0.8,0.3,1.8,0.5,3,0.5c1.7,0,3-0.4,4.1-1.2c1.1-0.8,1.6-2.1,1.6-3.9v-4.4h-0.3c-0.3,0.5-0.6,1-1.1,1.6
				c-0.5,0.6-1.2,1.1-2,1.5c-0.9,0.4-2,0.6-3.4,0.6c-1.8,0-3.4-0.4-4.8-1.3c-1.4-0.8-2.6-2.1-3.4-3.7c-0.8-1.6-1.2-3.7-1.2-6.1
				c0-2.4,0.4-4.5,1.2-6.2c0.8-1.7,1.9-3,3.4-3.9c1.4-0.9,3.1-1.4,4.9-1.4c1.4,0,2.5,0.2,3.4,0.7c0.9,0.5,1.5,1,2,1.6
				c0.5,0.6,0.9,1.2,1.1,1.6h0.3v-3.7h4.3v23.1c0,1.9-0.5,3.5-1.4,4.8s-2.1,2.2-3.7,2.8C514.5,785.4,512.8,785.7,510.9,785.7z
				 M510.8,772.8c1.9,0,3.4-0.7,4.4-2c1-1.3,1.5-3.1,1.5-5.5c0-2.3-0.5-4.1-1.5-5.6c-1-1.4-2.5-2.1-4.4-2.1c-1.3,0-2.4,0.3-3.3,1
				c-0.9,0.7-1.5,1.6-2,2.8c-0.4,1.2-0.7,2.5-0.7,3.9c0,2.2,0.5,4,1.5,5.4C507.4,772.1,508.9,772.8,510.8,772.8z"/>
			<path class="st0" d="M562.4,785.2c-0.7,0-1.3-0.1-1.8-0.2c-0.5-0.1-0.9-0.2-1.2-0.3l1.1-3.6c1.2,0.3,2.2,0.4,3,0.1
				c0.8-0.3,1.5-1.2,2.1-2.7l0.5-1.5l-8.3-22.9h4.7l5.7,17.5h0.2l5.7-17.5h4.7l-9.3,25.6c-0.7,1.8-1.6,3.1-2.8,4.1
				C565.7,784.8,564.2,785.2,562.4,785.2z"/>
			<path class="st0" d="M595.3,777.2c-2.1,0-4-0.5-5.5-1.5c-1.6-1-2.8-2.3-3.7-4.1c-0.9-1.8-1.3-3.8-1.3-6.1c0-2.3,0.4-4.4,1.3-6.1
				c0.9-1.8,2.1-3.1,3.7-4.1c1.6-1,3.4-1.5,5.5-1.5c2.1,0,4,0.5,5.5,1.5c1.6,1,2.8,2.3,3.7,4.1c0.9,1.8,1.3,3.8,1.3,6.1
				c0,2.3-0.4,4.4-1.3,6.1c-0.9,1.8-2.1,3.1-3.7,4.1C599.3,776.7,597.5,777.2,595.3,777.2z M595.4,773.5c1.4,0,2.5-0.4,3.4-1.1
				c0.9-0.7,1.6-1.7,2-2.9c0.4-1.2,0.7-2.5,0.7-4c0-1.4-0.2-2.8-0.7-4c-0.4-1.2-1.1-2.2-2-2.9c-0.9-0.7-2-1.1-3.4-1.1
				s-2.5,0.4-3.4,1.1c-0.9,0.7-1.6,1.7-2,2.9c-0.4,1.2-0.7,2.5-0.7,4c0,1.4,0.2,2.8,0.7,4c0.4,1.2,1.1,2.2,2,2.9
				C592.8,773.1,594,773.5,595.4,773.5z"/>
			<path class="st0" d="M628.6,767.4v-13.2h4.4v22.6h-4.3v-3.9h-0.2c-0.5,1.2-1.3,2.2-2.5,3c-1.1,0.8-2.6,1.2-4.3,1.2
				c-2.2,0-3.9-0.7-5.3-2.2c-1.4-1.4-2.1-3.6-2.1-6.4v-14.4h4.4V768c0,1.5,0.4,2.8,1.3,3.7c0.9,0.9,2,1.4,3.3,1.4
				c0.8,0,1.6-0.2,2.5-0.6c0.8-0.4,1.5-1,2-1.9C628.4,769.7,628.6,768.7,628.6,767.4z"/>
			<path class="st0" d="M642.5,776.7v-22.6h4.3v3.6h0.2c0.4-1.2,1.1-2.2,2.2-2.9c1-0.7,2.2-1.1,3.6-1.1c0.3,0,0.6,0,1,0
				c0.4,0,0.7,0,0.9,0.1v4.2c-0.2,0-0.5-0.1-0.9-0.2c-0.4-0.1-0.9-0.1-1.4-0.1c-1.6,0-2.8,0.5-3.9,1.4c-1,1-1.5,2.2-1.5,3.7v13.8
				H642.5z"/>
			<path class="st0" d="M700.5,785.7c-2.7,0-4.8-0.5-6.4-1.5c-1.6-1-2.6-2.2-3.2-3.6l3.8-1.6c0.3,0.4,0.6,0.9,1.1,1.4
				c0.4,0.5,1.1,0.9,1.8,1.2c0.8,0.3,1.8,0.5,3,0.5c1.7,0,3-0.4,4.1-1.2c1.1-0.8,1.6-2.1,1.6-3.9v-4.4h-0.3c-0.3,0.5-0.6,1-1.1,1.6
				c-0.5,0.6-1.2,1.1-2,1.5c-0.9,0.4-2,0.6-3.4,0.6c-1.8,0-3.4-0.4-4.8-1.3s-2.6-2.1-3.4-3.7c-0.8-1.6-1.2-3.7-1.2-6.1
				c0-2.4,0.4-4.5,1.2-6.2c0.8-1.7,1.9-3,3.4-3.9c1.4-0.9,3.1-1.4,4.9-1.4c1.4,0,2.5,0.2,3.4,0.7c0.9,0.5,1.5,1,2,1.6
				c0.5,0.6,0.9,1.2,1.1,1.6h0.3v-3.7h4.3v23.1c0,1.9-0.5,3.5-1.4,4.8c-0.9,1.3-2.1,2.2-3.7,2.8
				C704.2,785.4,702.5,785.7,700.5,785.7z M700.5,772.8c1.9,0,3.4-0.7,4.4-2c1-1.3,1.5-3.1,1.5-5.5c0-2.3-0.5-4.1-1.5-5.6
				c-1-1.4-2.5-2.1-4.4-2.1c-1.3,0-2.4,0.3-3.3,1c-0.9,0.7-1.5,1.6-2,2.8c-0.4,1.2-0.7,2.5-0.7,3.9c0,2.2,0.5,4,1.5,5.4
				C697,772.1,698.5,772.8,700.5,772.8z"/>
			<path class="st0" d="M729.7,777.2c-2.1,0-4-0.5-5.5-1.5c-1.6-1-2.8-2.3-3.7-4.1s-1.3-3.8-1.3-6.1c0-2.3,0.4-4.4,1.3-6.1
				s2.1-3.1,3.7-4.1c1.6-1,3.4-1.5,5.5-1.5c2.1,0,4,0.5,5.5,1.5c1.6,1,2.8,2.3,3.7,4.1c0.9,1.8,1.3,3.8,1.3,6.1
				c0,2.3-0.4,4.4-1.3,6.1c-0.9,1.8-2.1,3.1-3.7,4.1C733.7,776.7,731.8,777.2,729.7,777.2z M729.7,773.5c1.4,0,2.5-0.4,3.4-1.1
				c0.9-0.7,1.6-1.7,2-2.9c0.4-1.2,0.7-2.5,0.7-4c0-1.4-0.2-2.8-0.7-4c-0.4-1.2-1.1-2.2-2-2.9c-0.9-0.7-2-1.1-3.4-1.1
				s-2.5,0.4-3.4,1.1c-0.9,0.7-1.6,1.7-2,2.9c-0.4,1.2-0.7,2.5-0.7,4c0,1.4,0.2,2.8,0.7,4c0.4,1.2,1.1,2.2,2,2.9
				C727.2,773.1,728.3,773.5,729.7,773.5z"/>
			<path class="st0" d="M755.3,777.2c-1.4,0-2.7-0.3-3.9-0.8c-1.1-0.5-2.1-1.3-2.7-2.3c-0.7-1-1-2.3-1-3.8c0-1.3,0.2-2.3,0.7-3.2
				c0.5-0.8,1.2-1.5,2-2c0.8-0.5,1.8-0.8,2.8-1.1c1-0.2,2.1-0.4,3.1-0.6c1.4-0.2,2.4-0.3,3.3-0.4c0.8-0.1,1.5-0.3,1.8-0.5
				c0.4-0.2,0.6-0.6,0.6-1.1v-0.1c0-1.3-0.4-2.3-1.1-3c-0.7-0.7-1.8-1.1-3.2-1.1c-1.5,0-2.6,0.3-3.5,1c-0.8,0.6-1.4,1.4-1.8,2.2
				l-4.1-0.9c0.7-2.1,2-3.5,3.7-4.4c1.7-0.9,3.6-1.3,5.6-1.3c0.9,0,1.9,0.1,2.9,0.3c1,0.2,2,0.6,2.9,1.2c0.9,0.6,1.6,1.4,2.2,2.4
				c0.6,1,0.8,2.4,0.8,4v15h-4.3v-3.1h-0.2c-0.4,0.8-1.2,1.7-2.2,2.4C758.6,776.9,757.1,777.2,755.3,777.2z M756.2,773.7
				c1.2,0,2.3-0.2,3.1-0.7c0.9-0.5,1.5-1.1,2-1.9c0.5-0.8,0.7-1.6,0.7-2.5v-2.9c-0.2,0.2-0.7,0.4-1.4,0.5c-0.7,0.2-1.4,0.3-2.2,0.4
				c-0.8,0.1-1.4,0.2-1.9,0.3c-1.3,0.2-2.4,0.5-3.3,1c-0.9,0.5-1.4,1.3-1.4,2.5c0,1.1,0.4,1.9,1.2,2.5
				C754,773.4,755,773.7,756.2,773.7z"/>
			<path class="st0" d="M780.2,746.6v30.1h-4.4v-30.1H780.2z"/>
			<path class="st0" d="M806.6,759.7l-4,0.7c-0.3-0.8-0.7-1.5-1.4-2.1c-0.7-0.6-1.7-0.9-3.1-0.9c-1.2,0-2.3,0.3-3.1,0.8
				c-0.8,0.6-1.3,1.3-1.2,2.1c0,0.8,0.3,1.4,0.8,1.8c0.6,0.5,1.5,0.8,2.7,1.1l3.6,0.8c4.1,0.9,6.2,3,6.2,6.1c0,1.4-0.4,2.6-1.2,3.6
				c-0.8,1-1.9,1.9-3.3,2.5c-1.4,0.6-3,0.9-4.8,0.9c-2.5,0-4.6-0.5-6.2-1.6c-1.6-1.1-2.6-2.6-2.9-4.6l4.2-0.6
				c0.5,2.2,2.1,3.4,4.9,3.4c1.4,0,2.6-0.3,3.5-0.9c0.9-0.6,1.3-1.3,1.3-2.2c0-1.4-1.1-2.4-3.2-2.9l-3.8-0.8
				c-2.1-0.5-3.7-1.2-4.7-2.3c-1-1.1-1.5-2.4-1.5-4c0-1.3,0.4-2.5,1.1-3.5c0.7-1,1.8-1.8,3.1-2.3c1.3-0.6,2.8-0.8,4.5-0.8
				c2.4,0,4.4,0.5,5.8,1.6C805.3,756.5,806.2,757.9,806.6,759.7z"/>
		</g>
	</g>
</g>
</svg>
