<svg width="300" height="513" viewBox="0 0 300 513" fill="none" xmlns="http://www.w3.org/2000/svg">
<path d="M300 236.2V236.3C299.9 247.3 291 256.1 280 256.1H172.3C161.3 256.1 152.3 265.1 152.3 276.1C152.3 277.3 152.8 280.3 152.9 280.7C163.5 325.6 202.8 359.3 250.2 361.5H250.3C253.1 361.6 255.4 363.8 255.5 366.6V507.4C255.4 510.2 253.2 512.4 250.4 512.4H249.8C249.8 512.4 249.8 512.4 249.7 512.4C119 509.6 12.4 408.7 0.399994 280.3C0.199994 279 0 277.6 0 276.2V276.1C0.1 265.1 9 256.3 20 256.3H127.7C138.7 256.3 147.7 247.3 147.7 236.3C147.7 235.1 147.2 232.2 147.2 231.9C136.7 187 97.5 153.1 49.9 150.8H49.4C49.3 150.8 49.3 150.8 49.3 150.8C49.2 150.8 49.2 150.8 49.2 150.8C46.8 150.6 44.8 148.5 44.5 146.1C44.5 146 44.5 146 44.5 145.9V5.30002C44.5 2.40002 46.8 0.1 49.6 0H50.3C118.8 1.5 180.6 29.9 225.7 75C266.7 116 293.9 170.9 299.6 232.2C299.9 233.5 300 234.8 300 236.2Z" fill="#0963E7"/>
</svg>
