<svg width="18" height="18" viewBox="0 0 18 18" fill="none" xmlns="http://www.w3.org/2000/svg">
<path d="M1.71777 5.83498V13.1325C1.71777 14.5575 2.73027 15.1425 3.96027 14.4375L5.72277 13.4325C6.10527 13.215 6.74277 13.1925 7.14027 13.395L11.0778 15.3675C11.4753 15.5625 12.1128 15.5475 12.4953 15.33L15.7428 13.47C16.1553 13.23 16.5003 12.645 16.5003 12.165V4.86748C16.5003 3.44248 15.4878 2.85748 14.2578 3.56248L12.4953 4.56748C12.1128 4.78498 11.4753 4.80748 11.0778 4.60498L7.14027 2.63998C6.74277 2.44498 6.10527 2.45998 5.72277 2.67748L2.47527 4.53748C2.05527 4.77748 1.71777 5.36248 1.71777 5.83498Z" stroke="#0963E7" stroke-width="2" stroke-linecap="round" stroke-linejoin="round"/>
<path d="M6.41992 3V12.75" stroke="#0963E7" stroke-width="2" stroke-linecap="round" stroke-linejoin="round"/>
<path d="M11.7979 4.96484V14.9998" stroke="#0963E7" stroke-width="2" stroke-linecap="round" stroke-linejoin="round"/>
</svg>
