<svg width="24" height="25" viewBox="0 0 24 25" fill="none" xmlns="http://www.w3.org/2000/svg">
<path d="M19.0003 7.5C19.0003 7.7 19.0003 7.8 19.0003 8C18.9003 9.5 18.2003 10.8 17.3003 11.7C16.2003 12.8 14.7003 13.5 13.0003 13.5H9.90031C9.40031 13.5 9.00031 13.9 8.90031 14.4L8.10031 19.7C8.00031 20.1 7.80031 20.4 7.40031 20.5C7.30031 20.5 7.20031 20.5 7.10031 20.5H5.20031C4.60031 20.5 4.10031 20 4.20031 19.3L6.60031 5C6.80031 3.6 8.10031 2.5 9.50031 2.5H14.0003C16.8003 2.5 19.0003 4.7 19.0003 7.5Z" stroke="#0863E7" stroke-width="1.5" stroke-miterlimit="10"/>
<path d="M21.0003 11.5C21.0003 12.9 20.4003 14.1 19.5003 15C18.6003 15.9 17.4003 16.5 16.0003 16.5H13.9003C13.4003 16.5 13.0003 16.8 12.9003 17.3L12.2003 21.6C12.1003 22.1 11.7003 22.4 11.2003 22.4H8.20031C7.60031 22.4 7.10031 21.8 7.20031 21.2L7.40031 20.5C7.80031 20.4 8.10031 20.1 8.10031 19.7L8.90031 14.4C9.00031 13.9 9.40031 13.5 9.90031 13.5H13.0003C14.7003 13.5 16.2003 12.8 17.2003 11.7C18.2003 10.7 18.8003 9.4 18.9003 8C20.2003 8.7 21.0003 10 21.0003 11.5Z" stroke="#0863E7" stroke-width="1.5" stroke-miterlimit="10"/>
</svg>
