<svg width="52" height="61" viewBox="0 0 52 61" fill="none" xmlns="http://www.w3.org/2000/svg">
<path fill-rule="evenodd" clip-rule="evenodd" d="M3.27258 3.97807C5.91265 1.15609 10.0635 0.500244 15.3415 0.500244H36.4367C41.7137 0.500244 45.8663 1.15572 48.5033 3.97942C51.094 6.75349 51.6858 11.0701 51.6721 16.6595C51.6721 16.6588 51.6721 16.6603 51.6721 16.6595V48.104C51.6721 50.1267 51.3996 51.918 50.8087 53.374C50.215 54.8366 49.2338 56.1023 47.7648 56.7363C46.2806 57.3769 44.6912 57.2039 43.2414 56.5787C41.8118 55.9623 40.3996 54.8656 39.0392 53.4134L39.0353 53.4093C38.2847 52.6038 37.4308 52.3155 36.683 52.3562C35.9343 52.397 35.1152 52.7773 34.4555 53.6569L31.6387 57.4219L31.6316 57.4313C30.1658 59.3677 28.1027 60.5002 25.8751 60.5002C23.6476 60.5002 21.5844 59.3677 20.1186 57.4313L20.1115 57.4219L17.2947 53.6569C16.6351 52.7773 15.8159 52.397 15.0672 52.3562C14.3195 52.3155 13.4655 52.6038 12.7149 53.4093L12.7113 53.4132C11.3569 54.8594 9.94759 55.9527 8.51884 56.5673C7.07003 57.1905 5.48132 57.3621 3.9974 56.723C2.52793 56.0901 1.54316 54.8261 0.946377 53.3605C0.352525 51.9021 0.078125 50.1064 0.078125 48.0761V16.6565C0.078125 11.0658 0.678946 6.75041 3.27258 3.97807ZM6.32909 6.83755C4.97434 8.28565 4.26368 11.002 4.26368 16.6565V48.0761C4.26368 49.7709 4.49853 50.9854 4.82288 51.782C5.14431 52.5713 5.48671 52.8072 5.6531 52.8788C5.80503 52.9443 6.16086 53.0252 6.865 52.7223C7.5892 52.4108 8.54124 51.7427 9.65629 50.5521L11.1838 51.9826L9.65272 50.5559C11.1902 48.9059 13.2243 48.0641 15.2948 48.1769C17.3644 48.2896 19.2938 49.3463 20.6432 51.1455L23.4558 54.905C23.4569 54.9064 23.4579 54.9078 23.459 54.9092C24.2526 55.9554 25.1459 56.3147 25.8751 56.3147C26.6044 56.3147 27.4977 55.9553 28.2914 54.9091C28.2924 54.9077 28.2934 54.9064 28.2944 54.905L31.1056 51.1475C32.455 49.3483 34.3858 48.2896 36.4554 48.1769C38.5248 48.0642 40.5578 48.905 42.095 50.5532C43.2174 51.751 44.1731 52.4224 44.8988 52.7353C45.6046 53.0397 45.9579 52.9574 46.1061 52.8934C46.2695 52.8229 46.6102 52.5887 46.9304 51.7999C47.2533 51.0043 47.4866 49.7925 47.4866 48.104V16.6565L47.4866 16.6513C47.5006 10.9965 46.7947 8.28222 45.4443 6.8362C44.1399 5.43946 41.7072 4.6858 36.4367 4.6858H15.3415C10.0718 4.6858 7.6374 5.4391 6.32909 6.83755Z" fill="#0963E7"/>
<path fill-rule="evenodd" clip-rule="evenodd" d="M12.2051 27.7064C12.2051 26.1653 13.4544 24.916 14.9955 24.916H15.0205C16.5616 24.916 17.8109 26.1653 17.8109 27.7064C17.8109 29.2475 16.5616 30.4968 15.0205 30.4968H14.9955C13.4544 30.4968 12.2051 29.2475 12.2051 27.7064Z" fill="#0963E7"/>
<path fill-rule="evenodd" clip-rule="evenodd" d="M20.7227 27.7063C20.7227 26.5505 21.6596 25.6135 22.8154 25.6135H38.1625C39.3183 25.6135 40.2553 26.5505 40.2553 27.7063C40.2553 28.8621 39.3183 29.7991 38.1625 29.7991H22.8154C21.6596 29.7991 20.7227 28.8621 20.7227 27.7063Z" fill="#0963E7"/>
<path fill-rule="evenodd" clip-rule="evenodd" d="M12.2051 16.5448C12.2051 15.0037 13.4544 13.7544 14.9955 13.7544H15.0205C16.5616 13.7544 17.8109 15.0037 17.8109 16.5448C17.8109 18.0858 16.5616 19.3351 15.0205 19.3351H14.9955C13.4544 19.3351 12.2051 18.0858 12.2051 16.5448Z" fill="#0963E7"/>
<path fill-rule="evenodd" clip-rule="evenodd" d="M20.7227 16.5449C20.7227 15.3891 21.6596 14.4521 22.8154 14.4521H38.1625C39.3183 14.4521 40.2553 15.3891 40.2553 16.5449C40.2553 17.7007 39.3183 18.6377 38.1625 18.6377H22.8154C21.6596 18.6377 20.7227 17.7007 20.7227 16.5449Z" fill="#0963E7"/>
</svg>
