<svg width="56" height="58" viewBox="0 0 56 58" fill="none" xmlns="http://www.w3.org/2000/svg">
<path fill-rule="evenodd" clip-rule="evenodd" d="M12.6268 19.7526C8.20259 19.7526 4.58415 23.3711 4.58415 27.7953V36.0136C6.03413 35.4358 7.61246 35.1165 9.26013 35.1165C16.272 35.1165 21.9521 40.7966 21.9521 47.8085C21.9521 49.9665 21.4039 52.0266 20.4207 53.8204H43.3012C47.7255 53.8204 51.3439 50.202 51.3439 45.7777V44.602H48.2711C44.5049 44.602 40.8492 41.848 40.5036 37.7797C40.2878 35.4759 41.165 33.3237 42.6848 31.8299C44.0519 30.4356 45.9261 29.639 47.9505 29.639H51.3439V27.7953C51.3439 23.3711 47.7255 19.7526 43.3012 19.7526H12.6268ZM0.576172 27.7953C0.576172 21.1575 5.98902 15.7446 12.6268 15.7446H43.3012C49.939 15.7446 55.3519 21.1575 55.3519 27.7953V31.643C55.3519 32.7498 54.4547 33.647 53.3479 33.647H47.9505C46.9911 33.647 46.1473 34.0189 45.5386 34.6441L45.5027 34.6801C44.7918 35.3741 44.3947 36.3621 44.4946 37.4115L44.4968 37.435L44.4967 37.435C44.6381 39.1317 46.2696 40.5941 48.2711 40.5941H53.3479C54.4547 40.5941 55.3519 41.4913 55.3519 42.5981V45.7777C55.3519 52.4155 49.939 57.8284 43.3012 57.8284H16.2875C15.4449 57.8284 14.6923 57.3014 14.4043 56.5096C14.1162 55.7178 14.3541 54.8304 14.9997 54.289C15.6488 53.7445 16.2211 53.068 16.6673 52.303L16.6926 52.2609C17.4885 50.9703 17.9441 49.4367 17.9441 47.8085C17.9441 43.0101 14.0584 39.1245 9.26013 39.1245C7.22532 39.1245 5.33649 39.8375 3.82927 41.0389C3.22738 41.5187 2.4039 41.6114 1.71046 41.2773C1.01702 40.9433 0.576172 40.2416 0.576172 39.4719V27.7953Z" fill="#0963E7"/>
<path fill-rule="evenodd" clip-rule="evenodd" d="M33.5752 7.59475C33.5752 5.43707 31.4188 3.95576 29.4225 4.71244L8.2058 12.7288C6.02341 13.555 4.58415 15.6386 4.58415 17.9888V30.1996C4.58415 31.3064 3.68693 32.2036 2.58016 32.2036C1.47339 32.2036 0.576172 31.3064 0.576172 30.1996V17.9888C0.576172 13.98 3.03849 10.3987 6.78741 8.98019L28.0019 0.96464C32.6321 -0.790348 37.5832 2.64495 37.5832 7.59475V17.7483C37.5832 18.855 36.686 19.7523 35.5792 19.7523C34.4724 19.7523 33.5752 18.855 33.5752 17.7483V7.59475Z" fill="#0963E7"/>
</svg>
