<svg width="16" height="18" viewBox="0 0 16 18" fill="none" xmlns="http://www.w3.org/2000/svg">
<path fill-rule="evenodd" clip-rule="evenodd" d="M7.57895 1.89474C6.0093 1.89474 4.73684 3.16719 4.73684 4.73684C4.73684 6.30649 6.0093 7.57895 7.57895 7.57895C9.1486 7.57895 10.4211 6.30649 10.4211 4.73684C10.4211 3.16719 9.1486 1.89474 7.57895 1.89474ZM2.84211 4.73684C2.84211 2.12076 4.96286 0 7.57895 0C10.195 0 12.3158 2.12076 12.3158 4.73684C12.3158 7.35293 10.195 9.47368 7.57895 9.47368C4.96286 9.47368 2.84211 7.35293 2.84211 4.73684ZM3.27419 13.004C2.27543 13.4475 1.89474 14.0076 1.89474 14.6842C1.89474 14.8961 1.9324 15.016 1.98689 15.1029C2.04142 15.1899 2.1715 15.3372 2.52207 15.4958C3.27138 15.8348 4.75209 16.1053 7.57895 16.1053C10.4058 16.1053 11.8865 15.8348 12.6358 15.4958C12.9864 15.3372 13.1165 15.1899 13.171 15.1029C13.2255 15.016 13.2632 14.8961 13.2632 14.6842C13.2632 14.0076 12.8825 13.4475 11.8837 13.004C10.8582 12.5486 9.35257 12.3158 7.57895 12.3158C5.80532 12.3158 4.2997 12.5486 3.27419 13.004ZM2.50524 11.2723C3.87989 10.6619 5.69005 10.4211 7.57895 10.4211C9.46784 10.4211 11.278 10.6619 12.6527 11.2723C14.0541 11.8946 15.1579 12.9924 15.1579 14.6842C15.1579 15.1264 15.0771 15.6295 14.7764 16.1093C14.4756 16.589 14.0136 16.9521 13.4168 17.2221C12.2714 17.7403 10.4363 18 7.57895 18C4.7216 18 2.88651 17.7403 1.74108 17.2221C1.14429 16.9521 0.682263 16.589 0.381526 16.1093C0.0807545 15.6295 0 15.1264 0 14.6842C0 12.9924 1.10384 11.8946 2.50524 11.2723Z" fill="#0963E7"/>
</svg>
