<svg width="400" height="401" viewBox="0 0 400 401" fill="none" xmlns="http://www.w3.org/2000/svg">
<path d="M139.682 200.501L179.848 240.835L260.348 160.168" stroke="#0963E7" stroke-width="22" stroke-linecap="round" stroke-linejoin="round"/>
<path d="M179.182 41.3301C190.682 31.4967 209.515 31.4967 221.182 41.3301L247.515 63.9967C252.515 68.3301 261.848 71.8301 268.515 71.8301H296.848C314.515 71.8301 329.015 86.3301 329.015 103.997V132.33C329.015 138.83 332.515 148.33 336.848 153.33L359.515 179.663C369.348 191.163 369.348 209.997 359.515 221.663L336.848 247.997C332.515 252.997 329.015 262.33 329.015 268.997V297.33C329.015 314.997 314.515 329.497 296.848 329.497H268.515C262.015 329.497 252.515 332.997 247.515 337.33L221.182 359.997C209.682 369.83 190.848 369.83 179.182 359.997L152.848 337.33C147.848 332.997 138.515 329.497 131.848 329.497H103.015C85.3483 329.497 70.8483 314.997 70.8483 297.33V268.83C70.8483 262.33 67.3483 252.997 63.1816 247.997L40.6816 221.497C31.015 209.997 31.015 191.33 40.6816 179.83L63.1816 153.33C67.3483 148.33 70.8483 138.997 70.8483 132.497V103.83C70.8483 86.1634 85.3483 71.6634 103.015 71.6634H131.848C138.348 71.6634 147.848 68.1634 152.848 63.8301L179.182 41.3301Z" stroke="#0963E7" stroke-width="22" stroke-linecap="round" stroke-linejoin="round"/>
</svg>
