<svg width="127" height="44" viewBox="0 0 127 44" fill="none" xmlns="http://www.w3.org/2000/svg">
<path d="M26.2321 20.3001C26.2123 21.2631 25.4611 22.0098 24.512 22.0098H15.2197C14.2707 22.0098 13.4997 22.7762 13.4997 23.7195C13.4997 23.8178 13.5392 24.0929 13.559 24.1125C14.4882 27.9643 17.869 30.8727 21.9616 31.0496H21.9814C22.2186 31.0692 22.4163 31.2461 22.4361 31.4819V43.5677C22.4163 43.8035 22.2384 44 22.0012 44H21.9418C21.9418 44 21.9418 44 21.9221 44C10.6329 43.7445 1.41968 35.0978 0.391592 24.0732C0.371821 23.9553 0.352051 23.8374 0.352051 23.7195V23.6999C0.371822 22.7566 1.12311 21.9902 2.07212 21.9902H11.3644C12.3134 21.9902 13.0845 21.2238 13.0845 20.2805C13.0845 20.1822 13.0449 19.9267 13.0449 19.9071C12.1355 16.0554 8.75467 13.1469 4.64233 12.9504H4.60279C4.58302 12.9504 4.58302 12.9504 4.58302 12.9504C4.56325 12.9504 4.56325 12.9504 4.56325 12.9504C4.34577 12.9308 4.1876 12.7539 4.14806 12.5377C4.14806 12.5181 4.14806 12.5181 4.14806 12.5181V0.451985C4.14806 0.196514 4.34577 0 4.58302 0H4.64233C10.5538 0.11791 15.892 2.57436 19.7868 6.44573C23.3258 9.96337 25.6785 14.6798 26.1728 19.9464C26.2123 20.0643 26.2321 20.1626 26.2321 20.3001Z" fill="#0963E7"/>
<path d="M34.2988 41.7204C33.8243 41.7204 33.4289 41.6025 33.0928 41.3864C32.7567 41.1702 32.4997 40.8754 32.3217 40.4824C32.1438 40.0894 32.0449 39.657 32.0449 39.1657C32.0449 38.6744 32.1438 38.2225 32.3217 37.8294C32.4997 37.4364 32.7764 37.1416 33.1125 36.9254C33.4487 36.7093 33.8441 36.5914 34.279 36.5914C34.6349 36.5914 34.9512 36.6503 35.228 36.7879C35.5048 36.9254 35.7421 37.1023 35.92 37.3381C36.098 37.5739 36.2166 37.8294 36.2561 38.1438H35.4851C35.4257 37.9277 35.3071 37.7115 35.0896 37.5346C34.8919 37.3578 34.6151 37.2792 34.279 37.2792C33.8243 37.2792 33.4684 37.456 33.1916 37.7901C32.9148 38.1242 32.7764 38.5762 32.7764 39.1264C32.7764 39.6963 32.9148 40.1483 33.1719 40.502C33.4487 40.8361 33.8045 41.013 34.2593 41.013C34.5558 41.013 34.8128 40.9344 35.0303 40.7772C35.2478 40.62 35.3862 40.4234 35.4653 40.1483H36.2363C36.1968 40.4431 36.0782 40.6986 35.92 40.9344C35.7618 41.1702 35.5246 41.3471 35.2478 41.4846C34.9908 41.6615 34.6744 41.7204 34.2988 41.7204Z" fill="#0963E7"/>
<path d="M39.3999 41.7204C38.9451 41.7204 38.5497 41.6222 38.2136 41.406C37.8775 41.1899 37.6205 40.8951 37.4228 40.5217C37.2251 40.1483 37.146 39.6963 37.146 39.1854C37.146 38.6744 37.2449 38.2225 37.4228 37.8294C37.6205 37.4364 37.8775 37.1416 38.2136 36.9451C38.5497 36.7486 38.9451 36.6307 39.3999 36.6307C39.8546 36.6307 40.25 36.7289 40.5861 36.9451C40.9222 37.1613 41.1793 37.456 41.377 37.8294C41.5747 38.2225 41.6538 38.6548 41.6538 39.1854C41.6538 39.6963 41.5549 40.1483 41.377 40.5217C41.1793 40.8951 40.9222 41.1899 40.5861 41.406C40.2303 41.6222 39.8348 41.7204 39.3999 41.7204ZM39.3999 41.0523C39.736 41.0523 40.0128 40.9737 40.25 40.7968C40.4675 40.6199 40.6257 40.4038 40.7443 40.109C40.8431 39.8339 40.9025 39.5195 40.9025 39.1854C40.9025 38.8513 40.8431 38.5565 40.7443 38.2618C40.6454 37.967 40.4675 37.7508 40.25 37.574C40.0325 37.3971 39.7558 37.3185 39.3999 37.3185C39.0638 37.3185 38.787 37.3971 38.5497 37.574C38.3322 37.7508 38.1741 37.9866 38.0555 38.2618C37.9566 38.5565 37.8973 38.8513 37.8973 39.1854C37.8973 39.5195 37.9566 39.8142 38.0555 40.109C38.1543 40.3841 38.3322 40.6199 38.5497 40.7968C38.7672 40.954 39.044 41.0523 39.3999 41.0523Z" fill="#0963E7"/>
<path d="M43.5714 38.6548V41.6222H42.8003V36.6896H43.5318V37.456H43.5911C43.7098 37.2006 43.8877 37.0041 44.1249 36.8468C44.3622 36.6896 44.6785 36.611 45.0542 36.611C45.5484 36.611 45.9636 36.7682 46.28 37.063C46.5963 37.3774 46.7347 37.8294 46.7347 38.4779V41.6222H45.9636V38.5369C45.9636 38.1438 45.8648 37.8491 45.6671 37.6329C45.4694 37.4167 45.1926 37.2988 44.8367 37.2988C44.4808 37.2988 44.1645 37.4167 43.9272 37.6526C43.69 37.8884 43.5714 38.2225 43.5714 38.6548Z" fill="#0963E7"/>
<path d="M48.9092 38.6548V41.6222H48.1382V36.6896H48.8697V37.456H48.929C49.0476 37.2006 49.2256 37.0041 49.4628 36.8468C49.7001 36.6896 50.0164 36.611 50.3921 36.611C50.8863 36.611 51.3015 36.7682 51.6179 37.063C51.9342 37.3774 52.0726 37.8294 52.0726 38.4779V41.6222H51.3015V38.5369C51.3015 38.1438 51.2027 37.8491 51.005 37.6329C50.8072 37.4167 50.5305 37.2988 50.1746 37.2988C49.8187 37.2988 49.5024 37.4167 49.2651 37.6526C49.0279 37.8884 48.9092 38.2225 48.9092 38.6548Z" fill="#0963E7"/>
<path d="M55.5524 41.7204C55.0779 41.7204 54.6628 41.6222 54.3069 41.406C53.9708 41.1899 53.694 40.8951 53.516 40.5217C53.3381 40.1483 53.2393 39.6963 53.2393 39.1854C53.2393 38.6745 53.3381 38.2421 53.516 37.8491C53.694 37.456 53.9708 37.1613 54.3069 36.9451C54.643 36.7289 55.0384 36.611 55.4734 36.611C55.7304 36.611 55.9874 36.6503 56.2444 36.7486C56.5014 36.8272 56.7189 36.9647 56.9364 37.1613C57.1341 37.3578 57.3121 37.6133 57.4307 37.9277C57.5493 38.2421 57.6086 38.6351 57.6086 39.0871V39.4016H54.0103C54.0301 39.9322 54.1685 40.3252 54.465 40.62C54.7418 40.8951 55.1175 41.0326 55.5722 41.0326C55.8688 41.0326 56.1258 40.9737 56.3433 40.8361C56.5608 40.6986 56.7189 40.5217 56.8178 40.2662L57.5493 40.4628C57.4307 40.8361 57.1934 41.1309 56.8573 41.3667C56.4817 41.6025 56.0467 41.7204 55.5524 41.7204ZM54.0103 38.7531H56.8375C56.8375 38.3404 56.7189 37.9866 56.4619 37.7115C56.2247 37.4364 55.8886 37.2988 55.4734 37.2988C55.1768 37.2988 54.9198 37.3578 54.7221 37.4953C54.5046 37.6329 54.3464 37.8098 54.2278 38.0259C54.0894 38.2618 54.0103 38.4976 54.0103 38.7531Z" fill="#0963E7"/>
<path d="M60.792 41.7204C60.3175 41.7204 59.922 41.6025 59.5859 41.3864C59.2498 41.1702 58.9928 40.8754 58.8149 40.4824C58.6369 40.0894 58.5381 39.657 58.5381 39.1657C58.5381 38.6744 58.6369 38.2225 58.8149 37.8294C58.9928 37.4364 59.2696 37.1416 59.6057 36.9254C59.9418 36.7093 60.3372 36.5914 60.7722 36.5914C61.1281 36.5914 61.4444 36.6503 61.7212 36.7879C61.998 36.9254 62.2352 37.1023 62.4132 37.3381C62.5911 37.5739 62.7097 37.8294 62.7493 38.1438H61.9782C61.9189 37.9277 61.8003 37.7115 61.5828 37.5346C61.3851 37.3578 61.1083 37.2792 60.7722 37.2792C60.3175 37.2792 59.9616 37.456 59.6848 37.7901C59.408 38.1242 59.2696 38.5762 59.2696 39.1264C59.2696 39.6963 59.408 40.1483 59.665 40.502C59.9418 40.8361 60.2977 41.013 60.7524 41.013C61.049 41.013 61.306 40.9344 61.5235 40.7772C61.741 40.62 61.8794 40.4234 61.9584 40.1483H62.7295C62.69 40.4431 62.5713 40.6986 62.4132 40.9344C62.255 41.1702 62.0178 41.3471 61.741 41.4846C61.4839 41.6615 61.1478 41.7204 60.792 41.7204Z" fill="#0963E7"/>
<path d="M66.0114 36.6896V37.3381H64.9437V40.2269C64.9437 40.4431 64.9833 40.6003 65.0426 40.6985C65.1019 40.7968 65.181 40.8754 65.2798 40.9147C65.3787 40.954 65.4776 40.9736 65.5962 40.9736C65.6753 40.9736 65.7543 40.9737 65.7939 40.954C65.8532 40.954 65.8927 40.9343 65.9323 40.9343L66.0905 41.6222C66.0311 41.6418 65.9718 41.6615 65.873 41.6811C65.7741 41.7008 65.6555 41.7204 65.5171 41.7204C65.2996 41.7204 65.0821 41.6811 64.8844 41.5828C64.6867 41.4846 64.5088 41.347 64.3704 41.1702C64.232 40.9933 64.1727 40.7378 64.1727 40.4627V37.3381H63.4214V36.6896H64.1727V35.5105H64.9437V36.6896H66.0114Z" fill="#0963E7"/>
<path d="M67.5533 35.8642C67.3952 35.8642 67.2766 35.8053 67.1777 35.707C67.0788 35.6088 67.0195 35.4909 67.0195 35.3533C67.0195 35.2157 67.0788 35.0978 67.1777 34.9996C67.2766 34.9013 67.4149 34.8423 67.5533 34.8423C67.6917 34.8423 67.8301 34.9013 67.929 34.9996C68.0278 35.0978 68.0872 35.2157 68.0872 35.3533C68.0872 35.4909 68.0278 35.6088 67.929 35.707C67.8301 35.8053 67.7115 35.8642 67.5533 35.8642ZM67.1777 41.6222V36.6896H67.9488V41.6222H67.1777Z" fill="#0963E7"/>
<path d="M70.0841 38.6548V41.6222H69.313V36.6896H70.0445V37.456H70.1038C70.2224 37.2006 70.4004 37.0041 70.6376 36.8468C70.8749 36.6896 71.1912 36.611 71.5669 36.611C72.0611 36.611 72.4763 36.7682 72.7927 37.063C73.109 37.3774 73.2474 37.8294 73.2474 38.4779V41.6222H72.4763V38.5369C72.4763 38.1438 72.3775 37.8491 72.1798 37.6329C71.9821 37.4167 71.7053 37.2988 71.3494 37.2988C70.9935 37.2988 70.6772 37.4167 70.4399 37.6526C70.2027 37.8884 70.0841 38.2225 70.0841 38.6548Z" fill="#0963E7"/>
<path d="M76.6677 43.5873C76.1141 43.5873 75.6792 43.489 75.343 43.2925C75.0267 43.096 74.7895 42.8602 74.6313 42.6047L75.2442 42.1724C75.3233 42.2706 75.4024 42.3689 75.5012 42.4868C75.6001 42.6047 75.7582 42.703 75.9362 42.8012C76.1141 42.8798 76.3711 42.9388 76.6677 42.9388C77.0631 42.9388 77.3992 42.8405 77.6562 42.644C77.9133 42.4475 78.0517 42.1527 78.0517 41.7401V40.7378H77.9923C77.933 40.8361 77.854 40.9343 77.7551 41.0719C77.6562 41.2095 77.4981 41.3274 77.3201 41.4256C77.1224 41.5239 76.8654 41.5828 76.5491 41.5828C76.1536 41.5828 75.7978 41.4846 75.4617 41.3077C75.1453 41.1112 74.8883 40.8361 74.7104 40.4823C74.5324 40.1286 74.4336 39.6766 74.4336 39.1657C74.4336 38.6547 74.5324 38.2224 74.7104 37.849C74.8883 37.4756 75.1453 37.1809 75.4617 36.9844C75.778 36.7682 76.1537 36.6699 76.5688 36.6699C76.8852 36.6699 77.1422 36.7289 77.3399 36.8271C77.5376 36.9254 77.676 37.063 77.7749 37.1809C77.8737 37.3184 77.9528 37.4167 78.0121 37.515H78.0912V36.7289H78.8227V41.799C78.8227 42.2313 78.7239 42.5654 78.5262 42.8405C78.3284 43.1157 78.0714 43.3122 77.7551 43.4301C77.419 43.5087 77.0631 43.5873 76.6677 43.5873ZM76.6282 40.8557C77.0829 40.8557 77.4388 40.6985 77.676 40.3841C77.9133 40.0697 78.0517 39.6373 78.0517 39.1067C78.0517 38.5761 77.933 38.1438 77.6958 37.7901C77.4585 37.456 77.1027 37.2791 76.6282 37.2791C76.3118 37.2791 76.035 37.3577 75.8176 37.515C75.6001 37.6722 75.4419 37.8883 75.343 38.1635C75.2442 38.4386 75.1849 38.7333 75.1849 39.0674C75.1849 39.5784 75.3035 40.0107 75.5605 40.3251C75.7978 40.6985 76.1537 40.8557 76.6282 40.8557Z" fill="#0963E7"/>
<path d="M83.271 43.4694C83.1326 43.4694 83.0338 43.4498 82.9349 43.4301C82.8361 43.4105 82.757 43.3908 82.7175 43.3712L82.9152 42.703C83.0931 42.7423 83.271 42.762 83.4094 42.762C83.5478 42.7423 83.6862 42.6834 83.7851 42.5655C83.9037 42.4476 84.0026 42.2707 84.0817 42.0152L84.22 41.6222L82.3813 36.6503H83.2117L84.5759 40.5807H84.6352L85.9994 36.6503H86.8298L84.7143 42.31C84.4375 43.0961 83.963 43.4694 83.271 43.4694Z" fill="#0963E7"/>
<path d="M89.6772 41.7204C89.2225 41.7204 88.8271 41.6222 88.491 41.406C88.1549 41.1899 87.8978 40.8951 87.7001 40.5217C87.5024 40.1483 87.4233 39.6963 87.4233 39.1854C87.4233 38.6744 87.5222 38.2225 87.7001 37.8294C87.8781 37.4364 88.1549 37.1416 88.491 36.9451C88.8271 36.7289 89.2225 36.6307 89.6772 36.6307C90.132 36.6307 90.5274 36.7289 90.8635 36.9451C91.1996 37.1613 91.4566 37.456 91.6543 37.8294C91.852 38.2028 91.9311 38.6548 91.9311 39.1854C91.9311 39.6963 91.8323 40.1483 91.6543 40.5217C91.4566 40.8951 91.1996 41.1899 90.8635 41.406C90.5274 41.6222 90.132 41.7204 89.6772 41.7204ZM89.6772 41.0523C90.0133 41.0523 90.2901 40.9737 90.5274 40.7968C90.7449 40.6199 90.903 40.4038 91.0216 40.109C91.1205 39.8339 91.1798 39.5195 91.1798 39.1854C91.1798 38.8513 91.1205 38.5565 91.0216 38.2618C90.9228 37.967 90.7449 37.7508 90.5274 37.574C90.3099 37.3971 90.0331 37.3185 89.6772 37.3185C89.3411 37.3185 89.0643 37.3971 88.8271 37.574C88.6096 37.7508 88.4514 37.9866 88.3328 38.2618C88.234 38.5565 88.1746 38.8513 88.1746 39.1854C88.1746 39.5195 88.234 39.8142 88.3328 40.109C88.4317 40.3841 88.6096 40.6199 88.8271 40.7968C89.0643 40.954 89.3411 41.0523 89.6772 41.0523Z" fill="#0963E7"/>
<path d="M96.221 39.5981V36.67H96.992V41.6025H96.221V40.7575H96.1617C96.043 41.013 95.8651 41.2292 95.6278 41.3864C95.3906 41.5632 95.0743 41.6418 94.6986 41.6418C94.2241 41.6418 93.8485 41.4846 93.5519 41.1898C93.2553 40.8754 93.0972 40.4234 93.0972 39.7946V36.6503H93.8682V39.7356C93.8682 40.0894 93.9671 40.3841 94.1648 40.6003C94.3625 40.8165 94.6195 40.9147 94.9556 40.9147C95.1533 40.9147 95.3313 40.8754 95.529 40.7772C95.7267 40.6789 95.8849 40.5414 96.0233 40.3252C96.1617 40.168 96.221 39.9125 96.221 39.5981Z" fill="#0963E7"/>
<path d="M98.376 41.6222V36.6896H99.1075V37.4364H99.1668C99.2657 37.2006 99.4238 36.9844 99.6611 36.8468C99.8983 36.6896 100.155 36.611 100.472 36.611C100.531 36.611 100.59 36.611 100.689 36.611C100.768 36.611 100.828 36.611 100.887 36.611V37.3774C100.867 37.3774 100.808 37.3578 100.709 37.3381C100.61 37.3185 100.531 37.3185 100.412 37.3185C100.056 37.3185 99.7599 37.4364 99.5227 37.6526C99.2854 37.8687 99.1668 38.1439 99.1668 38.4779V41.6025H98.376V41.6222Z" fill="#0963E7"/>
<path d="M106.344 43.5873C105.79 43.5873 105.355 43.489 105.019 43.2925C104.703 43.096 104.466 42.8602 104.308 42.6047L104.92 42.1724C105 42.2706 105.079 42.3689 105.177 42.4868C105.276 42.6047 105.435 42.703 105.612 42.8012C105.79 42.8798 106.047 42.9388 106.344 42.9388C106.739 42.9388 107.075 42.8405 107.333 42.644C107.59 42.4475 107.728 42.1527 107.728 41.7401V40.7378H107.669C107.609 40.8361 107.53 40.9343 107.431 41.0719C107.333 41.2095 107.174 41.3274 106.996 41.4256C106.799 41.5239 106.542 41.5828 106.225 41.5828C105.83 41.5828 105.474 41.4846 105.138 41.3077C104.822 41.1112 104.565 40.8361 104.387 40.4823C104.209 40.1286 104.11 39.6766 104.11 39.1657C104.11 38.6547 104.209 38.2224 104.387 37.849C104.565 37.4756 104.822 37.1809 105.138 36.9844C105.454 36.7682 105.83 36.6699 106.245 36.6699C106.561 36.6699 106.818 36.7289 107.016 36.8271C107.214 36.9254 107.352 37.063 107.451 37.1809C107.55 37.3184 107.629 37.4167 107.688 37.515H107.767V36.7289H108.499V41.799C108.499 42.2313 108.4 42.5654 108.202 42.8405C108.005 43.1157 107.748 43.3122 107.431 43.4301C107.095 43.5087 106.739 43.5873 106.344 43.5873ZM106.324 40.8557C106.779 40.8557 107.135 40.6985 107.372 40.3841C107.609 40.0697 107.748 39.6373 107.748 39.1067C107.748 38.5761 107.629 38.1438 107.392 37.7901C107.155 37.456 106.799 37.2791 106.324 37.2791C106.008 37.2791 105.731 37.3577 105.514 37.515C105.296 37.6722 105.138 37.8883 105.039 38.1635C104.94 38.4386 104.881 38.7333 104.881 39.0674C104.881 39.5784 105 40.0107 105.257 40.3251C105.474 40.6985 105.83 40.8557 106.324 40.8557Z" fill="#0963E7"/>
<path d="M111.899 41.7204C111.445 41.7204 111.049 41.6222 110.713 41.406C110.377 41.1899 110.12 40.8951 109.922 40.5217C109.725 40.1483 109.646 39.6963 109.646 39.1854C109.646 38.6744 109.744 38.2225 109.922 37.8294C110.1 37.4364 110.377 37.1416 110.713 36.9451C111.049 36.7289 111.445 36.6307 111.899 36.6307C112.354 36.6307 112.75 36.7289 113.086 36.9451C113.422 37.1613 113.679 37.456 113.876 37.8294C114.074 38.2225 114.153 38.6548 114.153 39.1854C114.153 39.6963 114.054 40.1483 113.876 40.5217C113.679 40.8951 113.422 41.1899 113.086 41.406C112.75 41.6222 112.354 41.7204 111.899 41.7204ZM111.899 41.0523C112.235 41.0523 112.512 40.9737 112.75 40.7968C112.967 40.6199 113.125 40.4038 113.244 40.109C113.343 39.8339 113.402 39.5195 113.402 39.1854C113.402 38.8513 113.343 38.5565 113.244 38.2618C113.145 37.967 112.967 37.7508 112.75 37.574C112.532 37.3971 112.255 37.3185 111.899 37.3185C111.563 37.3185 111.286 37.3971 111.049 37.574C110.832 37.7508 110.674 37.9866 110.555 38.2618C110.456 38.5565 110.397 38.8513 110.397 39.1854C110.397 39.5195 110.456 39.8142 110.555 40.109C110.654 40.3841 110.832 40.6199 111.049 40.7968C111.286 40.954 111.563 41.0523 111.899 41.0523Z" fill="#0963E7"/>
<path d="M116.783 41.7401C116.467 41.7401 116.19 41.6811 115.933 41.5632C115.676 41.4453 115.478 41.2685 115.32 41.0523C115.162 40.8361 115.103 40.561 115.103 40.2269C115.103 39.9518 115.162 39.716 115.28 39.5391C115.399 39.3623 115.538 39.2247 115.735 39.1264C115.913 39.0282 116.131 38.9496 116.348 38.8906C116.585 38.8317 116.803 38.7924 117.04 38.7727C117.337 38.7334 117.594 38.7138 117.772 38.6941C117.95 38.6745 118.108 38.6351 118.187 38.5958C118.266 38.5565 118.325 38.4583 118.325 38.3404V38.3207C118.325 38.0063 118.246 37.7508 118.068 37.574C117.89 37.3971 117.633 37.3185 117.277 37.3185C116.921 37.3185 116.625 37.3971 116.427 37.5543C116.229 37.7115 116.071 37.8884 115.992 38.0652L115.261 37.8098C115.399 37.515 115.557 37.2792 115.775 37.1023C115.992 36.9254 116.229 36.8075 116.487 36.7486C116.744 36.6896 117.001 36.6503 117.258 36.6503C117.416 36.6503 117.594 36.67 117.811 36.7093C118.029 36.7486 118.226 36.8272 118.424 36.9451C118.622 37.063 118.78 37.2399 118.918 37.4757C119.057 37.7115 119.116 38.0259 119.116 38.419V41.6811H118.345V41.013H118.305C118.246 41.1113 118.167 41.2292 118.048 41.3471C117.93 41.465 117.772 41.5829 117.574 41.6615C117.317 41.7008 117.08 41.7401 116.783 41.7401ZM116.902 41.0523C117.198 41.0523 117.455 40.9933 117.673 40.8754C117.89 40.7575 118.029 40.6003 118.147 40.4234C118.246 40.2466 118.305 40.0501 118.305 39.8339V39.1461C118.266 39.1854 118.207 39.2247 118.088 39.2443C117.969 39.2836 117.851 39.3033 117.712 39.3229C117.574 39.3426 117.436 39.3623 117.297 39.3819C117.159 39.4016 117.06 39.4016 116.981 39.4212C116.783 39.4409 116.605 39.4802 116.427 39.5391C116.249 39.5981 116.111 39.6767 116.012 39.7946C115.913 39.9125 115.854 40.0697 115.854 40.2466C115.854 40.502 115.953 40.7182 116.15 40.8361C116.348 40.9933 116.585 41.0523 116.902 41.0523Z" fill="#0963E7"/>
<path d="M121.211 35.0389V41.6222H120.44V35.0389H121.211Z" fill="#0963E7"/>
<path d="M126.134 37.7901L125.442 37.9866C125.383 37.8098 125.264 37.6526 125.106 37.4953C124.948 37.3381 124.711 37.2792 124.375 37.2792C124.078 37.2792 123.821 37.3578 123.624 37.4953C123.426 37.6329 123.327 37.8098 123.327 38.0259C123.327 38.2225 123.406 38.36 123.525 38.4779C123.663 38.5958 123.881 38.6744 124.177 38.7531L124.909 38.9299C125.779 39.1461 126.233 39.5981 126.233 40.2662C126.233 40.5414 126.154 40.7968 125.996 41.0326C125.838 41.2488 125.601 41.4257 125.324 41.5632C125.027 41.7008 124.691 41.7598 124.315 41.7598C123.801 41.7598 123.386 41.6418 123.05 41.4257C122.714 41.2095 122.516 40.8951 122.417 40.4627L123.149 40.2859C123.287 40.8165 123.663 41.0916 124.296 41.0916C124.652 41.0916 124.928 41.013 125.146 40.8558C125.363 40.6986 125.462 40.5217 125.462 40.3055C125.462 39.9518 125.225 39.716 124.731 39.6177L123.9 39.4212C123.446 39.3229 123.109 39.1461 122.892 38.9299C122.675 38.6941 122.576 38.419 122.576 38.0849C122.576 37.8098 122.655 37.5543 122.813 37.3381C122.971 37.122 123.189 36.9648 123.465 36.8272C123.742 36.7093 124.058 36.6503 124.395 36.6503C124.889 36.6503 125.264 36.7486 125.561 36.9648C125.818 37.1613 126.016 37.4364 126.134 37.7901Z" fill="#0963E7"/>
<path d="M50.1355 29.3595C50.1355 29.3399 50.1157 29.3399 50.1157 29.3202L46.2999 22.3439C46.2802 22.3242 46.2604 22.2653 46.2604 22.226C46.2604 22.1474 46.2999 22.0884 46.3395 22.0295C46.3592 22.0098 46.379 22.0098 46.3988 21.9902C47.4071 21.4596 48.1782 20.7325 48.7713 19.7892C49.404 18.7869 49.7203 17.5685 49.7203 16.134C49.7203 14.6601 49.4039 13.3827 48.7515 12.3412C48.0991 11.28 47.1896 10.4743 46.0429 9.9044C44.8764 9.33451 43.532 9.05939 41.9701 9.05939H33.1918C33.0732 9.05939 32.9546 9.17729 32.9546 9.2952V29.4381C32.9546 29.6543 33.1325 29.8312 33.35 29.8312H38.2334C38.4509 29.8312 38.6288 29.6543 38.6288 29.4381V23.2086C38.6288 23.071 38.7475 22.9727 38.8661 22.9727H40.5861L44.1251 29.5953C44.1844 29.7329 44.3228 29.8312 44.481 29.8312H49.7598C49.9773 29.8312 50.1552 29.6543 50.1552 29.4381C50.175 29.4578 50.1552 29.3988 50.1355 29.3595ZM42.9784 18.0795C42.4051 18.4725 41.634 18.6494 40.6455 18.6494H38.8858C38.7672 18.6494 38.6486 18.5511 38.6486 18.4136V13.874C38.6486 13.7365 38.7672 13.6382 38.8858 13.6382H40.6455C41.634 13.6382 42.4051 13.8347 42.9784 14.2474C43.5518 14.6601 43.8286 15.3086 43.8286 16.1929C43.8286 17.0576 43.532 17.6865 42.9784 18.0795Z" fill="#0963E7"/>
<path d="M57.1146 23.3854H66.6837C66.9012 23.3854 67.0792 23.2086 67.0792 22.9924V22.0688C67.0792 20.418 66.7628 18.9835 66.1104 17.7847C65.4777 16.6056 64.5683 15.682 63.4018 15.0335C62.2353 14.4046 60.8711 14.0706 59.2894 14.0706C57.688 14.0706 56.2645 14.4046 55.0782 15.0728C53.892 15.7409 52.9628 16.6842 52.3103 17.883C51.6579 19.0817 51.3218 20.4966 51.3218 22.1081C51.3218 24.6235 52.0335 26.5886 53.4768 28.0232C54.9201 29.4381 56.8972 30.1456 59.4081 30.1456C61.5829 30.1456 63.3425 29.6739 64.6671 28.711C65.8534 27.866 66.6047 26.7459 66.9605 25.3899C66.9803 25.3309 67.0001 25.272 67.0001 25.213V25.1934C66.9803 24.9969 66.8419 24.8593 66.664 24.8397H62.0969C61.998 24.8397 61.919 24.8986 61.8794 24.9772C61.7213 25.3506 61.4247 25.6454 61.049 25.8419C60.6141 26.0777 60.1 26.1956 59.5267 26.1956C58.6963 26.1956 58.0241 25.9598 57.5694 25.4685C57.0949 24.9772 56.8774 24.3484 56.8774 23.6016C56.8774 23.5033 56.996 23.3854 57.1146 23.3854ZM56.9169 19.9857C56.996 19.4551 57.2333 19.0228 57.6485 18.669C58.1427 18.2564 58.7161 18.0402 59.4081 18.0402C60.1 18.0402 60.6932 18.2564 61.1677 18.669C61.5631 19.0228 61.7806 19.4551 61.8596 19.9857C61.8794 20.025 61.8794 20.0447 61.8794 20.084C61.8794 20.2215 61.7806 20.3198 61.6422 20.3198H57.1344C57.0158 20.3198 56.8972 20.2215 56.8972 20.084C56.8972 20.0447 56.8972 20.0053 56.9169 19.9857Z" fill="#0963E7"/>
<path d="M85.1695 29.4971C85.1695 29.7132 84.9915 29.8901 84.7741 29.8901H79.2382C79.0801 29.8901 78.9417 29.7919 78.8823 29.6543L76.0156 24.7217C75.9958 24.7021 75.9958 24.6628 75.976 24.6431C75.9365 24.6038 75.8772 24.5645 75.7981 24.5645C75.7388 24.5645 75.6795 24.6038 75.6399 24.6431C75.6201 24.6628 75.6004 24.7021 75.5806 24.7217L75.0666 25.3702C75.0072 25.4095 74.9875 25.4685 74.9875 25.5275V29.4774C74.9875 29.6936 74.8293 29.8705 74.5921 29.8705H69.7284C69.5109 29.8705 69.333 29.6936 69.333 29.4774V9.35417C69.333 9.23626 69.4319 9.11835 69.5703 9.11835H74.5723C74.7898 9.11835 74.9677 9.29521 74.9677 9.51138V19.1014C74.9677 19.2193 75.0666 19.3372 75.205 19.3372C75.284 19.3372 75.3236 19.2979 75.3631 19.2586L75.4224 19.18L78.8626 14.4439C78.8823 14.4046 78.9021 14.385 78.9219 14.3653C78.9614 14.3064 79.0207 14.2867 79.0801 14.2867H84.4973C84.7147 14.2867 84.8927 14.4636 84.8927 14.6798C84.8927 14.7387 84.8729 14.778 84.8531 14.837C84.8334 14.8763 84.7938 14.9156 84.7741 14.9549L80.0884 20.9683L80.0291 21.0469C80.0093 21.0862 80.0093 21.1058 80.0093 21.1451C80.0093 21.1844 80.0291 21.2041 80.0291 21.2434V21.2631C80.0488 21.2827 80.0488 21.3024 80.0884 21.322V21.3417L85.0508 29.2809C85.0904 29.3202 85.1102 29.3399 85.1102 29.3792C85.1695 29.3988 85.1695 29.4578 85.1695 29.4971Z" fill="#0963E7"/>
<path d="M96.3596 29.3399C96.3596 29.4971 96.2608 29.6346 96.1224 29.6936C95.9049 29.7526 95.6479 29.8115 95.3315 29.8901C94.8768 29.9884 94.3232 30.067 93.6708 30.1063C91.7333 30.2242 90.2504 29.8705 89.2421 29.0648C88.2536 28.259 87.7593 27.0406 87.7791 25.4095V18.6101C87.7791 18.4725 87.6802 18.3743 87.5418 18.3743H86.0195C85.8811 18.3743 85.7822 18.276 85.7822 18.1384V14.5422C85.7822 14.4046 85.8811 14.3064 86.0195 14.3064H87.3837C87.6012 14.3064 87.7791 14.1295 87.7791 13.9133V10.946C87.7791 10.7298 87.957 10.5529 88.1745 10.5529H93.0381C93.2556 10.5529 93.4336 10.7298 93.4336 10.946V13.9133C93.4336 14.1295 93.6115 14.3064 93.829 14.3064H95.7467C95.9642 14.3064 96.1422 14.4832 96.1422 14.6994V18.1384C96.1422 18.276 96.0433 18.3743 95.9049 18.3743H93.6906C93.5719 18.3743 93.4533 18.4725 93.4533 18.6101V24.8789C93.4533 25.5275 93.8092 25.8419 94.5209 25.8419C94.6791 25.8419 94.8768 25.8222 95.1141 25.7829C95.1932 25.7633 95.2722 25.7633 95.3513 25.7436C95.3909 25.724 95.4106 25.724 95.4502 25.724C95.549 25.724 95.6281 25.7829 95.6677 25.8615C95.6874 25.9008 95.6874 25.9205 95.6874 25.9598L96.3596 29.1827C96.3399 29.2416 96.3596 29.3006 96.3596 29.3399Z" fill="#0963E7"/>
<path d="M126.649 29.3399C126.649 29.4971 126.55 29.6346 126.411 29.6936C126.194 29.7526 125.937 29.8115 125.621 29.8901C125.166 29.9884 124.612 30.067 123.96 30.1063C122.022 30.2242 120.54 29.8705 119.531 29.0648C118.543 28.259 118.048 27.0406 118.068 25.4095V18.6101C118.068 18.4725 117.969 18.3743 117.831 18.3743H116.309C116.17 18.3743 116.071 18.276 116.071 18.1384V14.5422C116.071 14.4046 116.17 14.3064 116.309 14.3064H117.673C117.89 14.3064 118.068 14.1295 118.068 13.9133V10.946C118.068 10.7298 118.246 10.5529 118.464 10.5529H123.327C123.545 10.5529 123.723 10.7298 123.723 10.946V13.9133C123.723 14.1295 123.901 14.3064 124.118 14.3064H126.036C126.253 14.3064 126.431 14.4832 126.431 14.6994V18.1384C126.431 18.276 126.332 18.3743 126.194 18.3743H123.98C123.861 18.3743 123.742 18.4725 123.742 18.6101V24.8789C123.742 25.5275 124.098 25.8419 124.81 25.8419C124.968 25.8419 125.166 25.8222 125.403 25.7829C125.482 25.7633 125.561 25.7633 125.64 25.7436C125.68 25.724 125.7 25.724 125.739 25.724C125.838 25.724 125.917 25.7829 125.957 25.8615C125.976 25.9008 125.976 25.9205 125.976 25.9598L126.649 29.1827C126.629 29.2416 126.649 29.3006 126.649 29.3399Z" fill="#0963E7"/>
<path d="M114.213 14.6994V29.5167C114.213 29.7329 114.055 29.9098 113.818 29.9098H109.25C109.053 29.9098 108.895 29.7722 108.855 29.5757V27.0406C108.855 26.9817 108.815 26.9424 108.756 26.9424C108.697 26.9424 108.657 26.9817 108.657 27.0406C108.321 27.9839 107.708 28.7307 106.898 29.2809C106.048 29.8508 105.039 30.1063 103.873 30.1063C102.785 30.1063 101.817 29.8508 101.006 29.3595C100.195 28.8682 99.5627 28.1804 99.108 27.2961C98.6533 26.4118 98.416 25.4095 98.416 24.2697V14.7191C98.416 14.5029 98.594 14.326 98.8114 14.326H103.675C103.893 14.326 104.07 14.5029 104.07 14.7191V23.1103C104.07 23.8767 104.268 24.4859 104.664 24.9182C105.059 25.3506 105.613 25.5667 106.324 25.5667C107.016 25.5667 107.57 25.3506 108.005 24.9182C108.42 24.4663 108.618 23.8767 108.618 23.1103V14.7191C108.618 14.5029 108.796 14.326 109.013 14.326H113.877C114.055 14.3064 114.213 14.4832 114.213 14.6994Z" fill="#0963E7"/>
</svg>
