<svg width="86" height="30" viewBox="0 0 86 30" fill="none" xmlns="http://www.w3.org/2000/svg">
<path d="M17.6227 13.841C17.6093 14.4975 17.0977 15.0067 16.4515 15.0067H10.124C9.47777 15.0067 8.95273 15.5293 8.95273 16.1724C8.95273 16.2394 8.97965 16.427 8.99311 16.4404C9.62586 19.0665 11.928 21.0496 14.7148 21.1702H14.7282C14.8898 21.1836 15.0244 21.3042 15.0379 21.4649V29.7052C15.0244 29.866 14.9033 30 14.7417 30H14.7013C14.7013 30 14.7013 30 14.6879 30C7.00063 29.8258 0.726988 23.9303 0.0269251 16.4136C0.0134623 16.3332 0 16.2528 0 16.1724V16.159C0.0134627 15.5159 0.525047 14.9933 1.17126 14.9933H7.49875C8.14496 14.9933 8.67001 14.4707 8.67001 13.8276C8.67001 13.7606 8.64308 13.5864 8.64308 13.573C8.02379 10.9468 5.72167 8.96382 2.92141 8.82983H2.89449C2.88103 8.82983 2.88103 8.82983 2.88103 8.82983C2.86757 8.82983 2.86756 8.82983 2.86756 8.82983C2.71947 8.81643 2.61177 8.69584 2.58485 8.54846C2.58485 8.53506 2.58485 8.53506 2.58485 8.53506V0.308172C2.58485 0.133987 2.71948 0 2.88103 0H2.92141C6.94677 0.080393 10.5817 1.75525 13.2339 4.39482C15.6437 6.79321 17.2458 10.0089 17.5823 13.5998C17.6093 13.6802 17.6227 13.7472 17.6227 13.841Z" fill="white"/>
<path d="M23.1156 28.4458C22.7925 28.4458 22.5232 28.3654 22.2943 28.218C22.0655 28.0706 21.8905 27.8696 21.7693 27.6016C21.6481 27.3337 21.5808 27.0389 21.5808 26.7039C21.5808 26.3689 21.6481 26.0608 21.7693 25.7928C21.8905 25.5248 22.0789 25.3238 22.3078 25.1765C22.5367 25.0291 22.8059 24.9487 23.1021 24.9487C23.3444 24.9487 23.5598 24.9889 23.7483 25.0827C23.9368 25.1764 24.0983 25.297 24.2195 25.4578C24.3407 25.6186 24.4214 25.7928 24.4484 26.0072H23.9233C23.8829 25.8598 23.8022 25.7124 23.6541 25.5918C23.5194 25.4712 23.331 25.4176 23.1021 25.4176C22.7925 25.4176 22.5501 25.5382 22.3616 25.766C22.1732 25.9938 22.0789 26.3019 22.0789 26.6771C22.0789 27.0657 22.1732 27.3739 22.3482 27.615C22.5367 27.8428 22.779 27.9634 23.0886 27.9634C23.2906 27.9634 23.4656 27.9098 23.6137 27.8026C23.7618 27.6954 23.856 27.5614 23.9099 27.3739H24.4349C24.408 27.5748 24.3272 27.749 24.2195 27.9098C24.1118 28.0706 23.9503 28.1912 23.7618 28.285C23.5868 28.4056 23.3714 28.4458 23.1156 28.4458Z" fill="white"/>
<path d="M26.589 28.4458C26.2793 28.4458 26.0101 28.3788 25.7812 28.2314C25.5523 28.084 25.3773 27.883 25.2427 27.6284C25.1081 27.3739 25.0542 27.0657 25.0542 26.7173C25.0542 26.3689 25.1215 26.0608 25.2427 25.7928C25.3773 25.5248 25.5523 25.3238 25.7812 25.1898C26.0101 25.0559 26.2793 24.9755 26.589 24.9755C26.8986 24.9755 27.1679 25.0425 27.3967 25.1898C27.6256 25.3372 27.8006 25.5382 27.9352 25.7928C28.0699 26.0608 28.1237 26.3555 28.1237 26.7173C28.1237 27.0657 28.0564 27.3739 27.9352 27.6284C27.8006 27.883 27.6256 28.084 27.3967 28.2314C27.1544 28.3788 26.8851 28.4458 26.589 28.4458ZM26.589 27.9902C26.8178 27.9902 27.0063 27.9366 27.1679 27.816C27.3159 27.6954 27.4236 27.548 27.5044 27.3471C27.5717 27.1595 27.6121 26.9451 27.6121 26.7173C27.6121 26.4895 27.5717 26.2885 27.5044 26.0876C27.4371 25.8866 27.3159 25.7392 27.1679 25.6186C27.0198 25.498 26.8313 25.4444 26.589 25.4444C26.3601 25.4444 26.1716 25.498 26.0101 25.6186C25.862 25.7392 25.7543 25.9 25.6735 26.0876C25.6062 26.2885 25.5658 26.4895 25.5658 26.7173C25.5658 26.9451 25.6062 27.1461 25.6735 27.3471C25.7408 27.5346 25.862 27.6954 26.0101 27.816C26.1581 27.9232 26.3466 27.9902 26.589 27.9902Z" fill="white"/>
<path d="M29.4296 26.3555V28.3788H28.9045V25.0157H29.4027V25.5382H29.4431C29.5238 25.364 29.645 25.23 29.8065 25.1229C29.9681 25.0157 30.1835 24.9621 30.4393 24.9621C30.7759 24.9621 31.0586 25.0693 31.274 25.2702C31.4894 25.4846 31.5836 25.7928 31.5836 26.235V28.3788H31.0586V26.2752C31.0586 26.0072 30.9913 25.8062 30.8566 25.6588C30.722 25.5114 30.5335 25.431 30.2912 25.431C30.0489 25.431 29.8335 25.5114 29.6719 25.6722C29.5104 25.833 29.4296 26.0608 29.4296 26.3555Z" fill="white"/>
<path d="M33.0645 26.3555V28.3788H32.5394V25.0157H33.0376V25.5382H33.0779C33.1587 25.364 33.2799 25.23 33.4414 25.1229C33.603 25.0157 33.8184 24.9621 34.0742 24.9621C34.4107 24.9621 34.6935 25.0693 34.9089 25.2702C35.1243 25.4846 35.2185 25.7928 35.2185 26.235V28.3788H34.6935V26.2752C34.6935 26.0072 34.6262 25.8062 34.4915 25.6588C34.3569 25.5114 34.1684 25.431 33.9261 25.431C33.6838 25.431 33.4684 25.5114 33.3068 25.6722C33.1453 25.833 33.0645 26.0608 33.0645 26.3555Z" fill="white"/>
<path d="M37.588 28.4458C37.2648 28.4458 36.9821 28.3788 36.7398 28.2314C36.5109 28.084 36.3225 27.883 36.2013 27.6284C36.0801 27.3739 36.0128 27.0657 36.0128 26.7173C36.0128 26.3689 36.0801 26.0742 36.2013 25.8062C36.3225 25.5382 36.5109 25.3372 36.7398 25.1898C36.9687 25.0425 37.2379 24.9621 37.5341 24.9621C37.7091 24.9621 37.8841 24.9889 38.0592 25.0559C38.2342 25.1095 38.3823 25.2032 38.5303 25.3372C38.665 25.4712 38.7861 25.6454 38.8669 25.8598C38.9477 26.0742 38.9881 26.3422 38.9881 26.6503V26.8647H36.5379C36.5513 27.2265 36.6456 27.4945 36.8475 27.6954C37.036 27.883 37.2918 27.9768 37.6014 27.9768C37.8034 27.9768 37.9784 27.9366 38.1265 27.8428C38.2746 27.749 38.3823 27.6284 38.4496 27.4543L38.9477 27.5882C38.8669 27.8428 38.7054 28.0438 38.4765 28.2046C38.2207 28.3654 37.9245 28.4458 37.588 28.4458ZM36.5379 26.4225H38.463C38.463 26.1412 38.3823 25.9 38.2072 25.7124C38.0457 25.5248 37.8168 25.431 37.5341 25.431C37.3322 25.431 37.1572 25.4712 37.0225 25.565C36.8744 25.6588 36.7667 25.7794 36.686 25.9268C36.5917 26.0876 36.5379 26.2484 36.5379 26.4225Z" fill="white"/>
<path d="M41.1556 28.4458C40.8325 28.4458 40.5632 28.3654 40.3344 28.218C40.1055 28.0706 39.9305 27.8696 39.8093 27.6016C39.6882 27.3337 39.6208 27.0389 39.6208 26.7039C39.6208 26.3689 39.6882 26.0608 39.8093 25.7928C39.9305 25.5248 40.119 25.3238 40.3478 25.1765C40.5767 25.0291 40.846 24.9487 41.1421 24.9487C41.3845 24.9487 41.5999 24.9889 41.7883 25.0827C41.9768 25.1764 42.1384 25.297 42.2595 25.4578C42.3807 25.6186 42.4615 25.7928 42.4884 26.0072H41.9634C41.923 25.8598 41.8422 25.7124 41.6941 25.5918C41.5595 25.4712 41.371 25.4176 41.1421 25.4176C40.8325 25.4176 40.5902 25.5382 40.4017 25.766C40.2132 25.9938 40.119 26.3019 40.119 26.6771C40.119 27.0657 40.2132 27.3739 40.3882 27.615C40.5767 27.8428 40.819 27.9634 41.1287 27.9634C41.3306 27.9634 41.5056 27.9098 41.6537 27.8026C41.8018 27.6954 41.8961 27.5614 41.9499 27.3739H42.475C42.448 27.5748 42.3672 27.749 42.2595 27.9098C42.1518 28.0706 41.9903 28.1912 41.8018 28.285C41.6268 28.4056 41.3979 28.4458 41.1556 28.4458Z" fill="white"/>
<path d="M44.7098 25.0157V25.4578H43.9828V27.4275C43.9828 27.5748 44.0097 27.682 44.0501 27.749C44.0905 27.816 44.1443 27.8696 44.2117 27.8964C44.279 27.9232 44.3463 27.9366 44.4271 27.9366C44.4809 27.9366 44.5348 27.9366 44.5617 27.9232C44.6021 27.9232 44.629 27.9098 44.6559 27.9098L44.7636 28.3788C44.7232 28.3922 44.6829 28.4056 44.6155 28.419C44.5482 28.4324 44.4675 28.4458 44.3732 28.4458C44.2251 28.4458 44.077 28.419 43.9424 28.352C43.8078 28.285 43.6866 28.1912 43.5924 28.0706C43.4981 27.95 43.4577 27.7758 43.4577 27.5882V25.4578H42.9462V25.0157H43.4577V24.2117H43.9828V25.0157H44.7098Z" fill="white"/>
<path d="M45.7598 24.4529C45.6521 24.4529 45.5714 24.4127 45.5041 24.3457C45.4367 24.2787 45.3964 24.1983 45.3964 24.1045C45.3964 24.0107 45.4367 23.9303 45.5041 23.8634C45.5714 23.7964 45.6656 23.7562 45.7598 23.7562C45.8541 23.7562 45.9483 23.7964 46.0156 23.8634C46.083 23.9303 46.1233 24.0107 46.1233 24.1045C46.1233 24.1983 46.083 24.2787 46.0156 24.3457C45.9483 24.4127 45.8676 24.4529 45.7598 24.4529ZM45.5041 28.3788V25.0157H46.0291V28.3788H45.5041Z" fill="white"/>
<path d="M47.4832 26.3555V28.3788H46.9581V25.0157H47.4563V25.5382H47.4966C47.5774 25.364 47.6986 25.23 47.8601 25.1229C48.0217 25.0157 48.2371 24.9621 48.4929 24.9621C48.8295 24.9621 49.1122 25.0693 49.3276 25.2702C49.543 25.4846 49.6372 25.7928 49.6372 26.235V28.3788H49.1122V26.2752C49.1122 26.0072 49.0449 25.8062 48.9102 25.6588C48.7756 25.5114 48.5871 25.431 48.3448 25.431C48.1025 25.431 47.8871 25.5114 47.7255 25.6722C47.564 25.833 47.4832 26.0608 47.4832 26.3555Z" fill="white"/>
<path d="M51.9662 29.7187C51.5893 29.7187 51.2931 29.6517 51.0642 29.5177C50.8488 29.3837 50.6873 29.2229 50.5796 29.0487L50.9969 28.7539C51.0508 28.8209 51.1046 28.8879 51.1719 28.9683C51.2392 29.0487 51.3469 29.1157 51.4681 29.1827C51.5893 29.2363 51.7643 29.2765 51.9662 29.2765C52.2355 29.2765 52.4644 29.2095 52.6394 29.0755C52.8144 28.9415 52.9086 28.7405 52.9086 28.4592V27.7758H52.8682C52.8279 27.8428 52.774 27.9098 52.7067 28.0036C52.6394 28.0974 52.5317 28.1778 52.4105 28.2448C52.2759 28.3118 52.1009 28.352 51.8855 28.352C51.6162 28.352 51.3739 28.285 51.145 28.1644C50.9296 28.0304 50.7546 27.8428 50.6334 27.6016C50.5123 27.3605 50.4449 27.0523 50.4449 26.7039C50.4449 26.3555 50.5123 26.0608 50.6334 25.8062C50.7546 25.5516 50.9296 25.3506 51.145 25.2166C51.3604 25.0693 51.6162 25.0023 51.8989 25.0023C52.1143 25.0023 52.2893 25.0425 52.424 25.1095C52.5586 25.1764 52.6528 25.2702 52.7201 25.3506C52.7875 25.4444 52.8413 25.5114 52.8817 25.5784H52.9356V25.0425H53.4337V28.4994C53.4337 28.7941 53.3664 29.0219 53.2317 29.2095C53.0971 29.3971 52.9221 29.5311 52.7067 29.6115C52.4778 29.6651 52.2355 29.7187 51.9662 29.7187ZM51.9393 27.8562C52.249 27.8562 52.4913 27.749 52.6528 27.5346C52.8144 27.3203 52.9086 27.0255 52.9086 26.6637C52.9086 26.3019 52.8279 26.0072 52.6663 25.766C52.5047 25.5382 52.2624 25.4176 51.9393 25.4176C51.7239 25.4176 51.5354 25.4712 51.3873 25.5784C51.2392 25.6856 51.1315 25.833 51.0642 26.0206C50.9969 26.2082 50.9565 26.4091 50.9565 26.6369C50.9565 26.9853 51.0373 27.2801 51.2123 27.4944C51.3739 27.749 51.6162 27.8562 51.9393 27.8562Z" fill="white"/>
<path d="M56.4628 29.6383C56.3685 29.6383 56.3012 29.6249 56.2339 29.6115C56.1666 29.5981 56.1127 29.5847 56.0858 29.5713L56.2204 29.1157C56.3416 29.1425 56.4628 29.1559 56.557 29.1559C56.6512 29.1425 56.7455 29.1023 56.8128 29.0219C56.8936 28.9415 56.9609 28.8209 57.0147 28.6467L57.109 28.3788L55.8569 24.9889H56.4224L57.3513 27.6686H57.3917L58.3206 24.9889H58.8861L57.4455 28.8477C57.2571 29.3837 56.934 29.6383 56.4628 29.6383Z" fill="white"/>
<path d="M60.8247 28.4458C60.515 28.4458 60.2458 28.3788 60.0169 28.2314C59.788 28.084 59.613 27.883 59.4784 27.6284C59.3438 27.3739 59.2899 27.0657 59.2899 26.7173C59.2899 26.3689 59.3572 26.0608 59.4784 25.7928C59.5996 25.5248 59.788 25.3238 60.0169 25.1898C60.2458 25.0425 60.515 24.9755 60.8247 24.9755C61.1343 24.9755 61.4036 25.0425 61.6324 25.1898C61.8613 25.3372 62.0363 25.5382 62.1709 25.7928C62.3056 26.0474 62.3594 26.3555 62.3594 26.7173C62.3594 27.0657 62.2921 27.3739 62.1709 27.6284C62.0363 27.883 61.8613 28.084 61.6324 28.2314C61.4036 28.3788 61.1343 28.4458 60.8247 28.4458ZM60.8247 27.9902C61.0535 27.9902 61.242 27.9366 61.4036 27.816C61.5517 27.6954 61.6594 27.548 61.7401 27.3471C61.8075 27.1595 61.8478 26.9451 61.8478 26.7173C61.8478 26.4895 61.8075 26.2885 61.7401 26.0876C61.6728 25.8866 61.5517 25.7392 61.4036 25.6186C61.2555 25.498 61.067 25.4444 60.8247 25.4444C60.5958 25.4444 60.4073 25.498 60.2458 25.6186C60.0977 25.7392 59.99 25.9 59.9092 26.0876C59.8419 26.2885 59.8015 26.4895 59.8015 26.7173C59.8015 26.9451 59.8419 27.1461 59.9092 27.3471C59.9765 27.5346 60.0977 27.6954 60.2458 27.816C60.4073 27.9232 60.5958 27.9902 60.8247 27.9902Z" fill="white"/>
<path d="M65.2809 26.9987V25.0023H65.806V28.3654H65.2809V27.7892H65.2405C65.1598 27.9634 65.0386 28.1108 64.877 28.218C64.7155 28.3386 64.5001 28.3922 64.2443 28.3922C63.9212 28.3922 63.6654 28.285 63.4634 28.084C63.2615 27.8696 63.1538 27.5614 63.1538 27.1327V24.9889H63.6789V27.0925C63.6789 27.3337 63.7462 27.5346 63.8808 27.682C64.0154 27.8294 64.1904 27.8964 64.4193 27.8964C64.5539 27.8964 64.6751 27.8696 64.8097 27.8026C64.9444 27.7356 65.0521 27.6418 65.1463 27.4944C65.2405 27.3873 65.2809 27.2131 65.2809 26.9987Z" fill="white"/>
<path d="M66.7483 28.3788V25.0157H67.2464V25.5248H67.2868C67.3541 25.364 67.4618 25.2166 67.6234 25.1229C67.7849 25.0157 67.9599 24.9621 68.1753 24.9621C68.2157 24.9621 68.2561 24.9621 68.3234 24.9621C68.3773 24.9621 68.4177 24.9621 68.4581 24.9621V25.4846C68.4446 25.4846 68.4042 25.4712 68.3369 25.4578C68.2696 25.4444 68.2157 25.4444 68.135 25.4444C67.8926 25.4444 67.6907 25.5248 67.5291 25.6722C67.3676 25.8196 67.2868 26.0072 67.2868 26.235V28.3654H66.7483V28.3788Z" fill="white"/>
<path d="M72.1738 29.7187C71.7968 29.7187 71.5006 29.6517 71.2717 29.5177C71.0563 29.3837 70.8948 29.2229 70.7871 29.0487L71.2044 28.7539C71.2583 28.8209 71.3121 28.8879 71.3795 28.9683C71.4468 29.0487 71.5545 29.1157 71.6756 29.1827C71.7968 29.2363 71.9718 29.2765 72.1738 29.2765C72.443 29.2765 72.6719 29.2095 72.8469 29.0755C73.0219 28.9415 73.1161 28.7405 73.1161 28.4592V27.7758H73.0758C73.0354 27.8428 72.9815 27.9098 72.9142 28.0036C72.8469 28.0974 72.7392 28.1778 72.618 28.2448C72.4834 28.3118 72.3084 28.352 72.093 28.352C71.8237 28.352 71.5814 28.285 71.3525 28.1644C71.1371 28.0304 70.9621 27.8428 70.8409 27.6016C70.7198 27.3605 70.6525 27.0523 70.6525 26.7039C70.6525 26.3555 70.7198 26.0608 70.8409 25.8062C70.9621 25.5516 71.1371 25.3506 71.3525 25.2166C71.5679 25.0693 71.8237 25.0023 72.1064 25.0023C72.3218 25.0023 72.4969 25.0425 72.6315 25.1095C72.7661 25.1764 72.8604 25.2702 72.9277 25.3506C72.995 25.4444 73.0488 25.5114 73.0892 25.5784H73.1431V25.0425H73.6412V28.4994C73.6412 28.7941 73.5739 29.0219 73.4393 29.2095C73.3046 29.3971 73.1296 29.5311 72.9142 29.6115C72.6853 29.6651 72.443 29.7187 72.1738 29.7187ZM72.1603 27.8562C72.4699 27.8562 72.7123 27.749 72.8738 27.5346C73.0354 27.3203 73.1296 27.0255 73.1296 26.6637C73.1296 26.3019 73.0488 26.0072 72.8873 25.766C72.7257 25.5382 72.4834 25.4176 72.1603 25.4176C71.9449 25.4176 71.7564 25.4712 71.6083 25.5784C71.4602 25.6856 71.3525 25.833 71.2852 26.0206C71.2179 26.2082 71.1775 26.4091 71.1775 26.6369C71.1775 26.9853 71.2583 27.2801 71.4333 27.4944C71.5814 27.749 71.8237 27.8562 72.1603 27.8562Z" fill="white"/>
<path d="M75.9569 28.4458C75.6472 28.4458 75.378 28.3788 75.1491 28.2314C74.9202 28.084 74.7452 27.883 74.6106 27.6284C74.476 27.3739 74.4221 27.0657 74.4221 26.7173C74.4221 26.3689 74.4894 26.0608 74.6106 25.7928C74.7318 25.5248 74.9202 25.3238 75.1491 25.1898C75.378 25.0425 75.6472 24.9755 75.9569 24.9755C76.2665 24.9755 76.5358 25.0425 76.7646 25.1898C76.9935 25.3372 77.1685 25.5382 77.3031 25.7928C77.4378 26.0608 77.4916 26.3555 77.4916 26.7173C77.4916 27.0657 77.4243 27.3739 77.3031 27.6284C77.1685 27.883 76.9935 28.084 76.7646 28.2314C76.5358 28.3788 76.2665 28.4458 75.9569 28.4458ZM75.9569 27.9902C76.1857 27.9902 76.3742 27.9366 76.5358 27.816C76.6839 27.6954 76.7916 27.548 76.8723 27.3471C76.9397 27.1595 76.98 26.9451 76.98 26.7173C76.98 26.4895 76.9397 26.2885 76.8723 26.0876C76.805 25.8866 76.6839 25.7392 76.5358 25.6186C76.3877 25.498 76.1992 25.4444 75.9569 25.4444C75.728 25.4444 75.5395 25.498 75.378 25.6186C75.2299 25.7392 75.1222 25.9 75.0414 26.0876C74.9741 26.2885 74.9337 26.4895 74.9337 26.7173C74.9337 26.9451 74.9741 27.1461 75.0414 27.3471C75.1087 27.5346 75.2299 27.6954 75.378 27.816C75.5395 27.9232 75.728 27.9902 75.9569 27.9902Z" fill="white"/>
<path d="M79.2821 28.4592C79.0667 28.4592 78.8783 28.419 78.7033 28.3386C78.5282 28.2582 78.3936 28.1376 78.2859 27.9902C78.1782 27.8428 78.1378 27.6552 78.1378 27.4275C78.1378 27.2399 78.1782 27.0791 78.259 26.9585C78.3398 26.8379 78.434 26.7441 78.5686 26.6771C78.6898 26.6101 78.8379 26.5565 78.986 26.5163C79.1475 26.4761 79.2956 26.4493 79.4572 26.4359C79.6591 26.4091 79.8341 26.3957 79.9553 26.3823C80.0765 26.3689 80.1842 26.3421 80.238 26.3153C80.2919 26.2886 80.3322 26.2216 80.3322 26.1412V26.1278C80.3322 25.9134 80.2784 25.7392 80.1572 25.6186C80.0361 25.498 79.861 25.4444 79.6187 25.4444C79.3764 25.4444 79.1744 25.498 79.0398 25.6052C78.9052 25.7124 78.7975 25.833 78.7436 25.9536L78.2455 25.7794C78.3398 25.5784 78.4475 25.4176 78.5956 25.297C78.7436 25.1764 78.9052 25.0961 79.0802 25.0559C79.2552 25.0157 79.4302 24.9889 79.6053 24.9889C79.713 24.9889 79.8341 25.0023 79.9822 25.0291C80.1303 25.0559 80.2649 25.1095 80.3996 25.1898C80.5342 25.2702 80.6419 25.3908 80.7361 25.5516C80.8304 25.7124 80.8708 25.9268 80.8708 26.1948V28.419H80.3457V27.9634H80.3188C80.2784 28.0304 80.2245 28.1108 80.1438 28.1912C80.063 28.2716 79.9553 28.352 79.8207 28.4056C79.6456 28.4324 79.4841 28.4592 79.2821 28.4592ZM79.3629 27.9902C79.5649 27.9902 79.7399 27.95 79.888 27.8696C80.0361 27.7892 80.1303 27.682 80.2111 27.5614C80.2784 27.4408 80.3188 27.3069 80.3188 27.1595V26.6905C80.2919 26.7173 80.2515 26.7441 80.1707 26.7575C80.0899 26.7843 80.0091 26.7977 79.9149 26.8111C79.8207 26.8245 79.7264 26.8379 79.6322 26.8513C79.5379 26.8647 79.4706 26.8647 79.4168 26.8781C79.2821 26.8915 79.161 26.9183 79.0398 26.9585C78.9187 26.9987 78.8244 27.0523 78.7571 27.1327C78.6898 27.2131 78.6494 27.3203 78.6494 27.4408C78.6494 27.615 78.7167 27.7624 78.8513 27.8428C78.986 27.95 79.1475 27.9902 79.3629 27.9902Z" fill="white"/>
<path d="M82.2978 23.8901V28.3787H81.7727V23.8901H82.2978Z" fill="white"/>
<path d="M85.65 25.766L85.1788 25.9C85.1384 25.7794 85.0577 25.6722 84.95 25.565C84.8423 25.4578 84.6807 25.4176 84.4518 25.4176C84.2499 25.4176 84.0749 25.4712 83.9403 25.565C83.8056 25.6588 83.7383 25.7794 83.7383 25.9268C83.7383 26.0608 83.7922 26.1546 83.8729 26.235C83.9672 26.3153 84.1153 26.3689 84.3172 26.4225L84.8153 26.5431C85.4077 26.6905 85.7173 26.9987 85.7173 27.4542C85.7173 27.6418 85.6635 27.816 85.5558 27.9768C85.4481 28.1242 85.2865 28.2448 85.098 28.3386C84.8961 28.4324 84.6672 28.4726 84.4114 28.4726C84.0614 28.4726 83.7787 28.3922 83.5498 28.2448C83.321 28.0974 83.1863 27.883 83.119 27.5882L83.6171 27.4676C83.7114 27.8294 83.9672 28.017 84.398 28.017C84.6403 28.017 84.8288 27.9634 84.9769 27.8562C85.125 27.749 85.1923 27.6284 85.1923 27.481C85.1923 27.2399 85.0307 27.0791 84.6942 27.0121L84.1287 26.8781C83.8191 26.8111 83.5902 26.6905 83.4421 26.5431C83.294 26.3823 83.2267 26.1948 83.2267 25.967C83.2267 25.7794 83.2806 25.6052 83.3883 25.4578C83.496 25.3104 83.6441 25.2032 83.8326 25.1095C84.021 25.0291 84.2364 24.9889 84.4653 24.9889C84.8019 24.9889 85.0577 25.0559 85.2596 25.2032C85.4346 25.3372 85.5692 25.5248 85.65 25.766Z" fill="white"/>
<path d="M33.8992 20.0179C33.8992 20.0045 33.8857 20.0045 33.8857 19.9911L31.2874 15.2345C31.274 15.2211 31.2605 15.1809 31.2605 15.1541C31.2605 15.1005 31.2874 15.0603 31.3143 15.0201C31.3278 15.0067 31.3413 15.0067 31.3547 14.9933C32.0413 14.6315 32.5664 14.1358 32.9703 13.4926C33.4011 12.8093 33.6165 11.9786 33.6165 11.0005C33.6165 9.99555 33.4011 9.12462 32.9568 8.41448C32.5125 7.69095 31.8932 7.14159 31.1124 6.75303C30.3181 6.36446 29.4026 6.17688 28.3391 6.17688H22.3616C22.2808 6.17688 22.2001 6.25727 22.2001 6.33766V20.0715C22.2001 20.2189 22.3212 20.3394 22.4693 20.3394H25.7946C25.9427 20.3394 26.0639 20.2189 26.0639 20.0715V15.824C26.0639 15.7302 26.1447 15.6633 26.2254 15.6633H27.3967L29.8065 20.1787C29.8469 20.2725 29.9411 20.3394 30.0489 20.3394H33.6434C33.7915 20.3394 33.9127 20.2189 33.9127 20.0715C33.9261 20.0849 33.9127 20.0447 33.8992 20.0179ZM29.0257 12.3269C28.6353 12.5949 28.1102 12.7155 27.4371 12.7155H26.2389C26.1581 12.7155 26.0773 12.6485 26.0773 12.5547V9.4596C26.0773 9.3658 26.1581 9.29881 26.2389 9.29881H27.4371C28.1102 9.29881 28.6353 9.4328 29.0257 9.71417C29.4161 9.99555 29.6046 10.4377 29.6046 11.0407C29.6046 11.6302 29.4026 12.059 29.0257 12.3269Z" fill="white"/>
<path d="M38.6515 15.9446H45.1675C45.3156 15.9446 45.4367 15.8241 45.4367 15.6767V15.0469C45.4367 13.9214 45.2213 12.9433 44.777 12.126C44.3462 11.322 43.7269 10.6923 42.9326 10.2501C42.1383 9.82138 41.2094 9.5936 40.1324 9.5936C39.0419 9.5936 38.0726 9.82138 37.2648 10.2769C36.4571 10.7325 35.8243 11.3756 35.38 12.193C34.9358 13.0103 34.7069 13.975 34.7069 15.0737C34.7069 16.7888 35.1916 18.1287 36.1743 19.1068C37.1571 20.0715 38.5034 20.5538 40.2132 20.5538C41.6941 20.5538 42.8923 20.2323 43.7943 19.5757C44.602 18.9996 45.1136 18.2358 45.3559 17.3113C45.3694 17.2711 45.3829 17.2309 45.3829 17.1907V17.1773C45.3694 17.0434 45.2752 16.9496 45.154 16.9362H42.0441C41.9768 16.9362 41.9229 16.9764 41.896 17.0299C41.7883 17.2845 41.5864 17.4855 41.3306 17.6195C41.0344 17.7803 40.6844 17.8607 40.2939 17.8607C39.7285 17.8607 39.2708 17.6999 38.9611 17.3649C38.638 17.0299 38.4899 16.6012 38.4899 16.092C38.4899 16.025 38.5707 15.9446 38.6515 15.9446ZM38.5169 13.6266C38.5707 13.2649 38.7323 12.9701 39.015 12.7289C39.3516 12.4475 39.742 12.3002 40.2132 12.3002C40.6844 12.3002 41.0882 12.4475 41.4114 12.7289C41.6806 12.9701 41.8287 13.2649 41.8826 13.6266C41.896 13.6534 41.896 13.6668 41.896 13.6936C41.896 13.7874 41.8287 13.8544 41.7345 13.8544H38.665C38.5842 13.8544 38.5034 13.7874 38.5034 13.6936C38.5034 13.6668 38.5034 13.64 38.5169 13.6266Z" fill="white"/>
<path d="M57.7552 20.1117C57.7552 20.2591 57.6341 20.3796 57.486 20.3796H53.7164C53.6087 20.3796 53.5145 20.3127 53.4741 20.2189L51.522 16.8557C51.5085 16.8423 51.5085 16.8156 51.495 16.8022C51.4681 16.7754 51.4277 16.7486 51.3739 16.7486C51.3335 16.7486 51.2931 16.7754 51.2662 16.8022C51.2527 16.8156 51.2393 16.8423 51.2258 16.8557L50.8758 17.2979C50.8354 17.3247 50.8219 17.3649 50.8219 17.4051V20.0983C50.8219 20.2457 50.7142 20.3662 50.5527 20.3662H47.2408C47.0927 20.3662 46.9716 20.2457 46.9716 20.0983V6.37786C46.9716 6.29747 47.0389 6.21707 47.1331 6.21707H50.5392C50.6873 6.21707 50.8084 6.33766 50.8084 6.48505V13.0237C50.8084 13.1041 50.8758 13.1845 50.97 13.1845C51.0238 13.1845 51.0508 13.1577 51.0777 13.1309L51.1181 13.0773L53.4606 9.84816C53.4741 9.82136 53.4875 9.80796 53.501 9.79456C53.5279 9.75437 53.5683 9.74097 53.6087 9.74097H57.2975C57.4456 9.74097 57.5667 9.86156 57.5667 10.0089C57.5667 10.0491 57.5533 10.0759 57.5398 10.1161C57.5263 10.1429 57.4994 10.1697 57.486 10.1965L54.2953 14.2966L54.2549 14.3502C54.2414 14.377 54.2414 14.3904 54.2414 14.4172C54.2414 14.444 54.2549 14.4574 54.2549 14.4842V14.4976C54.2684 14.511 54.2684 14.5244 54.2953 14.5378V14.5511L57.6744 19.9643C57.7014 19.9911 57.7148 20.0045 57.7148 20.0313C57.7552 20.0447 57.7552 20.0849 57.7552 20.1117Z" fill="white"/>
<path d="M65.375 20.0045C65.375 20.1117 65.3077 20.2055 65.2135 20.2457C65.0654 20.2859 64.8904 20.326 64.675 20.3796C64.3653 20.4466 63.9884 20.5002 63.5441 20.527C62.2248 20.6074 61.2151 20.3663 60.5285 19.8169C59.8553 19.2675 59.5188 18.4368 59.5322 17.3247V12.6887C59.5322 12.5949 59.4649 12.5279 59.3707 12.5279H58.334C58.2398 12.5279 58.1725 12.4609 58.1725 12.3671V9.91515C58.1725 9.82136 58.2398 9.75437 58.334 9.75437H59.263C59.4111 9.75437 59.5322 9.63378 59.5322 9.48639V7.46317C59.5322 7.31578 59.6534 7.19519 59.8015 7.19519H63.1133C63.2614 7.19519 63.3826 7.31578 63.3826 7.46317V9.48639C63.3826 9.63378 63.5037 9.75437 63.6518 9.75437H64.9577C65.1058 9.75437 65.227 9.87495 65.227 10.0223V12.3671C65.227 12.4609 65.1596 12.5279 65.0654 12.5279H63.5576C63.4768 12.5279 63.396 12.5949 63.396 12.6887V16.9629C63.396 17.4051 63.6384 17.6195 64.123 17.6195C64.2307 17.6195 64.3653 17.6061 64.5269 17.5793C64.5807 17.5659 64.6346 17.5659 64.6885 17.5525C64.7154 17.5391 64.7288 17.5391 64.7558 17.5391C64.8231 17.5391 64.8769 17.5793 64.9039 17.6329C64.9173 17.6597 64.9173 17.6731 64.9173 17.6999L65.375 19.8973C65.3616 19.9375 65.375 19.9777 65.375 20.0045Z" fill="white"/>
<path d="M86.0001 20.0045C86.0001 20.1117 85.9327 20.2055 85.8385 20.2457C85.6904 20.2859 85.5154 20.326 85.3 20.3796C84.9903 20.4466 84.6134 20.5002 84.1691 20.527C82.8498 20.6074 81.8401 20.3663 81.1535 19.8169C80.4803 19.2675 80.1438 18.4368 80.1572 17.3247V12.6887C80.1572 12.5949 80.0899 12.5279 79.9957 12.5279H78.959C78.8648 12.5279 78.7975 12.4609 78.7975 12.3671V9.91515C78.7975 9.82136 78.8648 9.75437 78.959 9.75437H79.888C80.0361 9.75437 80.1572 9.63378 80.1572 9.48639V7.46317C80.1572 7.31578 80.2784 7.19519 80.4265 7.19519H83.7383C83.8864 7.19519 84.0076 7.31578 84.0076 7.46317V9.48639C84.0076 9.63378 84.1287 9.75437 84.2768 9.75437H85.5827C85.7308 9.75437 85.852 9.87495 85.852 10.0223V12.3671C85.852 12.4609 85.7847 12.5279 85.6904 12.5279H84.1826C84.1018 12.5279 84.021 12.5949 84.021 12.6887V16.9629C84.021 17.4051 84.2634 17.6195 84.748 17.6195C84.8557 17.6195 84.9903 17.6061 85.1519 17.5793C85.2058 17.5659 85.2596 17.5659 85.3135 17.5525C85.3404 17.5391 85.3538 17.5391 85.3808 17.5391C85.4481 17.5391 85.5019 17.5793 85.5289 17.6329C85.5423 17.6597 85.5423 17.6731 85.5423 17.6999L86.0001 19.8973C85.9866 19.9375 86.0001 19.9777 86.0001 20.0045Z" fill="white"/>
<path d="M77.532 10.0223V20.1251C77.532 20.2725 77.4243 20.3931 77.2627 20.3931H74.1529C74.0182 20.3931 73.9105 20.2993 73.8836 20.1653V18.4368C73.8836 18.3966 73.8567 18.3698 73.8163 18.3698C73.7759 18.3698 73.749 18.3966 73.749 18.4368C73.5201 19.08 73.1028 19.5891 72.5508 19.9643C71.9719 20.3529 71.2853 20.527 70.491 20.527C69.7505 20.527 69.0909 20.3529 68.5389 20.0179C67.9869 19.6829 67.5561 19.214 67.2465 18.611C66.9368 18.0081 66.7753 17.3247 66.7753 16.5476V10.0357C66.7753 9.88836 66.8964 9.76777 67.0445 9.76777H70.3564C70.5044 9.76777 70.6256 9.88836 70.6256 10.0357V15.7571C70.6256 16.2796 70.7602 16.695 71.0295 16.9897C71.2987 17.2845 71.6757 17.4319 72.1604 17.4319C72.6316 17.4319 73.0085 17.2845 73.3047 16.9897C73.5874 16.6816 73.722 16.2796 73.722 15.7571V10.0357C73.722 9.88836 73.8432 9.76777 73.9913 9.76777H77.3031C77.4243 9.75437 77.532 9.87496 77.532 10.0223Z" fill="white"/>
</svg>
