<svg width="127" height="44" viewBox="0 0 127 44" fill="none" xmlns="http://www.w3.org/2000/svg">
<path d="M26.2319 20.3001C26.2121 21.2631 25.4608 22.0098 24.5118 22.0098H15.2195C14.2705 22.0098 13.4994 22.7762 13.4994 23.7195C13.4994 23.8178 13.539 24.0929 13.5587 24.1125C14.488 27.9643 17.8688 30.8727 21.9614 31.0496H21.9811C22.2184 31.0692 22.4161 31.2461 22.4359 31.4819V43.5677C22.4161 43.8035 22.2382 44 22.0009 44H21.9416C21.9416 44 21.9416 44 21.9218 44C10.6327 43.7445 1.41943 35.0978 0.391348 24.0732C0.371577 23.9553 0.351807 23.8374 0.351807 23.7195V23.6999C0.371578 22.7566 1.12287 21.9902 2.07187 21.9902H11.3642C12.3132 21.9902 13.0842 21.2238 13.0842 20.2805C13.0842 20.1822 13.0447 19.9267 13.0447 19.9071C12.1352 16.0554 8.75442 13.1469 4.64208 12.9504H4.60254C4.58277 12.9504 4.58277 12.9504 4.58277 12.9504C4.563 12.9504 4.563 12.9504 4.563 12.9504C4.34552 12.9308 4.18735 12.7539 4.14781 12.5377C4.14781 12.5181 4.14781 12.5181 4.14781 12.5181V0.451985C4.14781 0.196514 4.34552 0 4.58277 0H4.64208C10.5536 0.11791 15.8917 2.57436 19.7866 6.44573C23.3256 9.96337 25.6783 14.6798 26.1726 19.9464C26.2121 20.0643 26.2319 20.1626 26.2319 20.3001Z" fill="white"/>
<path d="M34.2983 41.7204C33.8238 41.7204 33.4284 41.6025 33.0923 41.3864C32.7562 41.1702 32.4992 40.8754 32.3212 40.4824C32.1433 40.0894 32.0444 39.657 32.0444 39.1657C32.0444 38.6744 32.1433 38.2225 32.3212 37.8294C32.4992 37.4364 32.776 37.1416 33.1121 36.9254C33.4482 36.7093 33.8436 36.5914 34.2785 36.5914C34.6344 36.5914 34.9508 36.6503 35.2275 36.7879C35.5043 36.9254 35.7416 37.1023 35.9195 37.3381C36.0975 37.5739 36.2161 37.8294 36.2556 38.1438H35.4846C35.4253 37.9277 35.3066 37.7115 35.0891 37.5346C34.8914 37.3578 34.6146 37.2792 34.2785 37.2792C33.8238 37.2792 33.4679 37.456 33.1911 37.7901C32.9143 38.1242 32.776 38.5762 32.776 39.1264C32.776 39.6963 32.9144 40.1483 33.1714 40.502C33.4482 40.8361 33.804 41.013 34.2588 41.013C34.5553 41.013 34.8124 40.9344 35.0298 40.7772C35.2473 40.62 35.3857 40.4234 35.4648 40.1483H36.2359C36.1963 40.4431 36.0777 40.6986 35.9195 40.9344C35.7614 41.1702 35.5241 41.3471 35.2473 41.4846C34.9903 41.6615 34.674 41.7204 34.2983 41.7204Z" fill="white"/>
<path d="M39.3991 41.7204C38.9444 41.7204 38.549 41.6222 38.2129 41.406C37.8768 41.1899 37.6198 40.8951 37.4221 40.5217C37.2244 40.1483 37.1453 39.6963 37.1453 39.1854C37.1453 38.6744 37.2441 38.2225 37.4221 37.8294C37.6198 37.4364 37.8768 37.1416 38.2129 36.9451C38.549 36.7486 38.9444 36.6307 39.3991 36.6307C39.8539 36.6307 40.2493 36.7289 40.5854 36.9451C40.9215 37.1613 41.1785 37.456 41.3762 37.8294C41.5739 38.2225 41.653 38.6548 41.653 39.1854C41.653 39.6963 41.5542 40.1483 41.3762 40.5217C41.1785 40.8951 40.9215 41.1899 40.5854 41.406C40.2295 41.6222 39.8341 41.7204 39.3991 41.7204ZM39.3991 41.0523C39.7353 41.0523 40.012 40.9737 40.2493 40.7968C40.4668 40.6199 40.6249 40.4038 40.7436 40.109C40.8424 39.8339 40.9017 39.5195 40.9017 39.1854C40.9017 38.8513 40.8424 38.5565 40.7436 38.2618C40.6447 37.967 40.4668 37.7508 40.2493 37.574C40.0318 37.3971 39.755 37.3185 39.3991 37.3185C39.063 37.3185 38.7862 37.3971 38.549 37.574C38.3315 37.7508 38.1733 37.9866 38.0547 38.2618C37.9559 38.5565 37.8966 38.8513 37.8966 39.1854C37.8966 39.5195 37.9559 39.8142 38.0547 40.109C38.1536 40.3841 38.3315 40.6199 38.549 40.7968C38.7665 40.954 39.0433 41.0523 39.3991 41.0523Z" fill="white"/>
<path d="M43.5709 38.6548V41.6222H42.7998V36.6896H43.5313V37.456H43.5906C43.7093 37.2006 43.8872 37.0041 44.1245 36.8468C44.3617 36.6896 44.678 36.611 45.0537 36.611C45.548 36.611 45.9631 36.7682 46.2795 37.063C46.5958 37.3774 46.7342 37.8294 46.7342 38.4779V41.6222H45.9631V38.5369C45.9631 38.1438 45.8643 37.8491 45.6666 37.6329C45.4689 37.4167 45.1921 37.2988 44.8362 37.2988C44.4803 37.2988 44.164 37.4167 43.9267 37.6526C43.6895 37.8884 43.5709 38.2225 43.5709 38.6548Z" fill="white"/>
<path d="M48.909 38.6548V41.6222H48.1379V36.6896H48.8695V37.456H48.9288C49.0474 37.2006 49.2253 37.0041 49.4626 36.8468C49.6998 36.6896 50.0162 36.611 50.3918 36.611C50.8861 36.611 51.3013 36.7682 51.6176 37.063C51.9339 37.3774 52.0723 37.8294 52.0723 38.4779V41.6222H51.3013V38.5369C51.3013 38.1438 51.2024 37.8491 51.0047 37.6329C50.807 37.4167 50.5302 37.2988 50.1743 37.2988C49.8185 37.2988 49.5021 37.4167 49.2649 37.6526C49.0276 37.8884 48.909 38.2225 48.909 38.6548Z" fill="white"/>
<path d="M55.552 41.7204C55.0775 41.7204 54.6623 41.6222 54.3064 41.406C53.9703 41.1899 53.6935 40.8951 53.5156 40.5217C53.3376 40.1483 53.2388 39.6963 53.2388 39.1854C53.2388 38.6745 53.3376 38.2421 53.5156 37.8491C53.6935 37.456 53.9703 37.1613 54.3064 36.9451C54.6425 36.7289 55.0379 36.611 55.4729 36.611C55.7299 36.611 55.9869 36.6503 56.2439 36.7486C56.501 36.8272 56.7184 36.9647 56.9359 37.1613C57.1336 37.3578 57.3116 37.6133 57.4302 37.9277C57.5488 38.2421 57.6081 38.6351 57.6081 39.0871V39.4016H54.0098C54.0296 39.9322 54.168 40.3252 54.4646 40.62C54.7414 40.8951 55.117 41.0326 55.5717 41.0326C55.8683 41.0326 56.1253 40.9737 56.3428 40.8361C56.5603 40.6986 56.7184 40.5217 56.8173 40.2662L57.5488 40.4628C57.4302 40.8361 57.1929 41.1309 56.8568 41.3667C56.4812 41.6025 56.0462 41.7204 55.552 41.7204ZM54.0098 38.7531H56.8371C56.8371 38.3404 56.7184 37.9866 56.4614 37.7115C56.2242 37.4364 55.8881 37.2988 55.4729 37.2988C55.1763 37.2988 54.9193 37.3578 54.7216 37.4953C54.5041 37.6329 54.3459 37.8098 54.2273 38.0259C54.0889 38.2618 54.0098 38.4976 54.0098 38.7531Z" fill="white"/>
<path d="M60.7912 41.7204C60.3167 41.7204 59.9213 41.6025 59.5852 41.3864C59.2491 41.1702 58.9921 40.8754 58.8142 40.4824C58.6362 40.0894 58.5374 39.657 58.5374 39.1657C58.5374 38.6744 58.6362 38.2225 58.8142 37.8294C58.9921 37.4364 59.2689 37.1416 59.605 36.9254C59.9411 36.7093 60.3365 36.5914 60.7715 36.5914C61.1273 36.5914 61.4437 36.6503 61.7205 36.7879C61.9973 36.9254 62.2345 37.1023 62.4124 37.3381C62.5904 37.5739 62.709 37.8294 62.7485 38.1438H61.9775C61.9182 37.9277 61.7996 37.7115 61.5821 37.5346C61.3844 37.3578 61.1076 37.2792 60.7715 37.2792C60.3167 37.2792 59.9609 37.456 59.6841 37.7901C59.4073 38.1242 59.2689 38.5762 59.2689 39.1264C59.2689 39.6963 59.4073 40.1483 59.6643 40.502C59.9411 40.8361 60.297 41.013 60.7517 41.013C61.0483 41.013 61.3053 40.9344 61.5228 40.7772C61.7402 40.62 61.8786 40.4234 61.9577 40.1483H62.7288C62.6892 40.4431 62.5706 40.6986 62.4124 40.9344C62.2543 41.1702 62.017 41.3471 61.7402 41.4846C61.4832 41.6615 61.1471 41.7204 60.7912 41.7204Z" fill="white"/>
<path d="M66.0109 36.6896V37.3381H64.9433V40.2269C64.9433 40.4431 64.9828 40.6003 65.0421 40.6985C65.1014 40.7968 65.1805 40.8754 65.2794 40.9147C65.3782 40.954 65.4771 40.9736 65.5957 40.9736C65.6748 40.9736 65.7539 40.9737 65.7934 40.954C65.8527 40.954 65.8923 40.9343 65.9318 40.9343L66.09 41.6222C66.0307 41.6418 65.9713 41.6615 65.8725 41.6811C65.7736 41.7008 65.655 41.7204 65.5166 41.7204C65.2991 41.7204 65.0816 41.6811 64.8839 41.5828C64.6862 41.4846 64.5083 41.347 64.3699 41.1702C64.2315 40.9933 64.1722 40.7378 64.1722 40.4627V37.3381H63.4209V36.6896H64.1722V35.5105H64.9433V36.6896H66.0109Z" fill="white"/>
<path d="M67.5528 35.8642C67.3947 35.8642 67.2761 35.8053 67.1772 35.707C67.0784 35.6088 67.019 35.4909 67.019 35.3533C67.019 35.2157 67.0784 35.0978 67.1772 34.9996C67.2761 34.9013 67.4145 34.8423 67.5528 34.8423C67.6912 34.8423 67.8296 34.9013 67.9285 34.9996C68.0274 35.0978 68.0867 35.2157 68.0867 35.3533C68.0867 35.4909 68.0274 35.6088 67.9285 35.707C67.8296 35.8053 67.711 35.8642 67.5528 35.8642ZM67.1772 41.6222V36.6896H67.9483V41.6222H67.1772Z" fill="white"/>
<path d="M70.0836 38.6548V41.6222H69.3125V36.6896H70.044V37.456H70.1033C70.222 37.2006 70.3999 37.0041 70.6371 36.8468C70.8744 36.6896 71.1907 36.611 71.5664 36.611C72.0607 36.611 72.4758 36.7682 72.7922 37.063C73.1085 37.3774 73.2469 37.8294 73.2469 38.4779V41.6222H72.4758V38.5369C72.4758 38.1438 72.377 37.8491 72.1793 37.6329C71.9816 37.4167 71.7048 37.2988 71.3489 37.2988C70.993 37.2988 70.6767 37.4167 70.4394 37.6526C70.2022 37.8884 70.0836 38.2225 70.0836 38.6548Z" fill="white"/>
<path d="M76.6672 43.5873C76.1136 43.5873 75.6787 43.489 75.3426 43.2925C75.0262 43.096 74.789 42.8602 74.6308 42.6047L75.2437 42.1724C75.3228 42.2706 75.4019 42.3689 75.5007 42.4868C75.5996 42.6047 75.7577 42.703 75.9357 42.8012C76.1136 42.8798 76.3706 42.9388 76.6672 42.9388C77.0626 42.9388 77.3987 42.8405 77.6558 42.644C77.9128 42.4475 78.0512 42.1527 78.0512 41.7401V40.7378H77.9919C77.9325 40.8361 77.8535 40.9343 77.7546 41.0719C77.6558 41.2095 77.4976 41.3274 77.3196 41.4256C77.1219 41.5239 76.8649 41.5828 76.5486 41.5828C76.1532 41.5828 75.7973 41.4846 75.4612 41.3077C75.1448 41.1112 74.8878 40.8361 74.7099 40.4823C74.532 40.1286 74.4331 39.6766 74.4331 39.1657C74.4331 38.6547 74.532 38.2224 74.7099 37.849C74.8878 37.4756 75.1448 37.1809 75.4612 36.9844C75.7775 36.7682 76.1532 36.6699 76.5684 36.6699C76.8847 36.6699 77.1417 36.7289 77.3394 36.8271C77.5371 36.9254 77.6755 37.063 77.7744 37.1809C77.8732 37.3184 77.9523 37.4167 78.0116 37.515H78.0907V36.7289H78.8222V41.799C78.8222 42.2313 78.7234 42.5654 78.5257 42.8405C78.328 43.1157 78.0709 43.3122 77.7546 43.4301C77.4185 43.5087 77.0626 43.5873 76.6672 43.5873ZM76.6277 40.8557C77.0824 40.8557 77.4383 40.6985 77.6755 40.3841C77.9128 40.0697 78.0512 39.6373 78.0512 39.1067C78.0512 38.5761 77.9325 38.1438 77.6953 37.7901C77.458 37.456 77.1022 37.2791 76.6277 37.2791C76.3113 37.2791 76.0345 37.3577 75.8171 37.515C75.5996 37.6722 75.4414 37.8883 75.3426 38.1635C75.2437 38.4386 75.1844 38.7333 75.1844 39.0674C75.1844 39.5784 75.303 40.0107 75.56 40.3251C75.7973 40.6985 76.1532 40.8557 76.6277 40.8557Z" fill="white"/>
<path d="M83.2708 43.4694C83.1324 43.4694 83.0336 43.4498 82.9347 43.4301C82.8358 43.4105 82.7568 43.3908 82.7172 43.3712L82.9149 42.703C83.0929 42.7423 83.2708 42.762 83.4092 42.762C83.5476 42.7423 83.686 42.6834 83.7848 42.5655C83.9035 42.4476 84.0023 42.2707 84.0814 42.0152L84.2198 41.6222L82.3811 36.6503H83.2115L84.5757 40.5807H84.635L85.9992 36.6503H86.8296L84.7141 42.31C84.4373 43.0961 83.9628 43.4694 83.2708 43.4694Z" fill="#0963E7"/>
<path d="M89.6765 41.7204C89.2218 41.7204 88.8263 41.6222 88.4902 41.406C88.1541 41.1899 87.8971 40.8951 87.6994 40.5217C87.5017 40.1483 87.4226 39.6963 87.4226 39.1854C87.4226 38.6744 87.5215 38.2225 87.6994 37.8294C87.8773 37.4364 88.1541 37.1416 88.4902 36.9451C88.8263 36.7289 89.2218 36.6307 89.6765 36.6307C90.1312 36.6307 90.5266 36.7289 90.8627 36.9451C91.1989 37.1613 91.4559 37.456 91.6536 37.8294C91.8513 38.2028 91.9304 38.6548 91.9304 39.1854C91.9304 39.6963 91.8315 40.1483 91.6536 40.5217C91.4559 40.8951 91.1989 41.1899 90.8627 41.406C90.5266 41.6222 90.1312 41.7204 89.6765 41.7204ZM89.6765 41.0523C90.0126 41.0523 90.2894 40.9737 90.5266 40.7968C90.7441 40.6199 90.9023 40.4038 91.0209 40.109C91.1198 39.8339 91.1791 39.5195 91.1791 39.1854C91.1791 38.8513 91.1198 38.5565 91.0209 38.2618C90.9221 37.967 90.7441 37.7508 90.5266 37.574C90.3092 37.3971 90.0324 37.3185 89.6765 37.3185C89.3404 37.3185 89.0636 37.3971 88.8263 37.574C88.6089 37.7508 88.4507 37.9866 88.3321 38.2618C88.2332 38.5565 88.1739 38.8513 88.1739 39.1854C88.1739 39.5195 88.2332 39.8142 88.3321 40.109C88.4309 40.3841 88.6089 40.6199 88.8263 40.7968C89.0636 40.954 89.3404 41.0523 89.6765 41.0523Z" fill="#0963E7"/>
<path d="M96.2207 39.5981V36.67H96.9918V41.6025H96.2207V40.7575H96.1614C96.0428 41.013 95.8648 41.2292 95.6276 41.3864C95.3903 41.5632 95.074 41.6418 94.6984 41.6418C94.2239 41.6418 93.8482 41.4846 93.5517 41.1898C93.2551 40.8754 93.0969 40.4234 93.0969 39.7946V36.6503H93.868V39.7356C93.868 40.0894 93.9668 40.3841 94.1646 40.6003C94.3623 40.8165 94.6193 40.9147 94.9554 40.9147C95.1531 40.9147 95.331 40.8754 95.5287 40.7772C95.7264 40.6789 95.8846 40.5414 96.023 40.3252C96.1614 40.168 96.2207 39.9125 96.2207 39.5981Z" fill="#0963E7"/>
<path d="M98.3757 41.6222V36.6896H99.1073V37.4364H99.1666C99.2654 37.2006 99.4236 36.9844 99.6608 36.8468C99.8981 36.6896 100.155 36.611 100.471 36.611C100.531 36.611 100.59 36.611 100.689 36.611C100.768 36.611 100.827 36.611 100.887 36.611V37.3774C100.867 37.3774 100.808 37.3578 100.709 37.3381C100.61 37.3185 100.531 37.3185 100.412 37.3185C100.056 37.3185 99.7597 37.4364 99.5224 37.6526C99.2852 37.8687 99.1666 38.1439 99.1666 38.4779V41.6025H98.3757V41.6222Z" fill="#0963E7"/>
<path d="M106.343 43.5873C105.79 43.5873 105.355 43.489 105.019 43.2925C104.702 43.096 104.465 42.8602 104.307 42.6047L104.92 42.1724C104.999 42.2706 105.078 42.3689 105.177 42.4868C105.276 42.6047 105.434 42.703 105.612 42.8012C105.79 42.8798 106.047 42.9388 106.343 42.9388C106.739 42.9388 107.075 42.8405 107.332 42.644C107.589 42.4475 107.727 42.1527 107.727 41.7401V40.7378H107.668C107.609 40.8361 107.529 40.9343 107.431 41.0719C107.332 41.2095 107.174 41.3274 106.996 41.4256C106.798 41.5239 106.541 41.5828 106.225 41.5828C105.829 41.5828 105.473 41.4846 105.137 41.3077C104.821 41.1112 104.564 40.8361 104.386 40.4823C104.208 40.1286 104.109 39.6766 104.109 39.1657C104.109 38.6547 104.208 38.2224 104.386 37.849C104.564 37.4756 104.821 37.1809 105.137 36.9844C105.454 36.7682 105.829 36.6699 106.244 36.6699C106.561 36.6699 106.818 36.7289 107.015 36.8271C107.213 36.9254 107.352 37.063 107.45 37.1809C107.549 37.3184 107.628 37.4167 107.688 37.515H107.767V36.7289H108.498V41.799C108.498 42.2313 108.399 42.5654 108.202 42.8405C108.004 43.1157 107.747 43.3122 107.431 43.4301C107.095 43.5087 106.739 43.5873 106.343 43.5873ZM106.323 40.8557C106.778 40.8557 107.134 40.6985 107.371 40.3841C107.609 40.0697 107.747 39.6373 107.747 39.1067C107.747 38.5761 107.628 38.1438 107.391 37.7901C107.154 37.456 106.798 37.2791 106.323 37.2791C106.007 37.2791 105.73 37.3577 105.513 37.515C105.295 37.6722 105.137 37.8883 105.038 38.1635C104.94 38.4386 104.88 38.7333 104.88 39.0674C104.88 39.5784 104.999 40.0107 105.256 40.3251C105.473 40.6985 105.829 40.8557 106.323 40.8557Z" fill="#0963E7"/>
<path d="M111.899 41.7204C111.444 41.7204 111.049 41.6222 110.713 41.406C110.377 41.1899 110.12 40.8951 109.922 40.5217C109.724 40.1483 109.645 39.6963 109.645 39.1854C109.645 38.6744 109.744 38.2225 109.922 37.8294C110.1 37.4364 110.377 37.1416 110.713 36.9451C111.049 36.7289 111.444 36.6307 111.899 36.6307C112.354 36.6307 112.749 36.7289 113.085 36.9451C113.421 37.1613 113.678 37.456 113.876 37.8294C114.074 38.2225 114.153 38.6548 114.153 39.1854C114.153 39.6963 114.054 40.1483 113.876 40.5217C113.678 40.8951 113.421 41.1899 113.085 41.406C112.749 41.6222 112.354 41.7204 111.899 41.7204ZM111.899 41.0523C112.235 41.0523 112.512 40.9737 112.749 40.7968C112.967 40.6199 113.125 40.4038 113.243 40.109C113.342 39.8339 113.401 39.5195 113.401 39.1854C113.401 38.8513 113.342 38.5565 113.243 38.2618C113.144 37.967 112.967 37.7508 112.749 37.574C112.532 37.3971 112.255 37.3185 111.899 37.3185C111.563 37.3185 111.286 37.3971 111.049 37.574C110.831 37.7508 110.673 37.9866 110.554 38.2618C110.456 38.5565 110.396 38.8513 110.396 39.1854C110.396 39.5195 110.456 39.8142 110.554 40.109C110.653 40.3841 110.831 40.6199 111.049 40.7968C111.286 40.954 111.563 41.0523 111.899 41.0523Z" fill="#0963E7"/>
<path d="M116.782 41.7401C116.466 41.7401 116.189 41.6811 115.932 41.5632C115.675 41.4453 115.477 41.2685 115.319 41.0523C115.161 40.8361 115.102 40.561 115.102 40.2269C115.102 39.9518 115.161 39.716 115.28 39.5391C115.398 39.3623 115.537 39.2247 115.734 39.1264C115.912 39.0282 116.13 38.9496 116.347 38.8906C116.585 38.8317 116.802 38.7924 117.039 38.7727C117.336 38.7334 117.593 38.7138 117.771 38.6941C117.949 38.6745 118.107 38.6351 118.186 38.5958C118.265 38.5565 118.324 38.4583 118.324 38.3404V38.3207C118.324 38.0063 118.245 37.7508 118.067 37.574C117.889 37.3971 117.632 37.3185 117.277 37.3185C116.921 37.3185 116.624 37.3971 116.426 37.5543C116.229 37.7115 116.071 37.8884 115.991 38.0652L115.26 37.8098C115.398 37.515 115.557 37.2792 115.774 37.1023C115.992 36.9254 116.229 36.8075 116.486 36.7486C116.743 36.6896 117 36.6503 117.257 36.6503C117.415 36.6503 117.593 36.67 117.81 36.7093C118.028 36.7486 118.226 36.8272 118.423 36.9451C118.621 37.063 118.779 37.2399 118.918 37.4757C119.056 37.7115 119.115 38.0259 119.115 38.419V41.6811H118.344V41.013H118.305C118.245 41.1113 118.166 41.2292 118.048 41.3471C117.929 41.465 117.771 41.5829 117.573 41.6615C117.316 41.7008 117.079 41.7401 116.782 41.7401ZM116.901 41.0523C117.198 41.0523 117.455 40.9933 117.672 40.8754C117.889 40.7575 118.028 40.6003 118.147 40.4234C118.245 40.2466 118.305 40.0501 118.305 39.8339V39.1461C118.265 39.1854 118.206 39.2247 118.087 39.2443C117.969 39.2836 117.85 39.3033 117.712 39.3229C117.573 39.3426 117.435 39.3623 117.296 39.3819C117.158 39.4016 117.059 39.4016 116.98 39.4212C116.782 39.4409 116.604 39.4802 116.426 39.5391C116.249 39.5981 116.11 39.6767 116.011 39.7946C115.912 39.9125 115.853 40.0697 115.853 40.2466C115.853 40.502 115.952 40.7182 116.15 40.8361C116.347 40.9933 116.585 41.0523 116.901 41.0523Z" fill="#0963E7"/>
<path d="M121.211 35.0389V41.6222H120.44V35.0389H121.211Z" fill="#0963E7"/>
<path d="M126.134 37.7901L125.442 37.9866C125.383 37.8098 125.264 37.6526 125.106 37.4953C124.948 37.3381 124.71 37.2792 124.374 37.2792C124.078 37.2792 123.821 37.3578 123.623 37.4953C123.425 37.6329 123.326 37.8098 123.326 38.0259C123.326 38.2225 123.406 38.36 123.524 38.4779C123.663 38.5958 123.88 38.6744 124.177 38.7531L124.908 38.9299C125.778 39.1461 126.233 39.5981 126.233 40.2662C126.233 40.5414 126.154 40.7968 125.996 41.0326C125.837 41.2488 125.6 41.4257 125.323 41.5632C125.027 41.7008 124.691 41.7598 124.315 41.7598C123.801 41.7598 123.386 41.6418 123.05 41.4257C122.714 41.2095 122.516 40.8951 122.417 40.4627L123.149 40.2859C123.287 40.8165 123.663 41.0916 124.295 41.0916C124.651 41.0916 124.928 41.013 125.145 40.8558C125.363 40.6986 125.462 40.5217 125.462 40.3055C125.462 39.9518 125.224 39.716 124.73 39.6177L123.9 39.4212C123.445 39.3229 123.109 39.1461 122.891 38.9299C122.674 38.6941 122.575 38.419 122.575 38.0849C122.575 37.8098 122.654 37.5543 122.812 37.3381C122.971 37.122 123.188 36.9648 123.465 36.8272C123.742 36.7093 124.058 36.6503 124.394 36.6503C124.888 36.6503 125.264 36.7486 125.561 36.9648C125.818 37.1613 126.015 37.4364 126.134 37.7901Z" fill="#0963E7"/>
<path d="M50.1347 29.3595C50.1347 29.3399 50.115 29.3399 50.115 29.3202L46.2992 22.3439C46.2794 22.3242 46.2596 22.2653 46.2596 22.226C46.2596 22.1474 46.2992 22.0884 46.3387 22.0295C46.3585 22.0098 46.3783 22.0098 46.398 21.9902C47.4064 21.4596 48.1774 20.7325 48.7706 19.7892C49.4032 18.7869 49.7195 17.5685 49.7195 16.134C49.7195 14.6601 49.4032 13.3827 48.7508 12.3412C48.0983 11.28 47.1889 10.4743 46.0422 9.9044C44.8757 9.33451 43.5313 9.05939 41.9694 9.05939H33.1911C33.0725 9.05939 32.9539 9.17729 32.9539 9.2952V29.4381C32.9539 29.6543 33.1318 29.8312 33.3493 29.8312H38.2327C38.4502 29.8312 38.6281 29.6543 38.6281 29.4381V23.2086C38.6281 23.071 38.7467 22.9727 38.8653 22.9727H40.5854L44.1244 29.5953C44.1837 29.7329 44.3221 29.8312 44.4803 29.8312H49.7591C49.9766 29.8312 50.1545 29.6543 50.1545 29.4381C50.1743 29.4578 50.1545 29.3988 50.1347 29.3595ZM42.9777 18.0795C42.4043 18.4725 41.6333 18.6494 40.6447 18.6494H38.8851C38.7665 18.6494 38.6479 18.5511 38.6479 18.4136V13.874C38.6479 13.7365 38.7665 13.6382 38.8851 13.6382H40.6447C41.6333 13.6382 42.4043 13.8347 42.9777 14.2474C43.551 14.6601 43.8278 15.3086 43.8278 16.1929C43.8278 17.0576 43.5313 17.6865 42.9777 18.0795Z" fill="white"/>
<path d="M57.1139 23.3854H66.683C66.9005 23.3854 67.0784 23.2086 67.0784 22.9924V22.0688C67.0784 20.418 66.7621 18.9835 66.1096 17.7847C65.477 16.6056 64.5675 15.682 63.401 15.0335C62.2346 14.4046 60.8704 14.0706 59.2887 14.0706C57.6873 14.0706 56.2638 14.4046 55.0775 15.0728C53.8913 15.7409 52.962 16.6842 52.3096 17.883C51.6571 19.0817 51.321 20.4966 51.321 22.1081C51.321 24.6235 52.0328 26.5886 53.4761 28.0232C54.9193 29.4381 56.8964 30.1456 59.4073 30.1456C61.5821 30.1456 63.3417 29.6739 64.6664 28.711C65.8526 27.866 66.6039 26.7459 66.9598 25.3899C66.9796 25.3309 66.9993 25.272 66.9993 25.213V25.1934C66.9796 24.9969 66.8412 24.8593 66.6632 24.8397H62.0962C61.9973 24.8397 61.9182 24.8986 61.8787 24.9772C61.7205 25.3506 61.424 25.6454 61.0483 25.8419C60.6134 26.0777 60.0993 26.1956 59.526 26.1956C58.6956 26.1956 58.0234 25.9598 57.5686 25.4685C57.0941 24.9772 56.8767 24.3484 56.8767 23.6016C56.8767 23.5033 56.9953 23.3854 57.1139 23.3854ZM56.9162 19.9857C56.9953 19.4551 57.2325 19.0228 57.6477 18.669C58.142 18.2564 58.7154 18.0402 59.4073 18.0402C60.0993 18.0402 60.6924 18.2564 61.1669 18.669C61.5624 19.0228 61.7798 19.4551 61.8589 19.9857C61.8787 20.025 61.8787 20.0447 61.8787 20.084C61.8787 20.2215 61.7798 20.3198 61.6414 20.3198H57.1337C57.0151 20.3198 56.8964 20.2215 56.8964 20.084C56.8964 20.0447 56.8964 20.0053 56.9162 19.9857Z" fill="white"/>
<path d="M85.1687 29.4971C85.1687 29.7132 84.9908 29.8901 84.7733 29.8901H79.2375C79.0793 29.8901 78.9409 29.7919 78.8816 29.6543L76.0148 24.7217C75.9951 24.7021 75.9951 24.6628 75.9753 24.6431C75.9358 24.6038 75.8764 24.5645 75.7974 24.5645C75.738 24.5645 75.6787 24.6038 75.6392 24.6431C75.6194 24.6628 75.5996 24.7021 75.5799 24.7217L75.0658 25.3702C75.0065 25.4095 74.9868 25.4685 74.9868 25.5275V29.4774C74.9868 29.6936 74.8286 29.8705 74.5913 29.8705H69.7277C69.5102 29.8705 69.3323 29.6936 69.3323 29.4774V9.35417C69.3323 9.23626 69.4311 9.11835 69.5695 9.11835H74.5716C74.789 9.11835 74.967 9.29521 74.967 9.51138V19.1014C74.967 19.2193 75.0658 19.3372 75.2042 19.3372C75.2833 19.3372 75.3228 19.2979 75.3624 19.2586L75.4217 19.18L78.8618 14.4439C78.8816 14.4046 78.9014 14.385 78.9211 14.3653C78.9607 14.3064 79.02 14.2867 79.0793 14.2867H84.4965C84.714 14.2867 84.8919 14.4636 84.8919 14.6798C84.8919 14.7387 84.8722 14.778 84.8524 14.837C84.8326 14.8763 84.7931 14.9156 84.7733 14.9549L80.0876 20.9683L80.0283 21.0469C80.0086 21.0862 80.0085 21.1058 80.0085 21.1451C80.0085 21.1844 80.0283 21.2041 80.0283 21.2434V21.2631C80.0481 21.2827 80.0481 21.3024 80.0876 21.322V21.3417L85.0501 29.2809C85.0897 29.3202 85.1094 29.3399 85.1094 29.3792C85.1687 29.3988 85.1687 29.4578 85.1687 29.4971Z" fill="white"/>
<g clip-path="url(#clip0_116_7118)">
<path d="M85.1687 29.4971C85.1687 29.7132 84.9908 29.8901 84.7733 29.8901H79.2375C79.0793 29.8901 78.9409 29.7919 78.8816 29.6543L76.0148 24.7217C75.9951 24.7021 75.9951 24.6628 75.9753 24.6431C75.9358 24.6038 75.8764 24.5645 75.7974 24.5645C75.738 24.5645 75.6787 24.6038 75.6392 24.6431C75.6194 24.6628 75.5996 24.7021 75.5799 24.7217L75.0658 25.3702C75.0065 25.4095 74.9868 25.4685 74.9868 25.5275V29.4774C74.9868 29.6936 74.8286 29.8705 74.5913 29.8705H69.7277C69.5102 29.8705 69.3323 29.6936 69.3323 29.4774V9.35417C69.3323 9.23626 69.4311 9.11835 69.5695 9.11835H74.5716C74.789 9.11835 74.967 9.29521 74.967 9.51138V19.1014C74.967 19.2193 75.0658 19.3372 75.2042 19.3372C75.2833 19.3372 75.3228 19.2979 75.3624 19.2586L75.4217 19.18L78.8618 14.4439C78.8816 14.4046 78.9014 14.385 78.9211 14.3653C78.9607 14.3064 79.02 14.2867 79.0793 14.2867H84.4965C84.714 14.2867 84.8919 14.4636 84.8919 14.6798C84.8919 14.7387 84.8722 14.778 84.8524 14.837C84.8326 14.8763 84.7931 14.9156 84.7733 14.9549L80.0876 20.9683L80.0283 21.0469C80.0086 21.0862 80.0085 21.1058 80.0085 21.1451C80.0085 21.1844 80.0283 21.2041 80.0283 21.2434V21.2631C80.0481 21.2827 80.0481 21.3024 80.0876 21.322V21.3417L85.0501 29.2809C85.0897 29.3202 85.1094 29.3399 85.1094 29.3792C85.1687 29.3988 85.1687 29.4578 85.1687 29.4971Z" fill="#0963E7"/>
</g>
<path d="M96.3589 29.3399C96.3589 29.4971 96.26 29.6346 96.1216 29.6936C95.9042 29.7526 95.6471 29.8115 95.3308 29.8901C94.8761 29.9884 94.3225 30.067 93.6701 30.1063C91.7325 30.2242 90.2497 29.8705 89.2414 29.0648C88.2529 28.259 87.7586 27.0406 87.7784 25.4095V18.6101C87.7784 18.4725 87.6795 18.3743 87.5411 18.3743H86.0187C85.8804 18.3743 85.7815 18.276 85.7815 18.1384V14.5422C85.7815 14.4046 85.8804 14.3064 86.0187 14.3064H87.3829C87.6004 14.3064 87.7784 14.1295 87.7784 13.9133V10.946C87.7784 10.7298 87.9563 10.5529 88.1738 10.5529H93.0374C93.2549 10.5529 93.4328 10.7298 93.4328 10.946V13.9133C93.4328 14.1295 93.6108 14.3064 93.8282 14.3064H95.746C95.9635 14.3064 96.1414 14.4832 96.1414 14.6994V18.1384C96.1414 18.276 96.0426 18.3743 95.9042 18.3743H93.6898C93.5712 18.3743 93.4526 18.4725 93.4526 18.6101V24.8789C93.4526 25.5275 93.8085 25.8419 94.5202 25.8419C94.6784 25.8419 94.8761 25.8222 95.1133 25.7829C95.1924 25.7633 95.2715 25.7633 95.3506 25.7436C95.3901 25.724 95.4099 25.724 95.4494 25.724C95.5483 25.724 95.6274 25.7829 95.6669 25.8615C95.6867 25.9008 95.6867 25.9205 95.6867 25.9598L96.3589 29.1827C96.3391 29.2416 96.3589 29.3006 96.3589 29.3399Z" fill="#0963E7"/>
<path d="M126.648 29.3399C126.648 29.4971 126.549 29.6346 126.411 29.6936C126.193 29.7526 125.936 29.8115 125.62 29.8901C125.165 29.9884 124.612 30.067 123.959 30.1063C122.022 30.2242 120.539 29.8705 119.53 29.0648C118.542 28.259 118.048 27.0406 118.067 25.4095V18.6101C118.067 18.4725 117.969 18.3743 117.83 18.3743H116.308C116.169 18.3743 116.071 18.276 116.071 18.1384V14.5422C116.071 14.4046 116.169 14.3064 116.308 14.3064H117.672C117.889 14.3064 118.067 14.1295 118.067 13.9133V10.946C118.067 10.7298 118.245 10.5529 118.463 10.5529H123.326C123.544 10.5529 123.722 10.7298 123.722 10.946V13.9133C123.722 14.1295 123.9 14.3064 124.117 14.3064H126.035C126.253 14.3064 126.43 14.4832 126.43 14.6994V18.1384C126.43 18.276 126.332 18.3743 126.193 18.3743H123.979C123.86 18.3743 123.742 18.4725 123.742 18.6101V24.8789C123.742 25.5275 124.098 25.8419 124.809 25.8419C124.967 25.8419 125.165 25.8222 125.402 25.7829C125.481 25.7633 125.561 25.7633 125.64 25.7436C125.679 25.724 125.699 25.724 125.739 25.724C125.837 25.724 125.916 25.7829 125.956 25.8615C125.976 25.9008 125.976 25.9205 125.976 25.9598L126.648 29.1827C126.628 29.2416 126.648 29.3006 126.648 29.3399Z" fill="#0963E7"/>
<path d="M114.212 14.6994V29.5167C114.212 29.7329 114.054 29.9098 113.817 29.9098H109.25C109.052 29.9098 108.894 29.7722 108.854 29.5757V27.0406C108.854 26.9817 108.815 26.9424 108.755 26.9424C108.696 26.9424 108.657 26.9817 108.657 27.0406C108.32 27.9839 107.708 28.7307 106.897 29.2809C106.047 29.8508 105.039 30.1063 103.872 30.1063C102.785 30.1063 101.816 29.8508 101.005 29.3595C100.195 28.8682 99.562 28.1804 99.1073 27.2961C98.6525 26.4118 98.4153 25.4095 98.4153 24.2697V14.7191C98.4153 14.5029 98.5932 14.326 98.8107 14.326H103.674C103.892 14.326 104.07 14.5029 104.07 14.7191V23.1103C104.07 23.8767 104.267 24.4859 104.663 24.9182C105.058 25.3506 105.612 25.5667 106.324 25.5667C107.016 25.5667 107.569 25.3506 108.004 24.9182C108.419 24.4663 108.617 23.8767 108.617 23.1103V14.7191C108.617 14.5029 108.795 14.326 109.012 14.326H113.876C114.054 14.3064 114.212 14.4832 114.212 14.6994Z" fill="#0963E7"/>
<defs>
<clipPath id="clip0_116_7118">
<rect width="4" height="21" fill="white" transform="translate(81 9)"/>
</clipPath>
</defs>
</svg>
